<svg width="441" height="426" viewBox="0 0 441 426" fill="none" xmlns="http://www.w3.org/2000/svg">
<path d="M15.73 48.4992L17.8376 44.9864C35.3011 16.5831 66.4143 -0.880399 99.6351 0.32398C104.954 0.52471 110.173 1.1269 115.392 2.23092C146.506 8.75464 173.504 32.0393 184.644 61.7473C191.268 79.2108 193.075 99.3842 205.62 113.235C221.88 131.3 249.48 131.802 273.768 131.1C298.057 130.397 325.757 130.999 341.916 149.065C352.053 160.406 355.265 176.565 354.462 191.72C352.254 231.966 323.951 267.897 287.819 285.862C251.688 303.828 209.234 305.333 169.69 297.505C114.288 286.464 61.6971 256.255 29.9818 209.485C-1.5328 162.714 -9.562 98.9827 15.73 48.4992Z" fill="#141C29"/>
<path d="M325.543 2.12204C325.543 2.12204 340.72 2.32042 334.173 32.3756C327.725 62.4308 328.519 68.0847 328.519 79.9878C328.519 93.8747 339.728 98.9335 339.728 98.9335H319.195L304.019 28.8047V2.12204H325.543Z" fill="#E0E0E0"/>
<path d="M330.007 238.497H122.299L124.084 35.2522L319.79 25.0354L330.007 238.497Z" fill="#E0E0E0"/>
<path d="M322.865 233.239H115.157L117.042 30.0942L318.699 26.1266L322.865 233.239Z" fill="#EBEBEB"/>
<path d="M318.5 227.585H111.288V24.341L318.699 23.9443L318.5 227.585Z" fill="#FAFAFA"/>
<path d="M318.501 227.585C318.501 225.701 318.501 146.05 318.402 23.9443L318.6 24.1427C258.589 24.2419 187.468 24.4402 111.586 24.6386C111.487 24.6386 111.388 24.6386 111.289 24.6386L111.586 24.3411C111.586 98.6359 111.586 168.368 111.586 227.585L111.388 227.387C235.477 227.486 316.616 227.585 318.501 227.585C316.616 227.585 235.378 227.685 111.189 227.784H110.991V227.585C110.991 168.467 110.991 98.7351 110.991 24.3411V24.0435H111.289C111.388 24.0435 111.487 24.0435 111.586 24.0435C187.468 23.8451 258.589 23.7459 318.699 23.5475H318.897V23.7459C318.699 146.05 318.501 225.701 318.501 227.585Z" fill="#263238"/>
<path d="M318.699 23.3492C307.986 10.851 320.385 1.6261 324.651 1.42771L127.258 1.32852C116.942 1.32852 109.106 10.6526 110.892 20.7702C111.189 22.3572 111.685 23.8451 111.685 23.8451" fill="#F5F5F5"/>
<path d="M323.857 98.8343C323.857 98.8343 323.956 98.8343 324.154 98.8343C324.353 98.8343 324.65 98.8343 324.948 98.8343C325.642 98.8343 326.733 98.8343 328.023 98.8343C330.8 98.8343 334.768 98.8343 339.727 98.7351V99.0326C338.041 98.5367 336.454 97.644 334.966 96.2553C333.478 94.9658 332.288 93.1803 331.395 91.1965C330.503 89.2126 329.808 87.0304 329.312 84.749C329.015 83.5587 328.816 82.3684 328.618 81.1781C328.519 80.5829 328.42 79.9878 328.32 79.2934C328.221 78.6983 328.221 78.0039 328.221 77.4088C328.122 74.8298 328.32 72.2508 328.519 69.4734C328.717 66.7952 329.015 64.0179 329.312 61.1413C330.007 55.4873 330.8 49.635 331.792 43.5843C332.189 41.0053 332.685 38.4263 333.181 35.9465C333.578 33.4667 333.875 30.9869 334.272 28.5071C334.57 26.0273 334.867 23.6467 335.165 21.3653C335.264 20.175 335.462 18.9847 335.462 17.8936C335.462 16.7033 335.462 15.6122 335.264 14.521C334.966 12.3388 334.371 10.1566 333.379 8.27194C332.486 6.38729 331.197 4.70103 329.61 3.51073C328.023 2.41961 326.039 2.02285 324.254 2.32042C322.468 2.618 320.782 3.21315 319.492 4.30426C318.203 5.39537 317.211 6.68487 316.517 7.97437C315.822 9.36306 315.326 10.6526 315.029 12.0412C314.434 14.7194 315.029 17.0008 315.822 18.7863C316.616 20.5718 317.409 21.7621 318.004 22.5556C318.302 22.9524 318.5 23.2499 318.699 23.4483C318.897 23.6467 318.897 23.7459 318.897 23.7459C318.897 23.7459 318.798 23.6467 318.6 23.4483C318.401 23.2499 318.203 22.9524 317.905 22.5556C317.31 21.7621 316.417 20.5718 315.624 18.7863C314.83 17.1 314.136 14.6202 314.731 11.942C315.029 10.5534 315.425 9.16467 316.219 7.77598C316.913 6.38729 317.905 4.99861 319.294 3.90749C320.683 2.81638 322.369 2.12204 324.254 1.82446C326.138 1.52689 328.221 1.92365 329.907 3.11396C331.594 4.30426 332.883 6.08972 333.875 7.97437C334.867 9.95821 335.462 12.0412 335.859 14.3227C336.057 15.4138 336.057 16.6041 336.057 17.7944C336.057 18.9847 335.859 20.175 335.76 21.2661C335.462 23.6467 335.264 26.0273 334.867 28.5071C334.57 30.9869 334.272 33.4667 333.776 35.9465C333.379 38.4263 332.784 41.0053 332.387 43.5843C331.395 49.635 330.503 55.4873 329.808 61.1413C329.511 63.9187 329.213 66.6961 329.015 69.3742C328.816 72.0524 328.618 74.7306 328.717 77.2104C328.717 77.8056 328.816 78.4999 328.816 79.0951C328.816 79.6902 329.015 80.2853 329.114 80.8805C329.312 82.0708 329.61 83.2611 329.808 84.4514C330.304 86.7328 330.999 88.9151 331.891 90.8989C332.784 92.8827 333.875 94.569 335.363 95.8585C336.752 97.148 338.339 98.0407 340.025 98.5367L341.017 98.8343H340.025C335.065 98.8343 331.098 98.7351 328.32 98.7351C327.031 98.7351 325.94 98.7351 325.245 98.7351C324.948 98.7351 324.65 98.7351 324.452 98.7351C323.956 98.8343 323.857 98.8343 323.857 98.8343Z" fill="#263238"/>
<path d="M196.098 7.67682C196.197 7.77601 195.602 8.56955 195.007 9.95824C194.709 10.6526 194.411 11.5453 194.213 12.5372C194.015 13.5291 194.015 14.7195 194.015 15.8106C194.114 17.0009 194.411 18.092 194.709 19.0839C195.007 20.0758 195.403 20.8694 195.8 21.5637C196.594 22.8532 197.288 23.5475 197.189 23.6467C197.189 23.6467 196.99 23.5475 196.693 23.25C196.395 22.9524 195.899 22.4564 195.502 21.7621C195.007 21.0677 194.61 20.2742 194.213 19.2823C193.816 18.2904 193.618 17.1001 193.519 15.9098C193.419 14.7195 193.519 13.5292 193.717 12.438C193.915 11.4461 194.213 10.4542 194.61 9.75985C194.907 9.06551 195.304 8.47036 195.602 8.17278C195.899 7.8752 195.998 7.67682 196.098 7.67682Z" fill="#263238"/>
<path d="M191.138 0.634155C191.237 0.733347 189.849 1.62608 188.559 3.8083C187.171 5.89133 185.98 9.46225 186.675 13.3307C187.369 17.1992 189.849 20.0758 191.833 21.5637C193.916 23.1507 195.503 23.5475 195.404 23.6467C195.404 23.6467 195.007 23.5475 194.312 23.3491C193.618 23.1507 192.626 22.6548 191.634 21.8612C189.452 20.3734 186.972 17.4968 186.179 13.4299C185.484 9.46225 186.774 5.79214 188.262 3.60992C188.956 2.5188 189.75 1.72527 190.246 1.22931C190.741 0.832538 191.138 0.634155 191.138 0.634155Z" fill="#263238"/>
<path d="M302.729 159.242C302.729 159.242 302.531 159.242 302.035 159.242C301.539 159.242 300.944 159.242 300.15 159.242C298.464 159.242 295.984 159.242 292.81 159.242C286.462 159.242 277.237 159.242 265.83 159.341C243.115 159.341 211.671 159.341 176.954 159.441C163.464 159.441 150.569 159.441 138.666 159.441H138.467V159.242C138.467 133.849 138.566 112.027 138.566 96.4537C138.566 88.7167 138.666 82.5668 138.666 78.3016C138.666 76.2185 138.666 74.5323 138.666 73.4411C138.666 72.9452 138.666 72.4492 138.666 72.1517C138.666 71.8541 138.666 71.7549 138.666 71.7549C138.666 71.7549 138.666 71.8541 138.666 72.1517C138.666 72.4492 138.666 72.846 138.666 73.4411C138.666 74.5323 138.666 76.2185 138.666 78.3016C138.666 82.5668 138.666 88.7167 138.765 96.4537C138.765 111.928 138.864 133.849 138.864 159.242L138.666 159.044C150.569 159.044 163.563 159.044 176.954 159.044C211.671 159.044 243.115 159.143 265.83 159.143C277.237 159.143 286.362 159.242 292.81 159.242C295.984 159.242 298.464 159.242 300.15 159.242C300.944 159.242 301.638 159.242 302.035 159.242C302.432 159.242 302.729 159.242 302.729 159.242Z" fill="#263238"/>
<path d="M168.522 137.718H151.957V154.283H168.522V137.718Z" fill="#26C7BC"/>
<path d="M192.824 125.815H176.259V154.183H192.824V125.815Z" fill="#26C7BC"/>
<path d="M217.225 112.324H200.66V154.183H217.225V112.324Z" fill="#26C7BC"/>
<path d="M240.833 97.3464H224.268V154.183H240.833V97.3464Z" fill="#26C7BC"/>
<path d="M265.036 78.2023H248.471V154.283H265.036V78.2023Z" fill="#26C7BC"/>
<path d="M289.04 63.6211H272.475V153.489H289.04V63.6211Z" fill="#26C7BC"/>
<path d="M275.451 53.3051C275.352 53.3051 275.352 52.5116 275.253 51.2221C275.253 49.9326 275.154 48.1472 275.154 46.2625L275.451 46.5601C275.253 46.5601 275.054 46.5601 274.856 46.5601C272.773 46.5601 270.789 46.5601 269.4 46.4609C268.012 46.4609 267.119 46.3617 267.119 46.2625C267.119 46.1633 268.012 46.1633 269.4 46.0641C270.789 46.0641 272.674 45.9649 274.856 45.9649C275.054 45.9649 275.253 45.9649 275.451 45.9649H275.749V46.2625C275.749 48.2464 275.749 50.0318 275.65 51.2221C275.55 52.5116 275.55 53.3051 275.451 53.3051Z" fill="#263238"/>
<path d="M187.865 172.633C187.865 172.732 182.707 172.931 176.458 172.931C170.109 172.931 165.051 172.832 165.051 172.633C165.051 172.534 170.209 172.336 176.458 172.336C182.707 172.336 187.865 172.435 187.865 172.633Z" fill="#263238"/>
<path d="M176.16 180.469C176.061 180.469 175.862 179.279 175.862 177.791C175.862 176.303 175.962 175.113 176.16 175.113C176.259 175.113 176.458 176.303 176.458 177.791C176.358 179.279 176.259 180.469 176.16 180.469Z" fill="#263238"/>
<path d="M204.132 183.147C204.132 183.247 190.345 183.445 173.383 183.445C156.421 183.445 142.633 183.346 142.633 183.147C142.633 183.048 156.421 182.85 173.383 182.85C190.444 182.85 204.132 182.949 204.132 183.147Z" fill="#263238"/>
<path d="M143.129 190.785C143.03 190.785 142.832 189.099 142.832 187.115C142.832 185.032 142.931 183.445 143.129 183.445C143.327 183.445 143.427 185.131 143.427 187.115C143.427 189.099 143.327 190.785 143.129 190.785Z" fill="#263238"/>
<path d="M164.951 189.893C164.852 189.893 164.654 188.504 164.654 186.718C164.654 184.933 164.753 183.544 164.951 183.544C165.05 183.544 165.249 184.933 165.249 186.718C165.249 188.504 165.15 189.893 164.951 189.893Z" fill="#263238"/>
<path d="M187.468 190.389C187.369 190.389 187.17 188.801 187.17 186.917C187.17 184.933 187.27 183.445 187.468 183.445C187.567 183.445 187.766 185.032 187.766 186.917C187.766 188.801 187.567 190.389 187.468 190.389Z" fill="#263238"/>
<path d="M204.529 190.388C204.43 190.388 204.231 188.801 204.231 186.818C204.231 184.834 204.331 183.247 204.529 183.247C204.727 183.247 204.826 184.834 204.826 186.818C204.826 188.702 204.727 190.388 204.529 190.388Z" fill="#263238"/>
<path d="M150.767 192.868C150.767 192.967 147.494 193.166 143.327 193.166C139.261 193.166 135.888 193.067 135.888 192.868C135.888 192.769 139.161 192.571 143.327 192.571C147.494 192.571 150.767 192.67 150.767 192.868Z" fill="#263238"/>
<path d="M169.713 192.868C169.713 192.967 167.134 193.166 164.059 193.166C160.884 193.166 158.405 193.067 158.405 192.868C158.405 192.769 160.984 192.571 164.059 192.571C167.233 192.571 169.713 192.67 169.713 192.868Z" fill="#263238"/>
<path d="M193.816 193.463C193.816 193.563 191.138 193.761 187.765 193.761C184.393 193.761 181.715 193.662 181.715 193.463C181.715 193.265 184.393 193.166 187.765 193.166C191.138 193.166 193.816 193.265 193.816 193.463Z" fill="#263238"/>
<path d="M213.456 192.372C213.456 192.472 210.579 192.67 207.009 192.67C203.438 192.67 200.561 192.571 200.561 192.372C200.561 192.273 203.438 192.075 207.009 192.075C210.48 192.174 213.456 192.273 213.456 192.372Z" fill="#263238"/>
<path d="M143.327 200.01C143.228 200.01 143.03 199.018 143.03 197.828C143.03 196.638 143.129 195.646 143.327 195.646C143.525 195.646 143.625 196.638 143.625 197.828C143.625 199.117 143.525 200.01 143.327 200.01Z" fill="#263238"/>
<path d="M157.512 200.01C157.512 200.109 151.56 200.308 144.121 200.308C136.681 200.308 130.73 200.209 130.73 200.01C130.73 199.911 136.681 199.713 144.121 199.713C151.461 199.812 157.512 199.911 157.512 200.01Z" fill="#263238"/>
<path d="M157.512 206.259C157.412 206.259 157.214 204.871 157.214 203.184C157.214 201.498 157.313 200.109 157.512 200.109C157.71 200.109 157.809 201.498 157.809 203.184C157.71 204.871 157.611 206.259 157.512 206.259Z" fill="#263238"/>
<path d="M130.631 206.656C130.531 206.656 130.333 205.168 130.333 203.383C130.333 201.597 130.432 200.109 130.631 200.109C130.73 200.109 130.928 201.597 130.928 203.383C130.928 205.168 130.829 206.656 130.631 206.656Z" fill="#263238"/>
<path d="M187.964 200.01C187.865 200.01 187.666 199.018 187.666 197.828C187.666 196.638 187.765 195.646 187.964 195.646C188.063 195.646 188.261 196.638 188.261 197.828C188.261 199.117 188.162 200.01 187.964 200.01Z" fill="#263238"/>
<path d="M220.598 200.01C220.598 200.109 210.48 200.308 197.982 200.308C185.484 200.308 175.366 200.209 175.366 200.01C175.366 199.911 185.484 199.713 197.982 199.713C210.48 199.812 220.598 199.911 220.598 200.01Z" fill="#263238"/>
<path d="M202.148 206.259C202.049 206.259 201.851 204.871 201.851 203.184C201.851 201.498 201.95 200.109 202.148 200.109C202.247 200.109 202.446 201.498 202.446 203.184C202.347 204.871 202.247 206.259 202.148 206.259Z" fill="#263238"/>
<path d="M221.491 206.259C221.391 206.259 221.193 204.871 221.193 203.184C221.193 201.498 221.292 200.109 221.491 200.109C221.689 200.109 221.788 201.498 221.788 203.184C221.788 204.871 221.689 206.259 221.491 206.259Z" fill="#263238"/>
<path d="M175.366 206.656C175.267 206.656 175.069 205.168 175.069 203.383C175.069 201.597 175.168 200.109 175.366 200.109C175.466 200.109 175.664 201.597 175.664 203.383C175.565 205.168 175.466 206.656 175.366 206.656Z" fill="#263238"/>
<path d="M135.987 210.425C135.987 210.524 133.607 210.723 130.73 210.723C127.853 210.723 125.473 210.624 125.473 210.425C125.473 210.326 127.853 210.128 130.73 210.128C133.607 210.128 135.987 210.326 135.987 210.425Z" fill="#263238"/>
<path d="M162.174 209.632C162.174 209.731 159.595 209.929 156.421 209.929C153.247 209.929 150.668 209.83 150.668 209.632C150.668 209.433 153.247 209.334 156.421 209.334C159.595 209.433 162.174 209.533 162.174 209.632Z" fill="#263238"/>
<path d="M181.119 209.632C181.119 209.731 178.838 209.929 176.061 209.929C173.283 209.929 171.002 209.83 171.002 209.632C171.002 209.433 173.283 209.334 176.061 209.334C178.937 209.433 181.119 209.533 181.119 209.632Z" fill="#263238"/>
<path d="M206.711 209.632C206.711 209.731 204.231 209.929 201.255 209.929C198.28 209.929 195.8 209.83 195.8 209.632C195.8 209.433 198.28 209.334 201.255 209.334C204.231 209.433 206.711 209.533 206.711 209.632Z" fill="#263238"/>
<path d="M227.145 209.037C227.145 209.136 224.665 209.334 221.59 209.334C218.515 209.334 216.035 209.235 216.035 209.037C216.035 208.937 218.515 208.739 221.59 208.739C224.665 208.739 227.145 208.838 227.145 209.037Z" fill="#263238"/>
<path d="M302.531 213.004H232.6V169.657H302.531V213.004ZM232.6 213.004H302.531V169.757H232.7V213.004H232.6Z" fill="#263238"/>
<path d="M285.668 201.002C280.808 199.117 275.253 204.275 270.492 202.192C267.714 201.002 266.425 197.828 265.135 195.15C263.747 192.472 261.465 189.595 258.489 189.893C255.414 190.19 253.034 193.761 250.058 192.868C248.173 192.372 247.281 190.289 246.785 188.405C246.289 186.52 245.991 184.437 244.603 183.147C243.214 181.858 240.238 182.156 240.04 184.139V207.053H294.694C294.694 207.152 287.354 201.597 285.668 201.002Z" fill="#26C7BC"/>
<path d="M296.182 207.152C296.182 207.152 282.89 207.251 266.623 207.251C250.256 207.251 237.064 207.251 237.064 207.152C237.064 207.152 250.355 207.053 266.623 207.053C282.89 207.053 296.182 207.053 296.182 207.152Z" fill="#E0E0E0"/>
<path d="M296.182 197.134C296.182 197.134 282.89 197.233 266.623 197.233C250.256 197.233 237.064 197.233 237.064 197.134C237.064 197.034 250.355 197.034 266.623 197.034C282.89 197.034 296.182 197.034 296.182 197.134Z" fill="#263238"/>
<path d="M296.182 187.115C296.182 187.115 282.89 187.214 266.623 187.214C250.256 187.214 237.064 187.214 237.064 187.115C237.064 187.016 250.355 187.016 266.623 187.016C282.89 187.016 296.182 187.016 296.182 187.115Z" fill="#263238"/>
<path d="M296.182 177.593C296.182 177.593 282.89 177.692 266.623 177.692C250.256 177.692 237.064 177.692 237.064 177.593C237.064 177.494 250.355 177.494 266.623 177.494C282.89 177.494 296.182 177.494 296.182 177.593Z" fill="#263238"/>
<path d="M138.666 38.6247C138.864 38.6247 138.963 38.6247 139.062 38.6247C139.36 38.6247 139.658 38.6247 140.153 38.7239C140.649 38.8231 141.145 38.9223 141.84 39.3191C142.435 39.6167 143.03 40.1126 143.625 40.807C144.121 41.5013 144.617 42.394 144.816 43.386C145.014 44.3779 144.816 45.5682 144.419 46.6593C144.22 47.1553 143.923 47.7504 143.625 48.2464C143.328 48.7423 143.03 49.2383 142.732 49.8334C142.237 50.9245 141.741 52.214 141.542 53.5035V53.6027H141.443C140.649 53.6027 139.757 53.6027 138.864 53.5035C137.971 53.5035 136.979 53.5035 136.186 53.4043H136.087V53.3052C136.087 52.0157 135.591 50.7262 134.996 49.6351C134.698 49.0399 134.4 48.5439 134.103 48.048C133.805 47.552 133.508 47.0561 133.21 46.4609C132.714 45.3698 132.714 44.2787 132.912 43.2868C133.111 42.2948 133.508 41.4021 134.004 40.7078C134.5 40.0134 135.194 39.5175 135.789 39.2199C136.384 38.9223 136.979 38.7239 137.376 38.6247C137.872 38.5255 138.17 38.5255 138.467 38.5255C138.368 38.6247 138.467 38.6247 138.666 38.6247C138.467 38.6247 138.368 38.6247 138.269 38.6247C138.07 38.6247 137.674 38.7239 137.178 38.8231C136.682 38.9223 136.186 39.1207 135.591 39.4183C134.996 39.7158 134.4 40.2118 133.904 40.9062C133.408 41.6005 133.012 42.4932 132.813 43.386C132.615 44.3779 132.615 45.469 133.111 46.4609C133.309 46.9569 133.706 47.4528 134.004 47.9488C134.301 48.4447 134.599 48.9407 134.896 49.5359C135.491 50.627 136.087 51.9165 136.087 53.3052L135.987 53.206C136.88 53.206 137.773 53.206 138.666 53.3052C139.558 53.3052 140.451 53.3052 141.245 53.4043L141.145 53.5035C141.344 52.1149 141.84 50.9245 142.336 49.7342C142.633 49.1391 142.931 48.6431 143.228 48.1472C143.526 47.6512 143.824 47.1553 144.022 46.5601C144.419 45.469 144.617 44.3779 144.419 43.386C144.22 42.394 143.824 41.5013 143.328 40.9062C142.832 40.2118 142.237 39.7158 141.641 39.4183C141.046 39.1207 140.451 38.9223 140.054 38.8231C139.558 38.7239 139.261 38.7239 138.963 38.7239C138.963 38.6247 138.864 38.6247 138.666 38.6247Z" fill="#263238"/>
<path d="M139.459 53.2059C139.459 53.2059 139.36 53.2059 139.459 53.2059C139.459 53.1067 139.459 53.0076 139.459 52.9084C139.459 52.71 139.36 52.4124 139.36 52.0156C139.26 51.2221 139.161 50.0318 139.062 48.5439C139.062 48.1471 139.062 47.7504 139.062 47.3536C139.062 46.9568 139.062 46.5601 139.062 46.0641C139.062 45.6673 139.161 45.1714 139.459 44.7746C139.657 44.3778 140.054 43.9811 140.451 43.7827C140.947 43.5843 141.542 43.6835 141.839 44.0803C142.038 44.2787 142.137 44.5762 142.137 44.7746C142.137 45.0722 142.038 45.2706 141.839 45.469C141.641 45.6673 141.443 45.8657 141.145 45.9649C140.847 46.0641 140.649 46.1633 140.352 46.1633C139.856 46.2625 139.26 46.2625 138.665 46.2625C138.07 46.2625 137.574 46.2625 136.979 46.1633C136.681 46.0641 136.483 46.0641 136.185 45.8657C135.987 45.7665 135.69 45.5682 135.59 45.3698C135.392 45.1714 135.293 44.8738 135.194 44.6754C135.094 44.3778 135.194 44.1795 135.293 43.8819C135.392 43.6835 135.59 43.4851 135.888 43.3859C136.086 43.2867 136.384 43.2867 136.681 43.4851C136.88 43.5843 137.078 43.7827 137.177 43.9811C137.277 44.1795 137.376 44.3778 137.475 44.6754C137.574 45.1714 137.574 45.5682 137.574 46.0641C137.574 46.9568 137.574 47.7504 137.574 48.4447C137.574 49.9326 137.574 51.1229 137.574 51.9164C137.574 52.3132 137.574 52.6108 137.574 52.9084C137.574 53.0076 137.574 53.1067 137.574 53.1067C137.574 53.2059 137.574 53.2059 137.574 53.2059C137.574 53.2059 137.574 53.2059 137.574 53.1067C137.574 53.0076 137.574 53.0076 137.574 52.9084C137.574 52.71 137.574 52.4124 137.574 51.9164C137.574 51.1229 137.574 49.9326 137.475 48.4447C137.475 47.7504 137.475 46.8577 137.475 46.0641C137.475 45.6673 137.475 45.1714 137.376 44.7746C137.376 44.5762 137.277 44.3778 137.177 44.1795C137.078 43.9811 136.88 43.7827 136.681 43.6835C136.483 43.5843 136.185 43.5843 135.987 43.5843C135.789 43.6835 135.59 43.8819 135.491 44.0803C135.392 44.2787 135.293 44.5762 135.392 44.7746C135.392 45.0722 135.59 45.2706 135.69 45.469C135.987 45.8657 136.582 46.0641 137.078 46.1633C137.574 46.2625 138.169 46.2625 138.764 46.2625C139.36 46.2625 139.856 46.2625 140.451 46.1633C140.748 46.1633 140.947 46.0641 141.244 45.9649C141.443 45.8657 141.74 45.6673 141.839 45.469C142.038 45.2706 142.137 45.0722 142.137 44.7746C142.137 44.477 142.038 44.2787 141.839 44.0803C141.542 43.6835 140.947 43.5843 140.55 43.7827C140.054 43.9811 139.756 44.2787 139.558 44.6754C139.36 45.0722 139.26 45.5681 139.26 45.9649C139.26 46.3617 139.26 46.8576 139.26 47.2544C139.26 47.6512 139.26 48.0479 139.26 48.4447C139.36 49.9326 139.459 51.1229 139.459 51.9164C139.459 52.3132 139.558 52.6108 139.558 52.9084C139.36 53.0076 139.36 53.1067 139.459 53.2059Z" fill="#263238"/>
<path d="M135.987 53.206C135.987 53.206 135.987 53.5035 135.987 54.0987C135.987 54.6938 135.987 55.4874 135.987 56.3801V56.2809C136.483 56.8761 137.078 57.5704 137.673 58.3639H137.574C138.169 58.3639 138.864 58.3639 139.657 58.3639H139.558C139.856 57.9672 140.252 57.5704 140.649 57.1736C140.848 56.9753 141.046 56.7769 141.145 56.5785V56.6777C141.145 55.4874 141.145 54.2971 141.244 53.3052L141.344 53.4043C139.856 53.4043 138.566 53.3052 137.574 53.3052C137.177 53.3052 136.781 53.3052 136.483 53.3052C136.086 53.206 135.987 53.206 135.987 53.206C135.987 53.206 136.086 53.206 136.384 53.206C136.681 53.206 137.078 53.206 137.475 53.206C138.566 53.206 139.856 53.206 141.344 53.206H141.443V53.3052C141.443 54.2971 141.443 55.4874 141.443 56.6777C141.244 56.8761 141.046 57.0745 140.947 57.2728C140.55 57.6696 140.252 58.0664 139.856 58.4631H139.756C139.062 58.4631 138.368 58.4631 137.673 58.4631H137.574C136.979 57.6696 136.384 56.9753 135.888 56.2809C135.888 55.3882 135.987 54.5947 135.987 53.9995C135.888 53.5035 135.987 53.206 135.987 53.206Z" fill="#263238"/>
<path d="M141.145 56.3801C141.145 56.3801 141.046 56.3801 140.947 56.2809C140.848 56.1817 140.649 56.1817 140.451 56.0825C139.955 55.8841 139.36 55.6857 138.665 55.6857C137.971 55.6857 137.277 55.8841 136.781 55.9833C136.582 56.0825 136.384 56.1817 136.285 56.1817C136.185 56.2809 136.086 56.2809 136.086 56.2809C136.086 56.2809 136.185 56.2809 136.285 56.1817C136.384 56.0825 136.582 55.9833 136.781 55.9833C137.277 55.7849 137.872 55.5866 138.665 55.6857C139.459 55.6857 140.054 55.8841 140.55 56.0825C140.748 56.1817 140.947 56.2809 141.046 56.3801H141.145Z" fill="#263238"/>
<path d="M141.145 55.5865C141.145 55.5865 141.046 55.5865 140.947 55.4874C140.848 55.3882 140.649 55.3882 140.451 55.289C139.955 55.0906 139.36 54.8922 138.665 54.8922C137.971 54.8922 137.277 55.0906 136.781 55.1898C136.582 55.289 136.384 55.3882 136.285 55.3882C136.185 55.4873 136.086 55.4874 136.086 55.4874C136.086 55.4874 136.185 55.4873 136.285 55.3882C136.384 55.289 136.582 55.1898 136.781 55.1898C137.277 54.9914 137.872 54.793 138.665 54.8922C139.459 54.8922 140.054 55.0906 140.55 55.289C140.748 55.3882 140.947 55.4874 141.046 55.5865C141.046 55.4874 141.145 55.5865 141.145 55.5865Z" fill="#263238"/>
<path d="M141.145 54.793C141.145 54.793 141.046 54.793 140.947 54.6938C140.848 54.5946 140.649 54.5946 140.451 54.4954C139.955 54.2971 139.36 54.0987 138.665 54.0987C137.971 54.0987 137.277 54.2971 136.781 54.3963C136.582 54.4954 136.384 54.5946 136.285 54.5946C136.185 54.6938 136.086 54.6938 136.086 54.6938C136.086 54.6938 136.185 54.6938 136.285 54.5946C136.384 54.4954 136.582 54.3963 136.781 54.3963C137.277 54.1979 137.872 53.9995 138.665 54.0987C139.459 54.0987 140.054 54.2971 140.55 54.4954C140.748 54.5946 140.947 54.6938 141.046 54.793H141.145Z" fill="#263238"/>
<path d="M160.091 76.1193C160.091 76.1193 158.107 94.3706 160.686 104.389L185.087 103.298C185.087 103.298 179.83 85.245 183.103 77.2104L160.091 76.1193Z" fill="#EBEBEB"/>
<path d="M160.19 75.6234C160.19 75.6234 160.389 95.3626 161.381 101.413L186.179 100.223C186.179 100.223 183.996 80.7813 184.79 75.6234H160.19Z" fill="#26C7BC"/>
<path d="M181.02 83.8563C181.02 83.9555 177.35 84.2531 172.688 84.5506C168.125 84.8482 164.356 84.9474 164.356 84.8482C164.356 84.749 168.026 84.4514 172.688 84.1539C177.251 83.9555 181.02 83.7571 181.02 83.8563Z" fill="white"/>
<path d="M181.02 88.0223C181.02 88.1215 177.35 88.4191 172.688 88.7167C168.125 89.0143 164.356 89.1135 164.356 89.0143C164.356 88.9151 168.026 88.6175 172.688 88.3199C177.35 88.1215 181.02 87.9231 181.02 88.0223Z" fill="white"/>
<path d="M176.854 92.1884C176.854 92.1884 176.358 92.2876 175.465 92.3868C174.573 92.486 173.382 92.5852 172.093 92.6844C170.803 92.7836 169.613 92.7836 168.72 92.8828C167.828 92.8828 167.332 92.8828 167.332 92.8828C167.332 92.8828 167.828 92.7836 168.72 92.6844C169.613 92.5852 170.803 92.486 172.093 92.3868C173.382 92.2876 174.573 92.2876 175.465 92.1884C176.259 92.0892 176.854 92.0892 176.854 92.1884Z" fill="white"/>
<path d="M216.63 43.4851C216.63 43.5843 202.148 43.7827 184.294 43.7827C166.439 43.7827 151.957 43.6835 151.957 43.4851C151.957 43.3859 166.439 43.1875 184.294 43.1875C202.148 43.2867 216.63 43.3859 216.63 43.4851Z" fill="#263238"/>
<path d="M175.664 49.4366C175.664 49.5358 170.208 49.7342 163.562 49.7342C156.817 49.7342 151.461 49.635 151.461 49.4366C151.461 49.3374 156.917 49.1391 163.562 49.1391C170.208 49.1391 175.664 49.2383 175.664 49.4366Z" fill="#263238"/>
<path d="M188.559 49.4366C188.559 49.5358 186.476 49.7342 183.897 49.7342C181.318 49.7342 179.235 49.635 179.235 49.4366C179.235 49.3374 181.318 49.1391 183.897 49.1391C186.476 49.1391 188.559 49.2383 188.559 49.4366Z" fill="#263238"/>
<path d="M323.857 111.63C323.857 111.63 323.857 111.531 323.857 111.432C323.857 111.233 323.857 111.035 323.758 110.737C323.758 110.142 323.659 109.249 323.56 108.158C323.361 105.877 323.163 102.703 322.964 98.735C322.468 90.7997 321.774 79.7894 321.08 67.6879C320.385 55.5865 319.79 44.6754 319.294 36.6408C319.096 32.6732 318.897 29.499 318.798 27.2176C318.798 26.1265 318.699 25.3329 318.699 24.6386C318.699 24.341 318.699 24.1426 318.699 23.9443C318.699 23.7459 318.699 23.7459 318.699 23.7459C318.699 23.7459 318.699 23.8451 318.699 23.9443C318.699 24.1426 318.699 24.341 318.798 24.6386C318.798 25.2338 318.897 26.1265 318.997 27.2176C319.195 29.499 319.393 32.6732 319.592 36.6408C320.088 44.5762 320.782 55.5865 321.476 67.6879C322.171 79.7894 322.766 90.7005 323.262 98.735C323.46 102.703 323.659 105.877 323.758 108.158C323.758 109.249 323.857 110.043 323.857 110.737C323.857 111.035 323.857 111.233 323.857 111.432C323.956 111.531 323.956 111.63 323.857 111.63Z" fill="#263238"/>
<path d="M318.699 1.42774C318.699 1.42774 318.5 1.42774 318.104 1.42774C317.707 1.42774 317.112 1.42774 316.417 1.42774C314.929 1.42774 312.747 1.42774 309.97 1.42774C304.316 1.42774 296.182 1.42774 286.065 1.42774C265.929 1.42774 238.056 1.32855 207.306 1.32855C174.97 1.22936 145.906 1.13017 125.77 1.03098C121.307 2.12209 117.736 4.70108 115.454 7.47846C113.074 10.2558 111.983 13.3308 111.387 15.8106C110.891 18.2904 110.891 20.2742 110.991 21.6629C111.09 22.3573 111.09 22.8532 111.189 23.1508C111.288 23.4484 111.288 23.6468 111.288 23.6468C111.288 23.6468 111.09 22.9524 110.991 21.6629C110.891 20.3734 110.792 18.2904 111.288 15.8106C111.784 13.3308 112.975 10.2558 115.256 7.37927C117.637 4.5027 121.207 1.9237 125.77 0.733398C145.906 0.733398 174.97 0.832593 207.306 0.832593C238.056 0.931785 265.829 1.03098 286.065 1.13017C296.083 1.22936 304.316 1.22936 309.97 1.22936C312.747 1.22936 314.929 1.22936 316.417 1.32855C317.112 1.32855 317.707 1.32855 318.104 1.32855C318.5 1.42774 318.699 1.42774 318.699 1.42774Z" fill="#263238"/>
<path d="M341.513 384.21L339.926 404.544C339.926 404.544 319.79 410.992 319.691 414.761L359.07 415.257L360.26 384.111L341.513 384.21Z" fill="#26C7BC"/>
<path d="M352.027 402.461C352.821 402.659 353.317 403.453 353.218 404.247C353.019 405.04 352.226 405.635 351.432 405.437C350.639 405.238 349.944 404.247 350.242 403.552C350.44 402.759 351.531 402.164 352.226 402.56" fill="#EBEBEB"/>
<path d="M358.971 415.356L358.872 412.182L321.575 412.38C321.575 412.38 319.393 413.67 319.492 414.86L358.971 415.356Z" fill="#EBEBEB"/>
<path d="M339.232 404.346C339.232 404.544 340.224 404.643 341.216 405.139C342.207 405.734 342.703 406.528 342.902 406.429C343.1 406.429 342.803 405.238 341.612 404.544C340.323 403.949 339.232 404.247 339.232 404.346Z" fill="#263238"/>
<path d="M335.165 406.23C335.165 406.429 335.958 406.726 336.653 407.52C337.347 408.313 337.545 409.206 337.744 409.107C337.942 409.107 338.041 408.016 337.149 407.024C336.256 406.032 335.165 406.032 335.165 406.23Z" fill="#263238"/>
<path d="M332.982 411.19C333.181 411.19 333.379 410.297 332.883 409.206C332.387 408.115 331.495 407.817 331.395 407.917C331.296 408.115 331.891 408.611 332.288 409.504C332.685 410.396 332.784 411.19 332.982 411.19Z" fill="#263238"/>
<path d="M339.43 399.684C339.529 399.882 340.422 399.585 341.513 399.585C342.604 399.585 343.497 399.981 343.596 399.783C343.695 399.684 342.902 398.989 341.612 398.89C340.224 398.989 339.331 399.584 339.43 399.684Z" fill="#263238"/>
<path d="M339.232 395.617C339.232 395.716 340.025 395.815 341.216 395.518C341.811 395.418 342.505 395.22 343.299 394.823C343.695 394.625 343.993 394.427 344.39 394.228C344.588 394.129 344.786 394.03 344.985 393.732C345.183 393.534 345.282 393.038 345.084 392.74C344.886 392.443 344.489 392.343 344.191 392.343C343.894 392.343 343.695 392.443 343.497 392.443C343.1 392.542 342.703 392.74 342.307 392.939C341.612 393.335 340.918 393.732 340.521 394.228C339.628 395.121 339.331 395.815 339.43 395.914C339.529 396.014 339.926 395.319 340.819 394.625C341.315 394.228 341.811 393.931 342.505 393.534C342.902 393.335 343.199 393.236 343.596 393.137C343.993 393.038 344.39 393.038 344.489 393.137C344.489 393.236 344.489 393.236 344.489 393.335C344.39 393.435 344.191 393.534 344.092 393.732C343.795 393.931 343.398 394.129 343.1 394.327C342.406 394.724 341.811 394.922 341.216 395.121C340.025 395.418 339.232 395.518 339.232 395.617Z" fill="#263238"/>
<path d="M339.529 395.914C339.628 395.914 339.926 395.22 340.025 394.03C340.025 393.435 339.926 392.641 339.728 391.848C339.629 391.451 339.43 391.054 339.232 390.657C339.033 390.26 338.736 389.765 337.942 389.665C337.545 389.665 337.248 389.963 337.149 390.26C337.05 390.558 337.05 390.756 336.95 390.955C336.851 391.451 336.95 391.848 336.95 392.244C337.149 393.038 337.446 393.732 337.843 394.228C338.637 395.22 339.43 395.418 339.43 395.319C339.529 395.22 338.835 394.823 338.24 393.931C337.942 393.435 337.645 392.839 337.545 392.145C337.446 391.748 337.446 391.352 337.545 390.955C337.545 390.558 337.744 390.161 337.942 390.26C338.141 390.26 338.438 390.558 338.637 390.856C338.835 391.153 339.033 391.55 339.133 391.947C339.43 392.641 339.529 393.335 339.529 393.931C339.628 395.121 339.43 395.914 339.529 395.914Z" fill="#263238"/>
<path d="M426.62 380.837L431.183 404.643L440.209 422.399C440.904 423.688 440.309 425.275 438.92 425.771C438.226 426.069 437.333 426.069 436.638 425.573C432.274 422.895 416.304 412.876 416.106 411.19C415.808 409.107 409.658 386.392 409.658 386.392L426.62 380.837Z" fill="#26C7BC"/>
<path d="M438.92 425.771L415.709 409.603L415.907 410.595C416.105 411.488 416.601 412.281 417.296 412.777C419.18 414.265 424.438 418.133 436.539 425.573C437.332 426.069 438.225 426.069 438.92 425.771Z" fill="#EBEBEB"/>
<path d="M418.982 402.659C419.677 402.957 420.073 403.751 419.776 404.445C419.478 405.139 418.685 405.536 417.99 405.238C417.296 404.941 416.8 403.949 417.098 403.255C417.395 402.56 418.486 402.163 419.081 402.56" fill="#EBEBEB"/>
<path d="M431.282 416.546C431.381 416.546 431.679 415.257 432.968 414.265C434.159 413.273 435.547 413.273 435.547 413.174C435.547 413.075 435.25 412.975 434.655 413.075C434.06 413.075 433.266 413.372 432.572 413.868C431.877 414.463 431.481 415.158 431.282 415.654C431.183 416.249 431.282 416.546 431.282 416.546Z" fill="#263238"/>
<path d="M433.663 419.423C433.762 419.522 434.357 418.53 435.547 417.935C436.638 417.34 437.829 417.34 437.829 417.141C437.829 417.042 436.638 416.745 435.349 417.439C433.96 418.133 433.563 419.324 433.663 419.423Z" fill="#263238"/>
<path d="M427.314 413.174C427.414 413.273 428.405 411.785 430.092 410.694C431.778 409.603 433.464 409.305 433.464 409.107C433.464 409.008 431.679 409.008 429.794 410.198C427.909 411.487 427.116 413.174 427.314 413.174Z" fill="#263238"/>
<path d="M425.331 406.131C425.43 406.23 426.62 405.437 428.306 405.04C429.993 404.544 431.48 404.742 431.48 404.544C431.48 404.445 429.993 404.048 428.207 404.544C426.323 404.941 425.231 406.032 425.331 406.131Z" fill="#263238"/>
<path d="M423.743 399.188C423.843 399.287 425.033 398.196 426.818 397.898C428.604 397.601 430.092 398.196 430.092 397.997C430.092 397.898 429.794 397.7 429.199 397.501C428.604 397.303 427.711 397.204 426.719 397.402C425.727 397.601 424.934 397.997 424.438 398.394C423.942 398.791 423.743 399.089 423.743 399.188Z" fill="#263238"/>
<path d="M426.521 396.609C426.521 396.609 426.521 396.311 426.322 395.716C426.124 395.121 425.826 394.327 425.132 393.534C424.735 393.137 424.438 392.641 423.644 392.443C423.247 392.343 422.851 392.542 422.553 392.939C422.355 393.335 422.355 393.732 422.454 394.129C422.851 395.617 424.438 396.807 426.124 396.609C427.909 396.41 429.199 395.121 429.596 393.732C429.695 393.335 429.695 392.939 429.397 392.542C429.1 392.145 428.604 392.145 428.306 392.244C427.612 392.542 427.314 393.038 426.917 393.435C426.223 394.228 425.926 395.022 425.727 395.617C425.529 396.212 425.529 396.51 425.529 396.51C425.628 396.51 425.926 395.22 427.215 393.633C427.513 393.236 427.909 392.839 428.405 392.641C428.604 392.542 428.901 392.641 429 392.839C429.1 393.038 429.1 393.335 429.1 393.633C428.802 394.823 427.513 396.014 426.025 396.113C424.537 396.212 423.148 395.22 422.851 394.03C422.751 393.732 422.751 393.435 422.95 393.236C423.049 393.038 423.247 392.939 423.545 392.939C424.041 393.038 424.438 393.435 424.834 393.831C426.223 395.22 426.421 396.609 426.521 396.609Z" fill="#263238"/>
<path d="M341.216 197.034C340.918 197.034 337.942 396.51 337.942 396.51L362.046 395.716L370.378 297.615L372.362 225.602L388.828 292.259L409.261 396.807L433.365 390.756L402.715 195.745L373.85 190.19L341.216 197.034Z" fill="#263238"/>
<path d="M393.589 73.8379C396.465 68.184 397.358 57.868 394.085 52.214C390.812 46.5601 384.067 42.4932 377.817 40.6086C376.726 40.311 375.635 40.0134 374.544 40.4102C373.552 40.807 372.659 41.8981 373.056 42.9892C371.866 42.0965 370.576 41.2037 369.088 40.7078C367.601 40.2118 365.914 40.311 364.724 41.3029C363.534 42.2948 363.236 44.2787 364.327 45.3698C362.641 44.5763 360.36 44.973 358.971 46.1633C357.582 47.4528 356.987 49.6351 357.582 51.4205C358.177 53.1068 359.566 55.0906 360.756 56.4793C362.046 57.7688 362.145 59.0583 361.748 60.8438" fill="#263238"/>
<path d="M369.882 120.756C370.081 117.978 370.477 93.2796 370.477 93.1804C370.477 93.1804 361.252 92.0892 360.856 82.8644C360.657 78.4999 361.054 69.3743 361.451 61.0421C361.848 52.2141 369.089 45.1714 377.917 44.8738H378.809C388.332 45.1714 393.391 53.4044 392.895 62.9268L391.605 115.895" fill="#FFBE9D"/>
<path d="M370.477 93.0811C370.477 93.0811 376.231 93.2795 382.281 89.2126C382.281 89.2126 379.504 94.9658 370.378 94.3706L370.477 93.0811Z" fill="#EB996E"/>
<path d="M363.038 67.2912C363.038 67.9856 363.633 68.5807 364.327 68.5807C365.022 68.5807 365.617 68.0848 365.617 67.3904C365.617 66.6961 365.022 66.1009 364.327 66.1009C363.534 66.0017 363.038 66.5969 363.038 67.2912Z" fill="#263238"/>
<path d="M363.534 65.5058C363.732 65.7041 364.625 64.9106 366.113 64.9106C367.501 64.8114 368.593 65.5058 368.692 65.4066C368.791 65.3074 368.593 65.0098 368.097 64.7122C367.601 64.4146 366.906 64.1171 366.014 64.1171C365.121 64.1171 364.427 64.5138 364.03 64.8114C363.633 65.109 363.435 65.4066 363.534 65.5058Z" fill="#263238"/>
<path d="M377.024 67.4896C377.024 68.184 377.619 68.7791 378.313 68.7791C379.007 68.7791 379.603 68.2832 379.603 67.5888C379.603 66.8945 379.007 66.2993 378.313 66.2993C377.619 66.2001 377.024 66.7953 377.024 67.4896Z" fill="#263238"/>
<path d="M377.421 65.3074C377.619 65.5058 378.512 64.7122 380 64.7122C381.388 64.613 382.479 65.3074 382.579 65.2082C382.678 65.109 382.479 64.8114 381.983 64.5139C381.488 64.2163 380.793 63.9187 379.9 63.9187C379.008 63.9187 378.313 64.3155 377.917 64.613C377.421 64.9106 377.321 65.2082 377.421 65.3074Z" fill="#263238"/>
<path d="M372.56 75.9209C372.56 75.8217 371.668 75.7226 370.279 75.6234C369.882 75.6234 369.585 75.5242 369.485 75.3258C369.386 75.0282 369.485 74.6314 369.684 74.2347C369.981 73.3419 370.279 72.4492 370.676 71.4573C372.064 67.4896 372.957 64.3155 372.858 64.2163C372.659 64.1171 371.469 67.2912 370.08 71.2589C369.783 72.2508 369.485 73.1436 369.188 74.0363C369.089 74.4331 368.89 74.929 369.089 75.425C369.188 75.7226 369.485 75.9209 369.684 75.9209C369.882 76.0201 370.08 76.0201 370.279 76.0201C371.668 76.0201 372.56 76.0201 372.56 75.9209Z" fill="#263238"/>
<path d="M376.726 76.7144C376.528 76.7144 376.528 78.2023 375.238 79.3926C373.949 80.4837 372.362 80.3846 372.362 80.5829C372.362 80.6821 372.759 80.8805 373.453 80.8805C374.147 80.8805 375.139 80.6821 375.834 79.9878C376.627 79.2934 376.925 78.4007 376.925 77.8056C377.024 77.1112 376.826 76.7144 376.726 76.7144Z" fill="#263238"/>
<path d="M376.826 59.8518C377.024 60.2486 378.413 60.0502 380 60.1494C381.686 60.2486 382.976 60.7445 383.174 60.3478C383.273 60.1494 382.976 59.8518 382.48 59.4551C381.984 59.0583 381.091 58.7607 380.099 58.6615C379.107 58.5623 378.214 58.7607 377.619 59.0583C377.024 59.3559 376.726 59.6534 376.826 59.8518Z" fill="#263238"/>
<path d="M363.93 61.4389C364.228 61.7365 365.121 61.3397 366.311 61.3397C367.501 61.2405 368.493 61.4389 368.692 61.1413C368.791 60.943 368.592 60.6454 368.196 60.3478C367.799 60.0502 367.005 59.8518 366.212 59.8518C365.418 59.951 364.724 60.2486 364.327 60.5462C363.93 60.943 363.831 61.2405 363.93 61.4389Z" fill="#263238"/>
<path d="M392.398 69.6718C392.597 69.5726 398.648 67.5888 398.648 73.8379C398.648 80.087 392.398 78.7975 392.398 78.5991C392.299 78.4999 392.398 69.6718 392.398 69.6718Z" fill="#FFBE9D"/>
<path d="M394.184 76.3177C394.184 76.3177 394.283 76.4169 394.482 76.5161C394.68 76.6153 394.978 76.6153 395.275 76.5161C395.97 76.3177 396.465 75.2266 396.565 74.1355C396.565 73.5403 396.465 73.0444 396.267 72.5484C396.069 72.0524 395.771 71.7549 395.474 71.7549C395.176 71.6557 394.878 71.8541 394.878 72.0524C394.779 72.2508 394.878 72.35 394.779 72.35C394.779 72.35 394.68 72.2508 394.68 71.9532C394.68 71.854 394.779 71.6557 394.878 71.5565C395.077 71.4573 395.275 71.3581 395.474 71.3581C395.97 71.3581 396.366 71.8541 396.565 72.35C396.763 72.846 396.961 73.4411 396.961 74.1355C396.961 75.425 396.267 76.6153 395.374 76.8137C394.978 76.9128 394.581 76.8137 394.382 76.6153C394.283 76.4169 394.184 76.3177 394.184 76.3177Z" fill="#EB996E"/>
<path d="M357.483 49.2383C356.789 57.372 366.708 60.7445 371.072 56.1817C373.056 54.0987 374.842 51.4205 377.619 50.5278C379.504 49.9326 381.587 50.2302 383.273 51.1229C383.273 51.1229 383.273 51.1229 383.372 51.1229C385.951 52.4124 387.439 55.4874 387.836 58.3639C388.431 62.3316 387.737 65.9025 388.828 69.5726C389.026 70.0686 389.125 70.6637 389.621 70.9613C390.415 71.4573 391.506 71.0605 392.101 70.3662C393.093 69.2751 393.49 67.688 393.688 66.2001C394.184 62.8276 394.184 59.3559 393.291 56.0825C392.399 52.8092 390.712 49.635 388.233 47.3536C385.058 44.4771 380.694 43.0884 376.429 43.2868C372.163 43.4851 368.097 45.1714 364.724 47.8496C363.236 49.0399 361.748 50.5278 361.054 52.4124" fill="#263238"/>
<path d="M364.129 44.7746C364.129 44.7746 363.831 44.6755 363.236 44.7746C362.641 44.8738 361.947 45.1714 361.153 45.9649C360.459 46.6593 359.765 47.7504 359.566 49.1391C359.368 50.5278 359.864 52.0157 360.756 53.3052C361.649 54.5947 362.939 55.4874 364.129 55.9833C365.319 56.4793 366.51 56.6777 367.501 56.7769C368.493 56.8761 369.287 56.7769 369.882 56.6777C370.477 56.5785 370.775 56.5785 370.676 56.4793C370.676 56.3801 369.485 56.5785 367.501 56.3801C366.51 56.2809 365.418 56.0825 364.228 55.5866C363.038 55.0906 361.947 54.2971 361.054 53.1068C360.161 51.9165 359.764 50.5278 359.864 49.3375C359.963 48.1472 360.558 47.0561 361.252 46.3617C361.947 45.6674 362.641 45.2706 363.137 45.1714C363.831 44.8738 364.129 44.8738 364.129 44.7746Z" fill="#455A64"/>
<path d="M368.295 41.8981C368.295 41.8981 368.097 41.7989 367.7 41.9972C367.303 42.1956 366.907 42.5924 366.708 43.2867C366.51 43.9811 366.807 44.8738 367.204 45.6674C367.601 46.4609 368.196 47.3536 368.891 48.048C370.378 49.5358 372.065 50.5278 373.354 50.9245C374.644 51.3213 375.536 51.3213 375.536 51.3213C375.536 51.2221 374.743 51.1229 373.453 50.627C372.263 50.131 370.577 49.2383 369.188 47.7504C368.494 47.056 367.899 46.2625 367.502 45.469C367.105 44.6754 366.907 43.9811 367.006 43.3859C367.105 42.7908 367.502 42.394 367.7 42.1956C368.097 41.9973 368.295 41.9973 368.295 41.8981Z" fill="#455A64"/>
<path d="M313.839 122.938L270.789 118.871L263.945 117.284C263.945 117.284 248.372 114.507 246.884 114.011C245.198 113.515 244.503 114.209 244.404 114.804C244.206 115.796 245.099 116.887 246.586 117.383C247.082 117.582 255.018 119.962 255.018 119.962C255.018 119.962 254.224 120.161 252.439 120.855C250.554 121.549 248.868 124.029 248.074 126.906C247.281 129.782 247.281 130.576 248.372 130.972C248.769 131.072 249.265 130.972 249.562 130.774C250.157 130.377 250.554 129.782 250.752 129.088C252.042 124.525 254.819 124.128 254.819 124.128L255.712 124.327C255.712 124.327 252.935 126.509 253.034 128.889C253.034 129.286 253.133 129.584 253.331 129.881C252.935 131.072 253.232 132.46 254.125 133.452C255.018 134.444 256.406 134.94 257.696 134.643C258.291 134.543 258.985 134.147 258.985 133.452C258.985 133.155 258.886 132.758 258.787 132.46C258.688 132.262 258.688 132.163 258.589 131.964L261.168 132.262C261.168 132.262 267.02 132.56 269.5 132.956L310.069 143.471C315.723 144.959 321.377 141.487 322.766 135.833C324.452 129.584 320.088 123.533 313.839 122.938Z" fill="#FFBE9D"/>
<path d="M269.897 119.962C269.897 120.855 269.004 121.549 268.111 121.748C267.218 121.946 266.326 121.847 265.433 122.045C262.755 122.541 260.771 125.021 258.093 125.319C257.696 125.319 257.2 125.319 257.101 124.922C257.002 124.624 257.299 124.227 257.498 124.029C259.68 121.946 261.763 119.962 263.945 117.879" fill="#FFBE9D"/>
<path d="M264.044 117.978C264.044 117.978 263.747 118.177 263.251 118.573C262.755 118.97 262.16 119.565 261.267 120.359C260.374 121.152 259.481 122.045 258.39 123.037C258.093 123.335 257.894 123.533 257.597 123.831C257.398 124.128 256.902 124.327 256.902 124.922C256.902 125.219 257.101 125.517 257.398 125.616C257.696 125.715 257.894 125.715 258.093 125.715C258.489 125.616 258.985 125.517 259.382 125.418C261.068 124.823 262.259 123.731 263.548 123.037C264.143 122.74 264.838 122.442 265.433 122.343C266.028 122.244 266.623 122.244 267.218 122.144C268.309 122.045 269.301 121.549 269.599 120.954C269.996 120.359 269.897 119.962 269.897 119.962C269.797 119.962 269.897 120.359 269.5 120.756C269.103 121.252 268.309 121.648 267.218 121.648C266.722 121.648 266.028 121.648 265.433 121.748C264.739 121.847 264.044 122.144 263.449 122.442C262.06 123.136 260.87 124.128 259.283 124.723C258.886 124.823 258.489 124.922 258.093 125.021C257.696 125.021 257.398 124.922 257.398 124.723C257.398 124.525 257.696 124.227 257.993 123.93C258.291 123.632 258.489 123.434 258.787 123.136C259.779 122.144 260.771 121.252 261.564 120.359C262.358 119.565 262.953 118.97 263.449 118.474C263.846 118.177 264.044 117.978 264.044 117.978Z" fill="#EB996E"/>
<path d="M256.01 124.128C256.01 124.227 255.315 123.831 254.324 124.128C253.828 124.327 253.332 124.624 252.935 125.219C252.538 125.814 252.24 126.509 251.943 127.302C251.645 128.096 251.447 128.889 251.05 129.485C250.653 130.08 250.257 130.576 249.661 130.873C249.166 131.171 248.67 131.072 248.372 130.972C248.074 130.873 247.975 130.675 247.975 130.675C247.975 130.675 248.174 130.774 248.372 130.873C248.67 130.972 249.066 130.972 249.562 130.675C249.959 130.377 250.455 129.881 250.753 129.286C251.05 128.691 251.348 127.898 251.546 127.203C251.844 126.41 252.141 125.715 252.637 125.12C253.133 124.525 253.728 124.128 254.224 124.029C254.819 123.93 255.216 123.93 255.514 124.029C255.911 124.029 256.01 124.128 256.01 124.128Z" fill="#EB996E"/>
<path d="M246.09 117.086C246.09 117.086 246.685 117.284 247.677 117.582C248.768 117.978 250.058 118.375 251.447 118.772C252.835 119.169 254.125 119.565 255.216 119.962C256.208 120.26 256.803 120.458 256.803 120.458C256.803 120.458 256.208 120.359 255.216 120.161C254.224 119.962 252.835 119.565 251.347 119.069C249.859 118.573 248.57 118.177 247.578 117.78C246.685 117.383 246.09 117.185 246.09 117.086Z" fill="#EB996E"/>
<path d="M257.299 126.41C257.299 126.41 257.2 126.608 257.001 126.806C256.803 127.005 256.505 127.501 256.605 127.997C256.605 128.294 256.803 128.493 257.101 128.592C257.398 128.691 257.795 128.79 258.192 128.79C258.588 128.889 259.084 128.989 259.382 129.385C259.68 129.782 259.779 130.278 259.68 130.774C259.58 131.27 259.184 131.667 258.787 131.865C258.39 132.064 257.894 132.163 257.497 132.064C256.704 131.964 256.009 131.667 255.514 131.369C255.018 131.072 254.522 130.774 254.323 130.576C254.125 130.278 254.026 130.179 254.026 130.179C254.026 130.179 254.125 130.278 254.422 130.576C254.621 130.774 255.117 131.072 255.613 131.27C256.109 131.468 256.803 131.766 257.597 131.865C258.291 131.964 259.184 131.568 259.481 130.774C259.58 130.377 259.481 129.981 259.283 129.683C259.084 129.385 258.688 129.286 258.291 129.187C257.894 129.088 257.497 129.088 257.2 128.889C256.902 128.691 256.605 128.393 256.605 128.096C256.505 127.402 257.001 127.005 257.2 126.806C257.101 126.509 257.2 126.41 257.299 126.41Z" fill="#EB996E"/>
<path d="M258.39 131.766C258.39 131.766 258.589 131.766 258.787 131.964C258.986 132.163 259.283 132.56 259.283 133.155C259.283 133.75 258.886 134.345 258.192 134.742C257.498 135.039 256.704 135.139 255.911 134.841C255.117 134.543 254.423 134.047 254.026 133.551C253.629 132.956 253.431 132.361 253.332 131.766C253.232 131.27 253.332 130.774 253.431 130.477C253.53 130.179 253.629 130.08 253.629 130.08C253.728 130.08 253.431 130.774 253.629 131.766C253.728 132.262 253.927 132.857 254.324 133.353C254.72 133.849 255.315 134.345 256.109 134.543C256.803 134.742 257.597 134.742 258.192 134.444C258.787 134.147 259.085 133.651 259.184 133.155C259.184 132.659 258.986 132.262 258.787 132.064C258.49 131.865 258.39 131.766 258.39 131.766Z" fill="#EB996E"/>
<path d="M265.334 127.898C265.334 127.898 265.334 127.6 265.532 127.104C265.73 126.707 266.226 126.112 267.02 125.814V126.112C266.722 126.013 266.326 125.814 266.028 125.616C264.143 124.525 263.151 123.037 263.251 122.938C263.35 122.839 264.342 124.227 266.226 125.319C266.524 125.517 266.921 125.715 267.218 125.814L267.516 126.013L267.218 126.112C266.524 126.41 266.028 126.906 265.73 127.302C265.532 127.699 265.433 127.997 265.334 127.898Z" fill="#EB996E"/>
<path d="M251.844 123.93C251.943 123.831 252.34 124.327 252.439 125.12C252.538 125.914 252.141 126.509 252.141 126.41C252.042 126.41 252.24 125.815 252.141 125.12C252.042 124.426 251.744 123.93 251.844 123.93Z" fill="#EB996E"/>
<path d="M314.632 143.967L342.704 137.519C342.704 137.519 341.216 188.901 341.216 189.397C341.216 189.893 338.934 190.686 339.133 194.455L341.117 198.919L402.616 199.713L404.302 149.819L409.956 111.134L397.061 103.199L392.498 97.0488L374.743 115.796L370.378 99.8262L370.477 95.065L366.113 99.8262L342.505 106.67L311.26 121.252L290.132 119.665L284.676 138.114L314.632 143.967Z" fill="#26C7BC"/>
<path d="M372.263 109.845C372.263 109.944 371.47 110.142 370.974 111.233C370.775 111.828 370.577 112.523 370.577 113.415C370.577 114.308 370.577 115.3 370.18 116.391L369.982 116.887L369.783 116.391C369.188 115.003 368.791 113.515 368.395 111.828C367.601 108.654 367.204 105.679 366.807 103.496C366.51 101.314 366.411 100.025 366.411 100.025C366.51 100.025 366.708 101.314 367.105 103.397C367.502 105.48 368.097 108.456 368.791 111.63C369.188 113.217 369.585 114.804 370.081 116.094H369.684C370.081 115.201 370.081 114.209 370.18 113.316C370.18 112.424 370.378 111.63 370.676 111.035C370.974 110.44 371.37 110.043 371.668 109.944C372.065 109.845 372.263 109.845 372.263 109.845Z" fill="#263238"/>
<path d="M394.978 102.008C394.978 102.008 394.779 102.306 394.383 102.901C393.986 103.397 393.391 104.191 392.597 105.083C391.109 106.968 388.927 109.547 386.546 112.324C385.158 113.911 383.868 115.399 382.777 116.788L382.48 117.086L382.38 116.689C381.884 114.507 381.388 112.721 381.091 111.432C380.992 110.837 380.595 110.44 380.297 110.44C380 110.44 379.801 110.638 379.801 110.539C379.801 110.539 379.901 110.241 380.297 110.241C380.496 110.241 380.793 110.341 380.992 110.539C381.19 110.737 381.289 111.035 381.388 111.332C381.785 112.622 382.281 114.407 382.876 116.59L382.48 116.49C383.571 115.102 384.86 113.614 386.249 112.027C388.629 109.249 390.812 106.67 392.399 104.885C393.192 103.992 393.887 103.298 394.283 102.802C394.68 102.207 394.978 102.008 394.978 102.008Z" fill="#263238"/>
<path d="M368.89 184.139C368.89 184.139 368.89 183.941 368.791 183.445C368.791 182.949 368.791 182.354 368.791 181.56C368.791 179.874 368.791 177.494 368.791 174.518C368.89 168.566 369.188 160.432 369.783 151.406C370.477 142.38 371.37 134.246 372.263 128.393C372.66 125.418 373.056 123.037 373.255 121.45C373.354 120.656 373.453 120.061 373.552 119.565C373.652 119.169 373.652 118.871 373.652 118.871C373.652 118.871 373.652 119.069 373.652 119.565C373.552 120.061 373.552 120.656 373.453 121.45C373.255 123.136 372.957 125.517 372.56 128.393C371.866 134.246 370.973 142.38 370.279 151.406C369.585 160.432 369.287 168.566 369.089 174.518C368.99 177.394 368.99 179.775 368.89 181.56C368.89 182.354 368.89 182.949 368.791 183.445C368.89 183.842 368.89 184.139 368.89 184.139Z" fill="#263238"/>
<path d="M363.831 196.142C363.732 196.142 363.335 194.158 363.335 191.777C363.435 189.297 363.732 187.413 363.831 187.413C364.03 187.413 363.931 189.397 363.831 191.876C363.831 194.158 363.931 196.142 363.831 196.142Z" fill="#263238"/>
<path d="M389.026 181.759C389.026 181.759 388.431 181.957 387.439 182.354C386.447 182.751 384.86 183.147 383.075 183.743C379.306 184.834 374.148 186.123 368.295 187.214C362.443 188.206 357.087 188.801 353.218 189.099C351.234 189.198 349.746 189.297 348.655 189.297C347.564 189.297 346.969 189.297 346.969 189.297C346.969 189.297 347.564 189.198 348.655 189.099C349.846 189 351.333 188.901 353.218 188.702C357.087 188.305 362.443 187.71 368.295 186.718C374.148 185.726 379.306 184.437 383.075 183.445C384.86 182.949 386.348 182.552 387.539 182.255C388.431 181.858 389.026 181.66 389.026 181.759Z" fill="#263238"/>
<path d="M342.307 148.331C342.208 148.331 342.108 140.991 342.108 132.064C342.108 123.037 342.307 115.796 342.406 115.796C342.505 115.796 342.604 123.136 342.604 132.064C342.604 140.991 342.505 148.331 342.307 148.331Z" fill="#263238"/>
<path d="M408.765 110.341C408.765 110.341 416.502 116.986 416.998 120.756C417.395 123.632 425.033 151.009 428.405 163.21C429.497 166.979 429.199 171.046 427.711 174.716L417.792 199.217L401.723 189.694L409.757 166.682L403.111 147.141L408.765 110.341Z" fill="#26C7BC"/>
<path d="M417.891 199.217C417.891 199.217 417.792 199.217 417.593 199.117C417.395 199.018 417.097 198.82 416.7 198.621C415.907 198.225 414.816 197.53 413.427 196.737C410.55 195.051 406.583 192.769 401.722 189.893L401.623 189.793L401.722 189.595C404.004 183.148 406.682 175.212 409.658 166.582V166.781C408.765 164.301 407.773 161.623 406.781 158.945C404.401 152.596 402.218 146.546 400.135 141.09C398.152 136.825 396.366 132.758 395.87 128.79C395.672 126.806 395.672 124.922 396.068 123.236C396.366 121.549 396.961 120.061 397.656 118.772C399.044 116.193 400.631 114.606 401.822 113.515C402.417 113.019 402.913 112.622 403.21 112.424C403.508 112.225 403.706 112.126 403.706 112.126C403.706 112.126 403.508 112.225 403.21 112.523C402.913 112.82 402.417 113.118 401.921 113.713C400.83 114.804 399.243 116.391 397.953 118.97C397.259 120.26 396.763 121.748 396.465 123.335C396.168 125.021 396.068 126.806 396.366 128.79C396.862 132.659 398.647 136.726 400.631 140.991C402.714 146.446 404.897 152.497 407.277 158.845C408.269 161.524 409.261 164.202 410.154 166.682V166.781V166.88C407.079 175.51 404.401 183.346 402.119 189.793L402.02 189.595C406.88 192.472 410.848 194.852 413.625 196.538C415.014 197.332 416.006 198.026 416.8 198.522C417.097 198.721 417.395 198.919 417.593 199.018C417.792 199.117 417.891 199.217 417.891 199.217Z" fill="#263238"/>
<g opacity="0.3">
<path d="M376.627 113.911C377.718 113.911 378.809 114.606 379.008 115.697C379.206 116.788 379.008 117.879 379.305 118.97C379.603 120.061 380.495 121.053 381.587 120.855C382.281 120.756 382.678 120.161 383.074 119.665C385.157 116.986 386.844 113.614 388.034 110.44C388.034 110.539 382.578 116.788 382.578 116.788C382.38 115.201 381.884 113.713 381.388 112.225C381.19 111.729 380.991 110.936 380.495 110.737C379.702 110.44 378.809 111.531 378.313 112.126C377.817 112.622 376.726 113.713 376.627 113.911Z" fill="black"/>
</g>
<g opacity="0.3">
<path d="M367.6 108.258C367.799 111.729 368.295 115.3 369.584 118.474C369.683 118.772 369.882 119.169 370.08 119.367C370.378 119.565 370.775 119.665 371.072 119.466C371.271 119.367 371.965 117.582 372.064 117.383C372.56 115.995 374.643 115.796 374.643 115.796C374.643 115.796 373.85 112.126 373.254 111.035C373.056 110.539 372.56 110.142 371.965 110.241C371.37 110.341 370.675 111.233 370.576 111.828C370.279 114.407 370.279 115.499 369.882 116.391C368.989 113.812 368.295 110.539 367.6 108.258Z" fill="black"/>
</g>
<g opacity="0.3">
<path d="M382.876 183.346C383.868 182.751 384.066 181.263 383.372 180.271C382.678 179.279 381.388 178.981 380.297 179.081C379.107 179.18 378.115 179.775 377.123 180.469C376.23 181.164 375.338 181.957 374.346 182.552C371.866 184.04 368.989 184.338 366.113 184.437C363.236 184.437 360.36 184.239 357.582 184.834C354.805 185.33 352.027 186.818 350.639 189.297C350.54 189.397 374.941 187.611 382.876 183.346Z" fill="black"/>
</g>
<path d="M398.747 219.154C395.275 216.873 393.787 214.691 392.399 212.608C392.399 212.508 392.399 212.409 392.399 212.409C392.399 212.31 392.3 212.31 392.2 212.31C391.407 211.12 390.812 210.029 390.316 209.037C392.3 207.747 394.879 205.763 392.101 205.367C388.629 204.871 386.15 203.184 385.753 202.292C385.356 201.399 386.546 200.506 387.439 201.101C388.133 201.597 389.621 201.994 390.812 202.292C391.704 202.49 392.696 202.589 393.688 202.49C394.283 202.391 396.366 201.002 398.549 199.911C398.846 199.812 399.243 199.713 399.541 199.812L400.433 199.713C401.326 199.613 402.12 199.117 402.616 198.324L405.79 192.174L415.51 197.927L407.773 208.64C407.773 208.441 402.516 215.484 398.747 219.154Z" fill="#FFBE9D"/>
<path d="M400.83 220.344C400.83 220.444 399.937 220.047 398.549 219.253C397.259 218.46 395.474 217.17 393.986 215.385C392.399 213.599 391.308 211.814 390.713 210.425C390.117 209.037 389.82 208.144 389.919 208.045C390.117 207.945 391.308 211.616 394.383 215.087C397.358 218.559 400.929 220.146 400.83 220.344Z" fill="#455A64"/>
<path d="M370.179 226.594C370.179 226.594 370.08 226.594 369.882 226.494C369.683 226.395 369.485 226.296 369.187 226.098C368.592 225.602 367.997 224.808 367.6 223.618C367.204 222.428 366.906 220.94 366.509 219.353C366.113 217.766 365.815 215.98 365.418 214.095C364.724 210.326 364.129 206.954 363.732 204.474C363.534 203.283 363.434 202.292 363.335 201.597C363.236 200.903 363.236 200.506 363.236 200.506C363.236 200.506 363.335 200.903 363.534 201.597C363.732 202.391 363.831 203.383 364.029 204.474C364.525 206.954 365.121 210.326 365.815 213.996C366.212 215.881 366.509 217.567 366.906 219.253C367.204 220.84 367.501 222.328 367.898 223.519C368.295 224.709 368.791 225.503 369.287 225.998C369.783 226.395 370.179 226.494 370.179 226.594Z" fill="#455A64"/>
<path d="M369.386 204.275C369.386 204.275 369.584 204.176 369.783 204.275C370.08 204.375 370.477 204.573 370.675 205.069C370.973 205.466 371.072 206.259 370.576 206.854C370.179 207.45 369.386 207.846 368.493 207.648C367.6 207.45 367.105 206.656 367.005 205.962C366.906 205.267 367.204 204.573 367.6 204.275C368.394 203.581 369.188 203.779 369.088 203.779C369.088 203.879 368.394 203.879 367.799 204.474C367.501 204.771 367.303 205.267 367.402 205.862C367.501 206.358 367.898 206.954 368.493 207.152C369.088 207.35 369.783 207.053 370.08 206.557C370.378 206.16 370.378 205.565 370.179 205.168C369.981 204.474 369.287 204.375 369.386 204.275Z" fill="#455A64"/>
<path d="M348.258 200.308C348.258 200.308 348.555 201.2 348.555 202.589C348.555 203.978 348.159 205.962 347.068 207.946C345.976 209.929 344.588 211.318 343.397 212.112C342.207 212.905 341.414 213.203 341.314 213.203C341.314 213.103 342.108 212.707 343.1 211.913C344.191 211.02 345.481 209.632 346.572 207.747C347.564 205.862 347.96 203.978 348.159 202.589C348.258 201.2 348.159 200.308 348.258 200.308Z" fill="#455A64"/>
<path d="M309.772 130.675C309.672 130.675 309.97 128.493 310.267 125.715C310.565 123.037 310.863 120.855 310.962 120.855C311.061 120.855 311.061 123.136 310.763 125.815C310.466 128.592 309.871 130.774 309.772 130.675Z" fill="#263238"/>
<path d="M290.032 119.367C290.032 119.367 290.032 119.466 289.933 119.764C289.834 120.061 289.735 120.359 289.636 120.756C289.338 121.648 289.041 122.938 288.545 124.525C287.553 127.798 286.263 132.46 284.676 137.916L284.478 137.618C290.132 139.007 296.877 140.098 304.019 141.487C307.589 142.181 311.061 142.876 314.235 143.669H314.136C322.171 141.884 329.213 140.297 334.272 139.106C336.752 138.61 338.736 138.114 340.124 137.817C340.819 137.718 341.315 137.618 341.712 137.519C342.108 137.42 342.307 137.42 342.307 137.42C342.307 137.42 342.108 137.519 341.811 137.618C341.414 137.718 340.918 137.817 340.224 138.015C338.835 138.313 336.851 138.809 334.371 139.404C329.313 140.594 322.369 142.28 314.335 144.165H314.235H314.136C310.962 143.371 307.49 142.677 303.919 141.983C296.678 140.693 289.933 139.503 284.379 138.015L284.18 137.916L284.279 137.718C285.966 132.262 287.354 127.6 288.346 124.327C288.842 122.74 289.239 121.549 289.537 120.557C289.636 120.161 289.735 119.863 289.834 119.565C289.933 119.466 289.933 119.367 290.032 119.367Z" fill="#263238"/>
<path d="M12.4932 348.501L9.61658 401.568L28.8598 406.23L32.7283 354.353L12.4932 348.501Z" fill="#FFBE9D"/>
<path d="M9.12051 401.171L5.84717 415.554H27.967L28.8597 406.23L9.12051 401.171Z" fill="#26C7BC"/>
<path d="M28.364 413.471C28.364 413.571 27.1737 413.67 25.1898 413.67C23.206 413.67 20.4286 413.67 17.4529 413.571C14.5763 413.471 11.8981 413.372 9.71589 413.273C7.73205 413.174 6.54175 413.075 6.54175 412.975C6.54175 412.876 7.73204 412.777 9.81507 412.777C11.7989 412.777 14.5763 412.777 17.5521 412.975C20.4286 413.075 23.1068 413.174 25.289 413.273C27.1737 413.273 28.364 413.372 28.364 413.471Z" fill="#263238"/>
<path d="M19.0401 403.949C19.2385 403.949 19.2385 406.032 19.0401 408.611C18.8417 411.19 18.5441 413.273 18.4449 413.273C18.2465 413.273 18.2465 411.19 18.4449 408.611C18.5441 406.032 18.8417 403.949 19.0401 403.949Z" fill="#263238"/>
<g opacity="0.6">
<path d="M5.84717 415.554H27.967L28.1654 413.471L6.24395 412.876L5.84717 415.356" fill="white"/>
</g>
<path d="M85.4985 374.29L90.1606 409.504L107.222 408.313L103.651 376.076L85.4985 374.29Z" fill="#FFBE9D"/>
<path d="M107.42 404.544C107.42 404.544 126.564 410.992 126.861 414.463L90.2596 415.554L89.962 406.032L91.3507 406.33C96.7071 407.321 102.361 406.726 107.42 404.544Z" fill="#26C7BC"/>
<g opacity="0.6">
<path d="M94.2273 407.619C93.5329 407.817 93.037 408.611 93.2354 409.305C93.4337 410 94.2273 410.496 94.9216 410.297C95.616 410.099 96.2111 409.107 95.9135 408.413C95.616 407.718 94.6241 407.222 94.0289 407.619" fill="white"/>
</g>
<g opacity="0.6">
<path d="M90.2594 415.554V412.579L125.274 412.678C125.274 412.678 126.96 413.372 126.762 414.463L90.2594 415.554Z" fill="white"/>
</g>
<path d="M108.015 404.346C108.015 404.544 107.122 404.643 106.23 405.238C105.337 405.834 104.94 406.627 104.742 406.528C104.543 406.528 104.841 405.437 105.833 404.742C106.924 403.949 108.015 404.147 108.015 404.346Z" fill="#263238"/>
<path d="M111.884 405.734C111.884 405.933 111.189 406.23 110.594 407.024C109.999 407.817 109.9 408.611 109.701 408.611C109.503 408.611 109.404 407.619 110.098 406.627C110.792 405.734 111.884 405.635 111.884 405.734Z" fill="#263238"/>
<path d="M114.165 410.297C113.966 410.297 113.768 409.504 114.165 408.512C114.562 407.52 115.454 407.123 115.454 407.222C115.554 407.321 115.058 407.917 114.661 408.71C114.363 409.504 114.363 410.297 114.165 410.297Z" fill="#263238"/>
<path d="M107.618 404.246C107.618 404.346 106.924 404.445 105.833 404.246C105.238 404.147 104.643 404.048 103.948 403.75C103.552 403.651 103.254 403.453 102.857 403.255C102.659 403.155 102.46 403.056 102.262 402.858C102.064 402.659 101.964 402.163 102.163 401.866C102.361 401.568 102.659 401.469 102.956 401.469C103.254 401.469 103.452 401.469 103.651 401.568C104.047 401.667 104.444 401.767 104.841 401.965C105.535 402.263 106.13 402.659 106.527 403.056C107.42 403.85 107.718 404.445 107.618 404.544C107.519 404.643 107.122 404.048 106.23 403.453C105.833 403.155 105.238 402.858 104.543 402.56C104.246 402.461 103.849 402.362 103.452 402.263C103.056 402.163 102.758 402.163 102.659 402.362C102.659 402.461 102.659 402.461 102.659 402.56C102.758 402.659 102.857 402.759 103.056 402.858C103.353 403.056 103.75 403.255 104.047 403.354C104.742 403.651 105.337 403.85 105.833 403.949C106.924 404.048 107.618 404.147 107.618 404.246Z" fill="#263238"/>
<path d="M107.321 404.445C107.222 404.445 106.924 403.85 106.825 402.659C106.825 402.064 106.825 401.37 107.023 400.676C107.122 400.279 107.222 399.882 107.42 399.584C107.618 399.188 107.916 398.692 108.61 398.593C109.007 398.593 109.305 398.89 109.404 399.089C109.503 399.287 109.602 399.584 109.602 399.783C109.701 400.18 109.701 400.676 109.602 400.973C109.503 401.767 109.205 402.461 108.908 402.858C108.214 403.85 107.519 404.048 107.42 404.048C107.321 403.949 108.015 403.552 108.511 402.659C108.809 402.163 109.007 401.568 109.007 400.874C109.007 400.576 109.007 400.18 108.908 399.783C108.809 399.386 108.709 399.089 108.511 399.089C108.313 399.089 108.015 399.386 107.916 399.684C107.718 399.981 107.618 400.378 107.519 400.676C107.321 401.37 107.222 401.965 107.222 402.56C107.222 403.751 107.42 404.445 107.321 404.445Z" fill="#263238"/>
<path d="M26.7769 196.34C26.7769 196.34 13.2868 218.857 13.2868 232.347L9.91431 396.609L31.2406 401.667L47.5081 241.175C47.5081 241.175 86.8873 402.163 88.1768 402.163C89.4663 402.163 108.809 398.692 108.809 398.692L79.4479 197.034L26.7769 196.34Z" fill="#263238"/>
<path d="M35.1089 236.711C35.1089 236.711 35.1089 236.81 35.1089 237.108C35.1089 237.406 35.0097 237.802 34.9105 238.298C34.7121 239.389 34.5137 240.976 34.2161 242.96C33.5218 247.027 32.6291 252.78 31.538 260.021C29.3557 274.404 26.6776 294.342 24.3961 316.462C22.1147 338.581 20.726 358.618 19.9325 373.199C19.5357 380.44 19.2382 386.392 19.0398 390.459C18.9406 392.443 18.8414 394.03 18.8414 395.121C18.8414 395.617 18.7422 396.014 18.7422 396.311C18.7422 396.609 18.7422 396.708 18.7422 396.708C18.7422 396.708 18.7422 396.609 18.7422 396.311C18.7422 396.014 18.7422 395.617 18.7422 395.121C18.7422 394.03 18.8414 392.443 18.8414 390.459C18.9406 386.392 19.139 380.54 19.5357 373.199C20.2301 358.618 21.5196 338.581 23.801 316.462C26.0824 294.342 28.8598 274.404 31.1412 260.021C32.2323 252.78 33.2242 247.027 34.0178 242.96C34.4145 240.976 34.6129 239.389 34.9105 238.298C35.0097 237.802 35.1089 237.406 35.1089 237.108C35.1089 236.91 35.1089 236.711 35.1089 236.711Z" fill="#455A64"/>
<path d="M68.9338 239.489C69.1322 239.489 75.5797 275.495 83.4158 320.032C91.252 364.57 97.5011 400.676 97.4019 400.676C97.2035 400.676 90.756 364.669 82.9199 320.132C74.9845 275.594 68.7354 239.489 68.9338 239.489Z" fill="#455A64"/>
<path d="M46.7145 240.877C46.7145 240.877 46.6153 240.778 46.5161 240.48C46.4169 240.183 46.2186 239.786 46.0202 239.29C45.6234 238.199 45.0283 236.612 44.4331 234.628C43.342 230.66 42.4493 224.907 42.9452 218.559C43.0444 216.972 43.2428 215.484 43.5404 213.996C43.838 212.508 44.1355 211.12 44.5323 209.83C45.3258 207.152 46.0202 204.871 46.7145 202.887C47.4089 200.903 48.004 199.415 48.4008 198.324C48.5992 197.828 48.7976 197.431 48.8968 197.134C48.9959 196.836 49.0951 196.737 49.0951 196.737C49.0951 196.737 49.0951 196.935 48.9959 197.233C48.8967 197.63 48.7976 198.026 48.5992 198.522C48.2024 199.713 47.7064 201.3 47.1113 203.184C46.5161 205.168 45.7226 207.45 45.0283 210.128C44.6315 211.417 44.3339 212.806 44.0363 214.294C43.838 215.782 43.6396 217.27 43.4412 218.857C42.9452 225.106 43.7388 230.76 44.8299 234.727C45.3258 236.711 45.921 238.298 46.2186 239.389C46.6153 240.282 46.8137 240.877 46.7145 240.877Z" fill="#455A64"/>
<path d="M52.7651 213.302C52.7651 213.302 52.7651 213.401 52.7651 213.599C52.7651 213.798 52.7651 214.095 52.7651 214.492C52.7651 215.286 52.8643 216.377 52.8643 217.765C52.9635 220.543 53.0627 224.511 53.2611 229.173L53.1619 228.974C55.6417 229.966 58.4191 231.156 61.3948 232.347H61.1965C63.2795 231.057 65.5609 229.669 67.8423 228.28C67.9415 228.181 68.1399 228.081 68.2391 227.982L68.1399 228.181C68.6359 222.725 69.1318 217.666 69.5286 213.302L69.727 213.5C64.6682 213.5 60.5021 213.401 57.4272 213.401C55.9393 213.401 54.749 213.401 53.9554 213.302C53.5587 213.302 53.2611 213.302 53.0627 213.302C52.9635 213.302 52.7651 213.302 52.7651 213.302C52.7651 213.302 53.1619 213.302 53.9554 213.203C54.8482 213.203 55.9393 213.203 57.4272 213.103C60.5021 213.103 64.7674 213.004 69.8262 213.004H70.1237V213.302C69.727 217.666 69.3302 222.824 68.8342 228.181V228.28L68.7351 228.379C68.6359 228.478 68.4375 228.577 68.3383 228.677C66.0569 230.065 63.7755 231.454 61.6924 232.743L61.5932 232.843H61.494C58.5183 231.652 55.8401 230.462 53.2611 229.47L53.1619 229.371V229.272C53.0627 224.511 53.0627 220.543 52.9635 217.666C52.9635 216.377 52.9635 215.286 52.9635 214.492C52.7651 213.699 52.7651 213.302 52.7651 213.302Z" fill="#455A64"/>
<path d="M21.9165 208.937C21.9165 208.937 21.9165 209.334 21.8173 210.028C21.7181 210.822 21.5197 211.814 21.3213 213.004C20.9246 215.583 20.3294 219.253 19.6351 223.519L19.5359 223.32C21.4205 224.709 23.5035 226.296 25.785 227.883H25.5866C27.9672 227.189 30.5462 226.494 33.1252 225.8C33.2244 225.8 33.4227 225.701 33.5219 225.701L33.3236 225.899C34.8114 220.94 36.1009 216.377 37.2912 212.409L37.4896 212.707C32.9268 211.616 29.1575 210.723 26.3801 210.028C25.0906 209.731 23.9995 209.433 23.206 209.235C22.3132 209.037 21.9165 208.937 21.9165 208.937C21.9165 208.937 22.3132 208.937 23.0076 209.136C23.8011 209.334 24.8922 209.533 26.1817 209.83C28.9591 210.425 32.9268 211.318 37.4896 212.31L37.688 212.409L37.5888 212.607C36.3985 216.575 35.109 221.237 33.7203 226.098V226.197H33.6211C33.5219 226.197 33.3236 226.296 33.2244 226.296C30.6454 226.99 28.0664 227.685 25.6858 228.379H25.5866L25.4874 228.28C23.3052 226.594 21.2221 225.006 19.3375 223.618L19.2383 223.519V223.419C20.0318 219.055 20.7262 215.385 21.2221 212.707C21.4205 211.516 21.6189 210.524 21.8173 209.731C21.8173 209.235 21.9165 208.937 21.9165 208.937Z" fill="#455A64"/>
<path d="M64.966 237.703C64.966 237.802 60.8992 238.794 55.9396 239.985C50.8808 241.076 46.8139 241.869 46.7147 241.671C46.7147 241.572 50.7816 240.58 55.7412 239.389C60.8992 238.298 64.966 237.505 64.966 237.703Z" fill="#455A64"/>
<path d="M38.4815 238.397C38.4815 238.497 37.5888 238.497 36.2001 238.397C34.8114 238.298 32.8276 238.001 30.6453 237.505C28.4631 237.009 26.5785 236.414 25.289 235.818C23.9995 235.322 23.2059 234.827 23.2059 234.827C23.2059 234.727 24.0987 235.025 25.3882 235.521C26.7769 235.918 28.6615 236.513 30.7445 237.009C32.8276 237.505 34.8114 237.802 36.2001 238.001C37.5888 238.199 38.4815 238.298 38.4815 238.397Z" fill="#455A64"/>
<path d="M36.1008 67.2912C36.7952 69.3742 34.3154 71.2588 32.1331 71.7548C29.9509 72.2508 27.2727 72.5484 26.2808 74.6314C25.3881 76.4168 26.2808 78.5991 25.4873 80.3845C23.9994 83.757 17.8495 83.0627 16.6592 86.5344C15.8656 88.915 18.1471 91.3948 17.8495 93.9738C17.6511 96.1561 15.5681 97.6439 13.8818 98.9334C12.0963 100.223 10.3109 102.108 10.6085 104.29C10.906 106.77 13.981 108.555 13.6834 111.035C13.3858 113.515 10.1125 114.705 9.61655 117.086C9.02139 119.962 12.6915 121.847 13.8818 124.525C14.7745 126.608 14.1794 129.286 15.7664 130.972C17.3535 132.659 20.0317 132.361 22.3131 131.865C29.8517 130.278 37.3903 128.691 44.9289 127.104C43.441 123.533 44.8297 119.367 47.0119 116.193C49.1942 113.019 52.0707 110.241 53.9554 106.869C55.84 103.496 56.4352 98.9334 53.9554 95.8585" fill="#263238"/>
<path d="M75.7775 85.3441C75.6784 85.3441 75.7775 83.8563 75.0832 81.7732C74.8848 81.2773 74.5873 80.6821 74.1905 80.2853C73.7937 79.8886 73.1986 80.087 72.8018 80.7813C72.1074 81.9716 71.8099 83.6579 71.8099 85.3441C71.8099 87.0304 72.1074 88.7167 72.8018 89.907C73.1986 90.5021 73.7937 90.7997 74.1905 90.4029C74.6864 90.0062 74.8848 89.411 75.0832 88.9151C75.7775 86.832 75.6784 85.3441 75.7775 85.3441C75.7775 85.3441 75.8767 85.7409 75.8767 86.3361C75.8767 86.9312 75.7776 87.9231 75.48 89.0142C75.2816 89.6094 75.0832 90.2046 74.4881 90.7005C74.1905 90.9981 73.6945 91.0973 73.2977 90.9981C72.901 90.7997 72.6034 90.5021 72.3058 90.2046C71.4131 88.8159 71.2147 87.1296 71.2147 85.3441C71.2147 83.5587 71.5123 81.8724 72.3058 80.4837C72.5042 80.1862 72.8018 79.7894 73.2977 79.6902C73.6945 79.4918 74.1905 79.6902 74.4881 79.9878C75.0832 80.4837 75.2816 81.1781 75.48 81.674C75.8767 82.7651 75.8767 83.7571 75.8767 84.3522C75.8767 84.9474 75.8767 85.3441 75.7775 85.3441Z" fill="#263238"/>
<path d="M38.9774 106.174C34.9105 99.231 33.7202 90.1053 32.7283 82.17C32.2324 78.4007 31.3396 73.1435 34.0178 70.7629C36.7952 68.2831 37.0928 64.4146 40.3661 62.4308C43.6394 60.4469 48.0039 60.3477 51.0788 62.53" fill="#263238"/>
<path d="M50.2856 130.576C56.5347 131.072 61.9902 126.31 62.1886 119.962C62.4862 113.911 62.6846 107.861 62.6846 107.861C62.6846 107.861 71.8103 107.067 72.5046 98.0407C73.1989 89.0143 73.0006 68.0847 73.0006 68.0847C62.7838 62.9268 50.5832 63.6211 41.1599 70.0686L41.6559 101.909L41.5567 119.069C41.6559 124.723 44.5324 130.08 50.2856 130.576Z" fill="#FFBE9D"/>
<path d="M63.577 86.9312C61.99 84.9473 59.5102 84.253 57.4271 85.5425C55.3441 86.9312 54.5506 89.9069 55.6417 92.0892C56.4352 93.6762 58.2207 95.0649 60.1053 95.4617C61.7916 95.8585 62.9819 97.4455 62.7835 99.231C62.4859 101.512 58.7166 102.306 57.0304 104.191C54.3522 107.067 48.599 108.357 44.6314 108.753C40.7629 109.15 41.2588 109.249 38.9774 106.075C37.3903 103.794 36.8944 101.512 36.7952 98.735C36.696 92.0892 36.5968 85.4433 36.3984 78.6982C36.3984 76.3176 36.2992 73.8378 36.8944 71.5564C37.4895 69.1758 38.6798 66.9936 40.6637 65.6049C42.8459 64.117 45.6233 64.0178 48.2023 63.2243C51.3764 62.2324 53.9554 60.1493 56.9312 58.6615C59.9069 57.1736 63.4778 56.2809 66.3544 57.7687C68.4374 58.8598 69.8261 60.9429 71.9092 62.1332C74.7857 63.8194 78.8526 63.4227 80.2413 67.7871C80.7372 69.275 80.6381 70.8621 80.1421 72.35C78.1583 78.2023 70.9172 80.4837 65.6601 78.0039C65.5609 78.9958 66.5528 81.178 65.4617 84.3522C65.2633 85.3441 65.1641 86.9312 63.577 86.9312Z" fill="#263238"/>
<path d="M61.8909 92.5851C61.8909 92.5851 61.8909 92.7835 61.7917 92.9819C61.5933 93.1803 61.2958 93.4779 60.7998 93.4779C59.8079 93.5771 58.5184 92.486 58.4192 90.9981C58.4192 90.3037 58.6176 89.5102 59.1135 89.1134C59.5103 88.6175 60.1055 88.4191 60.5022 88.3199C61.395 88.1215 61.9901 88.5183 61.8909 88.5183C61.8909 88.6175 61.2958 88.5183 60.6014 88.7167C59.9071 88.9151 58.9152 89.8078 59.0143 90.9981C59.0143 92.1884 60.0063 93.0811 60.7006 93.0811C61.5933 93.0811 61.8909 92.486 61.8909 92.5851Z" fill="#995037"/>
<path d="M75.8766 84.9473C75.8766 85.1457 73.1985 85.6417 69.8259 86.2368C66.4534 86.832 63.676 87.1296 63.676 86.9312C63.676 86.7328 66.3542 86.2368 69.7267 85.6417C73.0993 85.0465 75.7775 84.749 75.8766 84.9473Z" fill="#263238"/>
<path d="M39.6716 114.903C40.1676 116.094 41.6554 116.49 42.8457 116.193C44.036 115.895 45.028 115.003 45.9207 114.11C46.8134 113.217 47.7062 112.324 48.8965 112.027C51.2771 111.332 54.2528 112.92 56.3359 111.432C58.2205 110.043 57.9229 106.968 59.7084 105.579C60.7003 104.786 61.9898 104.786 62.9817 103.992C64.7672 102.604 64.4696 99.6278 62.9817 97.9415C61.3947 96.2553 59.1132 95.5609 56.931 94.9658L37.4894 103.199L39.6716 114.903Z" fill="#263238"/>
<path d="M62.7835 79.7894C62.7835 79.7894 62.6843 79.7894 62.5851 79.8886C62.4859 79.9877 62.2875 80.0869 62.0892 80.1861C61.5932 80.3845 60.8989 80.6821 60.0061 80.9797C59.0142 81.1781 57.8239 81.3764 56.4352 81.5748C55.0465 81.7732 53.4594 81.7732 51.7732 82.17C50.0869 82.5667 48.3015 83.2611 47.012 84.749C45.7225 86.2368 45.2265 88.4191 44.2346 90.6013C43.7386 91.6924 42.9451 92.6843 41.9532 93.4779C40.9613 94.2714 39.7709 94.7674 38.5806 95.1641C36.2 95.9577 33.5219 96.4536 31.538 98.1399C30.5461 98.9334 29.9509 100.124 29.7526 101.314C29.5542 102.504 29.7526 103.794 29.7526 105.083C29.7526 106.373 29.6534 107.662 29.0582 108.853C28.4631 109.944 27.4711 110.737 26.4792 111.332C24.4954 112.523 22.3132 113.118 20.6269 114.209C19.7342 114.705 19.0398 115.399 18.5439 116.094C18.0479 116.887 17.7503 117.681 17.7503 118.573C17.6511 120.26 18.1471 121.847 18.3455 123.136C18.6431 124.525 18.7422 125.715 18.6431 126.707C18.5439 127.699 18.2463 128.393 17.9487 128.889C17.6511 129.286 17.4528 129.485 17.4528 129.485C17.3536 129.485 18.2463 128.592 18.3455 126.707C18.4447 125.715 18.2463 124.525 17.9487 123.235C17.6511 121.847 17.1552 120.359 17.2544 118.573C17.2544 117.681 17.5519 116.689 18.0479 115.895C18.643 115.102 19.3374 114.407 20.2301 113.812C22.0156 112.622 24.0986 112.027 26.0825 110.836C27.0744 110.241 27.9671 109.547 28.4631 108.456C29.0582 107.464 29.1574 106.274 29.0582 104.984C29.0582 103.794 28.8598 102.405 29.0582 101.116C29.2566 99.727 29.9509 98.4375 31.0421 97.5447C33.2243 95.7593 35.9025 95.2633 38.2831 94.4698C39.4734 94.073 40.5645 93.5771 41.5564 92.8827C42.5483 92.1884 43.1435 91.2956 43.6394 90.2045C44.6314 88.2207 45.1273 85.9393 46.6152 84.3522C48.0039 82.7651 49.9877 81.9716 51.674 81.674C53.3603 81.2772 55.0465 81.2773 56.336 81.0789C57.7247 80.9797 58.915 80.7813 59.8077 80.5829C61.8908 80.3845 62.7835 79.7894 62.7835 79.7894Z" fill="#455A64"/>
<path d="M57.5263 83.0627C57.5263 83.1619 56.8319 83.0627 55.6416 83.3603C54.4513 83.6579 52.7651 84.3522 51.2772 85.9393C50.5828 86.7328 49.8885 87.7248 49.5909 89.0143C49.1941 90.2046 49.1942 91.5932 49.1942 93.0811C49.1942 94.569 49.2933 96.1561 48.4998 97.7431C48.103 98.5367 47.5079 99.231 46.8135 99.6278C46.1192 100.124 45.3257 100.421 44.5321 100.818C43.8378 101.215 43.0442 101.612 42.6475 102.207C42.1515 102.802 41.9531 103.496 41.8539 104.29C41.7547 105.778 42.0523 107.464 41.358 108.952C40.6636 110.341 39.4733 111.233 38.3822 111.928C37.2911 112.622 36.1008 113.118 35.2081 113.713C34.3153 114.308 33.5218 114.903 32.9267 115.598C32.4307 116.292 32.1331 116.986 31.9347 117.582C31.6372 118.772 32.0339 119.466 31.9347 119.466C31.9347 119.466 31.8355 119.367 31.7364 118.97C31.6372 118.673 31.538 118.177 31.6372 117.482C31.7363 116.887 32.0339 116.094 32.5299 115.399C33.0259 114.606 33.8194 114.011 34.8113 113.415C35.8032 112.82 36.8943 112.324 37.9855 111.63C39.0766 110.936 40.1677 110.043 40.7628 108.853C41.4572 107.563 41.0604 106.075 41.1596 104.389C41.2588 103.595 41.4572 102.703 42.0523 102.008C42.6475 101.314 43.441 100.917 44.1354 100.521C45.6232 99.8262 47.2103 99.1318 47.8055 97.644C48.4998 96.2553 48.4006 94.6682 48.4998 93.2795C48.4998 91.7916 48.4998 90.4029 48.8966 89.1134C49.2933 87.8239 49.9877 86.7328 50.7812 85.9393C52.3683 84.253 54.1537 83.5587 55.4432 83.3603C56.0384 83.2611 56.5344 83.2611 56.9311 83.2611C57.4271 83.0627 57.5263 83.0627 57.5263 83.0627Z" fill="#455A64"/>
<path d="M64.9657 116.292L62.5851 111.432L42.1516 110.737L38.9774 116.986H64.569" fill="#26C7BC"/>
<path d="M135.095 160.036C134.995 159.341 140.451 130.477 142.038 122.541C142.237 121.549 141.443 120.557 140.352 120.557H99.4847C98.6912 120.557 97.9969 121.053 97.8977 121.847L89.5655 157.159L68.9336 158.746L69.6279 160.135H135.095V160.036Z" fill="#455A64"/>
<path d="M133.31 157.457L139.955 122.442L99.7827 122.74L90.9546 157.457H133.31Z" fill="#EBEBEB"/>
<path d="M90.8552 157.556L99.6833 122.74L139.955 122.541L133.309 157.556H90.8552ZM99.7825 122.74L90.9544 157.457L133.309 157.358L139.955 122.442L99.7825 122.74Z" fill="#263238"/>
<path d="M133.309 157.655C133.309 157.754 121.505 157.953 107.023 157.953C92.5413 157.953 80.7374 157.854 80.7374 157.655C80.7374 157.556 92.5413 157.358 107.023 157.358C121.505 157.457 133.309 157.556 133.309 157.655Z" fill="#263238"/>
<path d="M130.532 148.827C130.532 148.827 130.333 148.827 130.036 148.926C129.639 148.926 129.143 148.926 128.548 148.926C127.159 148.926 125.274 148.926 122.993 149.025C118.331 149.025 111.884 149.125 104.742 149.125C102.758 149.125 100.774 149.125 98.8894 149.125H98.5918L98.691 148.827C100.08 143.272 101.369 138.511 102.262 134.94C102.758 133.254 103.055 131.964 103.353 130.873C103.651 129.981 103.75 129.385 103.849 129.385C103.849 129.385 103.75 129.881 103.551 130.873C103.353 131.865 102.956 133.254 102.559 134.94C101.667 138.511 100.476 143.272 99.187 148.827L98.9886 148.529C100.873 148.529 102.857 148.529 104.841 148.529C111.983 148.529 118.43 148.529 123.092 148.629C125.374 148.629 127.258 148.728 128.647 148.728C129.242 148.728 129.738 148.728 130.135 148.728C130.333 148.827 130.532 148.827 130.532 148.827Z" fill="#455A64"/>
<path d="M101.369 147.538L102.163 144.165H107.321L106.726 147.538H101.369Z" fill="#26C7BC"/>
<path d="M108.412 147.538L109.999 140.892H115.157L113.669 147.538H108.412Z" fill="#26C7BC"/>
<path d="M115.454 147.538L116.248 144.165H121.406L120.712 147.538H115.454Z" fill="#26C7BC"/>
<path d="M122.497 147.538L125.473 134.643H130.631L127.755 147.538H122.497Z" fill="#26C7BC"/>
<path d="M105.436 151.307C105.436 151.406 104.444 151.604 103.353 151.505C102.163 151.505 101.27 151.406 101.27 151.208C101.27 151.108 102.163 150.91 103.353 151.009C104.543 151.009 105.436 151.108 105.436 151.307Z" fill="#455A64"/>
<path d="M112.281 151.307C112.281 151.406 111.289 151.604 110.198 151.505C109.007 151.505 108.115 151.406 108.115 151.208C108.115 151.108 109.007 150.91 110.198 151.009C111.388 151.009 112.281 151.108 112.281 151.307Z" fill="#455A64"/>
<path d="M119.125 151.307C119.125 151.406 118.133 151.604 117.042 151.505C115.851 151.505 114.959 151.406 114.959 151.208C114.959 151.108 115.851 150.91 117.042 151.009C118.232 151.009 119.125 151.108 119.125 151.307Z" fill="#455A64"/>
<path d="M125.969 151.307C125.969 151.406 124.977 151.604 123.886 151.505C122.696 151.505 121.803 151.406 121.803 151.208C121.803 151.108 122.696 150.91 123.886 151.009C124.977 151.009 125.969 151.108 125.969 151.307Z" fill="#455A64"/>
<path d="M115.95 127.997C115.95 128.096 113.371 128.294 110.197 128.294C107.023 128.294 104.444 128.195 104.444 127.997C104.444 127.898 107.023 127.699 110.197 127.699C113.272 127.699 115.95 127.798 115.95 127.997Z" fill="#455A64"/>
<path d="M109.801 126.509C109.801 126.608 108.61 126.806 107.222 126.806C105.833 126.806 104.643 126.707 104.643 126.509C104.643 126.41 105.833 126.211 107.222 126.211C108.709 126.31 109.801 126.41 109.801 126.509Z" fill="#455A64"/>
<path d="M98.6913 181.263L122.398 164.103L121.505 162.714C120.216 160.631 118.232 158.945 115.951 158.052L112.281 158.746L90.3591 162.119L98.6913 181.263Z" fill="#26C7BC"/>
<path d="M14.5763 177.295L34.2163 169.558L29.8519 153.191L13.882 158.647L14.5763 177.295Z" fill="#26C7BC"/>
<path d="M97.8975 181.759C102.758 179.279 104.047 173.526 101.667 168.566L81.3324 125.021C80.8365 123.93 80.1421 122.938 79.2494 122.244C71.2148 115.3 62.3867 116.49 62.3867 116.49L41.1597 115.895C41.1597 115.895 24.4954 115.895 18.2463 129.088C17.7503 130.08 8.12871 149.323 1.68122 162.02C-1.29454 167.872 1.58204 175.014 7.73194 177.295C13.1875 179.279 19.139 176.7 21.5196 171.443L28.4631 155.969L32.8275 178.188L26.4792 196.439L79.1502 197.134L75.0833 172.633L73.7938 155.175L84.5066 177.196C86.8872 182.156 92.9379 184.139 97.8975 181.759Z" fill="#26C7BC"/>
<g opacity="0.2">
<path d="M34.5138 177.593C38.4815 180.568 44.3338 179.577 49.2934 178.783C54.253 177.989 58.915 175.609 62.1884 171.84C63.5771 170.153 64.7674 167.971 64.569 165.789C64.3706 163.607 62.3867 161.424 60.2045 161.722C57.6255 162.02 56.4352 164.896 55.2449 167.178C51.3764 174.319 42.6475 178.386 34.7122 176.799C34.613 176.7 33.8195 177.097 34.5138 177.593Z" fill="black"/>
</g>
<g opacity="0.2">
<path d="M67.049 143.272C68.3384 153.291 67.7433 152.497 69.8263 162.416C70.8182 167.277 72.1077 172.336 75.4803 176.006L73.794 155.076L67.049 143.272Z" fill="black"/>
</g>
<path d="M26.4795 196.34L24.9916 191.876L28.8601 189.297L77.1666 185.33L80.6383 191.678L79.1504 197.034L26.4795 196.34Z" fill="#26C7BC"/>
<path d="M36.4975 113.415C34.5137 114.209 32.8274 115.895 32.2322 117.978C31.6371 120.061 31.9347 122.343 33.125 124.128C33.5217 124.723 34.1169 125.418 34.0177 126.112C33.9185 127.898 31.0419 127.898 30.1492 129.485C29.554 130.477 30.05 131.865 30.9427 132.758C31.8355 133.651 32.9266 134.047 33.9185 134.742C34.9104 135.436 35.8031 136.428 35.704 137.618C36.6959 137.618 37.291 136.329 37.1918 135.337C36.9935 134.345 36.3983 133.452 36.0015 132.56C35.5056 131.667 35.3072 130.477 35.9023 129.683C36.5967 128.79 37.8862 128.691 38.9773 128.294C41.0603 127.501 42.1514 124.823 41.2587 122.74C40.5644 121.252 39.0765 119.863 39.87 118.375C40.2668 117.582 41.2587 117.284 41.9531 116.887C43.5401 115.994 44.6312 114.308 44.8296 112.523C44.9288 110.737 44.1353 108.853 42.7466 107.762" fill="#263238"/>
<path d="M28.2646 157.953C28.3638 157.953 27.967 158.945 27.1735 160.433C26.4791 161.92 25.388 164.003 24.0985 166.186C22.809 168.368 21.5195 170.253 20.5276 171.641C19.5357 173.03 18.9405 173.823 18.8413 173.724C18.7422 173.724 19.3373 172.832 20.23 171.443C21.1228 170.054 22.3131 168.07 23.6026 165.888C24.8921 163.706 25.9832 161.722 26.7767 160.234C27.6694 158.845 28.1654 157.953 28.2646 157.953Z" fill="#263238"/>
<path d="M23.6029 166.285C23.7021 166.285 23.9005 167.971 23.3053 169.955C22.7102 171.939 21.5199 173.228 21.4207 173.129C21.3215 173.03 22.2142 171.641 22.8094 169.856C23.4045 167.872 23.5037 166.285 23.6029 166.285Z" fill="#263238"/>
<path d="M100.774 166.979C100.675 167.078 96.5088 158.449 91.5492 147.736C86.5896 137.023 82.7212 128.294 82.8203 128.294C82.9195 128.195 87.0856 136.825 92.0452 147.538C97.0048 158.151 100.972 166.88 100.774 166.979Z" fill="#263238"/>
<path d="M75.6787 122.442C75.6787 122.541 74.7859 122.839 73.4965 123.632C72.207 124.426 70.5207 125.815 69.2312 127.798C67.9417 129.782 67.3465 131.865 67.1482 133.353C66.9498 134.841 66.9498 135.833 66.8506 135.833C66.7514 135.833 66.553 134.841 66.7514 133.254C66.8506 131.667 67.4457 129.485 68.8344 127.402C70.2231 125.319 72.0086 123.93 73.3973 123.236C74.6867 122.64 75.6787 122.442 75.6787 122.442Z" fill="#263238"/>
<path d="M32.7283 178.188C32.6291 178.188 30.2485 168.169 27.4711 155.671C24.6938 143.173 22.5115 133.056 22.7099 133.056C22.8091 133.056 25.1897 143.074 27.9671 155.572C30.7445 168.07 32.8275 178.188 32.7283 178.188Z" fill="#263238"/>
<path d="M122.398 164.103L132.02 160.036H119.224L122.001 163.607" fill="#FFBE9D"/>
<path d="M102.659 165.194C102.56 165.293 101.568 164.202 100.377 163.011C99.0879 161.821 97.9968 160.829 98.096 160.73C98.1952 160.631 99.3855 161.325 100.675 162.615C101.964 163.904 102.758 165.095 102.659 165.194Z" fill="#263238"/>
<path d="M84.9034 177.99C84.9034 177.99 84.6058 177.494 84.1098 176.7C83.6139 175.807 82.9195 174.518 82.126 172.931C80.4397 169.757 78.2575 165.293 75.7777 160.433C73.3971 155.572 71.1157 151.108 69.4294 147.934C68.6359 146.446 67.9415 145.157 67.4456 144.165C66.9496 143.272 66.7512 142.776 66.7512 142.776C66.7512 142.776 67.0488 143.272 67.6439 144.066C68.1399 144.959 68.8343 146.149 69.727 147.736C71.4132 150.91 73.6947 155.275 76.1745 160.234C78.5551 165.095 80.7373 169.558 82.3244 172.832C83.1179 174.419 83.713 175.708 84.209 176.601C84.705 177.394 85.0026 177.99 84.9034 177.99Z" fill="#263238"/>
<path d="M65.9578 164.499C65.9578 164.499 65.9578 164.599 65.9578 164.797C65.9578 164.995 65.8586 165.392 65.7594 165.789C65.5611 166.682 65.1643 167.872 64.4699 169.161C62.9821 171.939 59.9071 175.113 55.5427 177.097C51.1782 179.081 46.913 179.676 43.9372 179.973C42.4493 180.172 41.1598 180.271 40.3663 180.271C39.4736 180.37 39.0768 180.37 39.0768 180.271C39.0768 180.271 39.5727 180.172 40.3663 180.073C41.3582 179.973 42.5485 179.775 43.9372 179.577C46.913 179.081 51.1782 178.485 55.3443 176.601C59.5103 174.716 62.6845 171.641 64.1724 168.963C65.6602 166.384 65.8586 164.4 65.9578 164.499Z" fill="#263238"/>
<path d="M55.344 189.992C55.344 190.091 48.7974 190.686 40.7628 191.281C32.7283 191.876 26.1816 192.174 26.0824 192.075C26.0824 191.976 32.6291 191.38 40.6636 190.785C48.7974 190.19 55.344 189.893 55.344 189.992Z" fill="#263238"/>
<path d="M63.7755 186.123C63.8747 186.123 64.5691 188.305 64.8666 191.083C65.1642 193.86 64.9658 196.142 64.8666 196.142C64.6683 196.142 64.6683 193.86 64.3707 191.182C64.0731 188.405 63.6764 186.123 63.7755 186.123Z" fill="#263238"/>
<path d="M67.1481 182.949C67.2473 182.949 67.4457 183.643 67.5449 184.933C67.7433 186.222 67.8425 187.909 67.6441 189.893C67.5449 191.777 67.1481 193.563 66.8506 194.753C66.553 195.943 66.1562 196.737 66.1562 196.638C65.9578 196.638 66.9497 193.662 67.1481 189.793C67.5449 186.024 67.0489 182.949 67.1481 182.949Z" fill="#263238"/>
<path d="M64.9656 116.689C64.9656 116.788 60.2044 116.689 54.4512 116.391C48.5989 116.094 43.9369 115.697 43.9369 115.499C43.9369 115.399 48.6981 115.499 54.4512 115.796C60.3036 116.094 64.9656 116.49 64.9656 116.689Z" fill="#263238"/>
</svg>
