<svg width="410" height="426" viewBox="0 0 410 426" fill="none" xmlns="http://www.w3.org/2000/svg">
<path d="M350.615 74.6297L348.424 70.9785C329.855 40.4129 296.369 22.0526 261.109 24.2433C256.518 24.5563 252.033 25.1822 247.547 26.1211C215.417 33.0062 187.563 57.3127 175.984 88.3999C169.203 106.656 167.221 127.728 154.39 142.229C137.594 161.111 109.011 161.737 83.9738 160.902C58.8328 160.068 30.3535 160.798 13.558 179.784C3.12607 191.676 -0.212151 208.576 0.622406 224.433C2.81312 266.578 32.2313 304.237 69.4734 322.91C106.82 341.584 150.738 343.253 191.527 335.116C248.695 323.536 303.149 291.928 335.801 243.002C368.558 194.076 376.799 127.52 350.615 74.6297Z" fill="#141C29"/>
<path d="M156.058 383.913C170.116 383.913 181.512 372.517 181.512 358.459C181.512 344.401 170.116 333.005 156.058 333.005C142.001 333.005 130.604 344.401 130.604 358.459C130.604 372.517 142.001 383.913 156.058 383.913Z" fill="#F5F5F5"/>
<path d="M132.378 421.468H89.5027C81.8874 421.468 75.6282 415.209 75.6282 407.594V364.718C75.6282 357.103 81.8874 350.844 89.5027 350.844H132.378C139.993 350.844 146.253 357.103 146.253 364.718V407.594C146.357 415.209 140.098 421.468 132.378 421.468Z" fill="#26C7BC"/>
<g opacity="0.3">
<path d="M132.378 421.468H89.5027C81.8874 421.468 75.6282 415.209 75.6282 407.594V364.718C75.6282 357.103 81.8874 350.844 89.5027 350.844H132.378C139.993 350.844 146.253 357.103 146.253 364.718V407.594C146.357 415.209 140.098 421.468 132.378 421.468Z" fill="black"/>
</g>
<path d="M119.756 421.468H76.8801C69.2648 421.468 63.0056 415.209 63.0056 407.594V364.718C63.0056 357.103 69.2648 350.844 76.8801 350.844H119.756C127.371 350.844 133.63 357.103 133.63 364.718V407.594C133.63 415.209 127.371 421.468 119.756 421.468Z" fill="#26C7BC"/>
<path d="M73.9592 387.147L81.053 380.053L94.8232 392.259L117.669 369.308L124.241 376.402L93.78 406.029L73.9592 387.147Z" fill="white"/>
<path d="M169.516 421.468H141.558C136.864 421.468 133.004 417.608 133.004 412.914V384.852C133.004 380.158 136.864 376.298 141.558 376.298H169.516C174.21 376.298 178.07 380.158 178.07 384.852V412.81C178.07 417.608 174.21 421.468 169.516 421.468Z" fill="#263238"/>
<path d="M161.379 421.468H133.421C128.727 421.468 124.867 417.608 124.867 412.914V384.852C124.867 380.158 128.727 376.298 133.421 376.298H161.379C166.073 376.298 169.933 380.158 169.933 384.852V412.81C169.933 417.608 166.178 421.468 161.379 421.468Z" fill="#455A64"/>
<path d="M131.752 399.561L136.342 394.971L145.105 402.795L159.814 388.086L163.987 392.676L144.479 411.558L131.752 399.561Z" fill="white"/>
<path d="M281.138 286.166H63.2141C59.0414 286.166 55.7031 283.18 55.7031 279.449V7.69127C55.7031 3.95962 59.0414 0.974304 63.2141 0.974304H281.138C285.311 0.974304 288.649 3.95962 288.649 7.69127V279.542C288.649 283.18 285.311 286.166 281.138 286.166Z" fill="white"/>
<path d="M281.138 286.177C281.138 286.083 282.181 286.27 283.85 285.711C284.685 285.431 285.728 284.872 286.667 283.94C287.606 283.009 288.336 281.704 288.544 280.12C288.649 273.598 288.544 264.095 288.544 251.703C288.544 227.012 288.545 191.327 288.44 147.256C288.44 125.174 288.44 101.042 288.44 75.14C288.44 62.1889 288.44 48.772 288.44 34.9824C288.44 28.0876 288.44 21.0997 288.44 14.0185C288.44 12.2482 288.44 10.4779 288.44 8.70766C288.545 6.93737 288.023 5.16709 286.771 3.86267C285.519 2.55825 283.641 1.62652 281.659 1.53334C279.677 1.53334 277.591 1.53334 275.609 1.53334C210.305 1.53334 138.637 1.53334 63.3184 1.53334C61.0234 1.53334 58.8326 2.55825 57.4765 4.14219C56.7462 4.98074 56.329 5.91247 56.1203 6.93737C55.9117 7.96228 56.016 8.98718 56.016 10.0121C56.016 14.2049 56.016 18.3976 56.016 22.4973C56.016 30.7896 56.016 39.082 56.016 47.2812C56.016 63.6797 56.016 79.7986 56.016 95.638C56.016 127.317 56.016 157.971 56.016 187.134C56.016 216.297 56.016 243.969 56.016 269.871C56.016 273.132 56.016 276.3 56.016 279.468C56.016 281.052 56.6419 282.543 57.7894 283.661C58.937 284.872 60.5018 285.618 62.1709 285.804C63.0054 285.897 63.84 285.897 64.7789 285.897C65.6134 285.897 66.5523 285.897 67.3869 285.897C69.1603 285.897 70.8294 285.897 72.6028 285.897C76.0454 285.897 79.4879 285.897 82.8262 285.897C96.2834 285.897 109.219 285.897 121.529 285.897C170.872 285.897 210.826 285.99 238.471 285.99C252.241 285.99 262.986 285.99 270.289 285.99C273.94 285.99 276.652 285.99 278.53 285.99C280.199 286.177 281.138 286.177 281.138 286.177C281.138 286.177 280.199 286.177 278.321 286.177C276.443 286.177 273.731 286.177 270.08 286.177C262.778 286.177 252.137 286.177 238.262 286.177C210.618 286.177 170.768 286.177 121.32 286.27C109.01 286.27 96.0748 286.27 82.6175 286.27C79.2793 286.27 75.8367 286.27 72.3942 286.27C70.7251 286.27 68.9516 286.27 67.1782 286.27C66.3437 286.27 65.4048 286.27 64.5702 286.27C63.7357 286.27 62.7968 286.27 61.9622 286.177C60.1888 285.897 58.5197 285.152 57.2678 283.847C56.1203 282.636 55.3901 280.959 55.3901 279.375C55.3901 276.207 55.3901 272.946 55.3901 269.778C55.3901 243.876 55.3901 216.204 55.3901 187.041C55.3901 157.878 55.3901 127.317 55.3901 95.5448C55.3901 79.7054 55.3901 63.5865 55.3901 47.1881C55.3901 38.9889 55.3901 30.7896 55.3901 22.4041C55.3901 18.2113 55.3901 14.1117 55.3901 9.91891C55.3901 8.894 55.2858 7.8691 55.4944 6.75103C55.7031 5.63295 56.2246 4.60805 56.8506 3.76949C58.311 1.99921 60.7104 0.974304 63.1097 0.974304C138.429 0.974304 210.2 0.974304 275.4 0.974304C277.487 0.974304 279.469 0.974304 281.555 0.974304C283.641 1.06748 285.624 1.99921 286.98 3.3968C288.336 4.7944 288.962 6.75103 288.753 8.52131C288.753 10.2916 288.753 12.0619 288.753 13.8322C288.753 20.9133 288.753 27.9013 288.753 34.7961C288.753 48.5857 288.753 62.0026 288.753 74.9536C288.753 100.856 288.753 124.987 288.753 147.069C288.753 191.14 288.649 226.825 288.649 251.516C288.649 263.815 288.649 273.412 288.544 279.934C288.336 281.518 287.606 282.916 286.667 283.847C285.728 284.779 284.685 285.338 283.85 285.618C283.016 285.897 282.285 285.99 281.764 286.083C281.346 286.177 281.138 286.177 281.138 286.177Z" fill="#263238"/>
<path d="M245.983 75.8571H142.706C139.055 75.8571 136.134 72.9361 136.134 69.2849V68.659C136.134 65.0078 139.055 62.0869 142.706 62.0869H245.983C249.634 62.0869 252.555 65.0078 252.555 68.659V69.2849C252.555 72.9361 249.634 75.8571 245.983 75.8571Z" fill="#E0E0E0"/>
<path d="M118.295 85.7674H97.1182C94.1972 85.7674 91.7979 83.3681 91.7979 80.4471V59.2703C91.7979 56.3493 94.1972 53.95 97.1182 53.95H118.295C121.216 53.95 123.615 56.3493 123.615 59.2703V80.4471C123.615 83.3681 121.216 85.7674 118.295 85.7674Z" fill="#26C7BC"/>
<path d="M96.5969 70.3281L99.8308 67.0942L106.09 72.6232L116.418 62.1912L119.443 65.4251L105.568 78.778L96.5969 70.3281Z" fill="white"/>
<path d="M245.983 125.409H142.706C139.055 125.409 136.134 122.488 136.134 118.837V118.211C136.134 114.56 139.055 111.639 142.706 111.639H245.983C249.634 111.639 252.555 114.56 252.555 118.211V118.837C252.555 122.488 249.634 125.409 245.983 125.409Z" fill="#E0E0E0"/>
<path d="M118.295 135.319H97.1182C94.1972 135.319 91.7979 132.92 91.7979 129.999V108.822C91.7979 105.901 94.1972 103.502 97.1182 103.502H118.295C121.216 103.502 123.615 105.901 123.615 108.822V129.999C123.615 132.92 121.216 135.319 118.295 135.319Z" fill="#26C7BC"/>
<path d="M96.5969 119.776L99.8308 116.646L106.09 122.175L116.418 111.743L119.443 114.977L105.568 128.33L96.5969 119.776Z" fill="white"/>
<path d="M245.983 174.961H142.706C139.055 174.961 136.134 172.04 136.134 168.389V167.763C136.134 164.111 139.055 161.191 142.706 161.191H245.983C249.634 161.191 252.555 164.111 252.555 167.763V168.389C252.555 171.935 249.634 174.961 245.983 174.961Z" fill="#E0E0E0"/>
<path d="M118.295 184.871H97.1182C94.1972 184.871 91.7979 182.472 91.7979 179.551V158.374C91.7979 155.453 94.1972 153.054 97.1182 153.054H118.295C121.216 153.054 123.615 155.453 123.615 158.374V179.551C123.615 182.472 121.216 184.871 118.295 184.871Z" fill="#26C7BC"/>
<path d="M96.5969 169.328L99.8308 166.094L106.09 171.623L116.418 161.295L119.443 164.424L105.568 177.882L96.5969 169.328Z" fill="white"/>
<path d="M245.983 224.408H142.706C139.055 224.408 136.134 221.487 136.134 217.836V217.21C136.134 213.559 139.055 210.638 142.706 210.638H245.983C249.634 210.638 252.555 213.559 252.555 217.21V217.836C252.555 221.487 249.634 224.408 245.983 224.408Z" fill="#E0E0E0"/>
<path d="M118.295 234.423H97.1182C94.1972 234.423 91.7979 232.024 91.7979 229.103V207.926C91.7979 205.005 94.1972 202.605 97.1182 202.605H118.295C121.216 202.605 123.615 205.005 123.615 207.926V229.103C123.615 232.024 121.216 234.423 118.295 234.423Z" fill="#26C7BC"/>
<path d="M96.5969 218.879L99.8308 215.645L106.09 221.174L116.418 210.742L119.443 213.976L105.568 227.329L96.5969 218.879Z" fill="white"/>
<path d="M310.598 385.83L309.869 404.136C309.869 404.136 328.256 411.021 328.418 414.342L292.94 414.261L292.859 385.749L310.598 385.83Z" fill="#263238"/>
<path d="M298.934 402.516C298.286 402.678 297.8 403.488 297.962 404.136C298.124 404.865 298.934 405.351 299.582 405.108C300.311 404.946 300.878 404.055 300.635 403.326C300.392 402.678 299.42 402.111 298.853 402.435" fill="#E0E0E0"/>
<path d="M292.94 414.261L293.021 411.345L327.041 412.479C327.041 412.479 328.58 413.208 328.418 414.261H292.94Z" fill="#455A64"/>
<path d="M310.517 403.893C310.517 404.055 309.626 404.136 308.816 404.703C307.925 405.27 307.52 405.999 307.358 405.918C307.196 405.918 307.439 404.865 308.492 404.217C309.464 403.569 310.517 403.731 310.517 403.893Z" fill="white"/>
<path d="M314.243 405.513C314.243 405.675 313.514 405.999 312.947 406.728C312.299 407.457 312.218 408.267 311.975 408.267C311.813 408.267 311.732 407.295 312.461 406.404C313.19 405.351 314.243 405.27 314.243 405.513Z" fill="white"/>
<path d="M316.349 409.968C316.187 409.968 315.944 409.158 316.43 408.186C316.835 407.214 317.726 406.89 317.726 406.971C317.807 407.133 317.321 407.619 316.916 408.429C316.511 409.158 316.511 409.887 316.349 409.968Z" fill="white"/>
<path d="M310.193 399.762C310.112 399.924 309.302 399.681 308.33 399.762C307.358 399.843 306.548 400.167 306.467 400.005C306.386 399.843 307.115 399.276 308.249 399.195C309.464 399.033 310.274 399.6 310.193 399.762Z" fill="white"/>
<path d="M267.101 383.319L265.157 405.351L268.64 423.252C268.883 424.548 267.992 425.763 266.696 425.925C265.967 426.006 265.238 425.763 264.752 425.196C261.593 421.713 250.011 408.996 250.254 407.376C250.497 405.513 250.739 383.967 250.739 383.967L267.101 383.319Z" fill="#263238"/>
<path d="M266.778 425.925L250.416 405.918L250.335 406.89C250.254 407.7 250.497 408.51 250.983 409.158C252.279 410.859 256.005 415.638 264.753 425.277C265.239 425.844 266.049 426.087 266.778 425.925Z" fill="#455A64"/>
<g opacity="0.6">
<path d="M255.437 399.114C256.004 399.519 256.085 400.41 255.68 400.896C255.275 401.463 254.384 401.544 253.898 401.139C253.331 400.734 253.169 399.681 253.655 399.195C254.141 398.709 255.113 398.628 255.518 399.114" fill="white"/>
</g>
<path d="M262.323 415.962C262.404 416.043 263.052 414.909 264.347 414.342C265.724 413.775 266.858 414.18 266.939 414.018C266.939 413.937 266.696 413.775 266.21 413.694C265.724 413.613 264.914 413.613 264.185 413.937C263.456 414.261 262.89 414.747 262.647 415.233C262.323 415.638 262.323 415.962 262.323 415.962Z" fill="white"/>
<path d="M263.781 419.04C263.862 419.121 264.672 418.473 265.806 418.23C266.94 417.987 267.912 418.23 267.993 418.068C268.074 417.987 267.021 417.42 265.725 417.744C264.348 418.068 263.619 418.959 263.781 419.04Z" fill="white"/>
<path d="M259.649 411.993C259.73 412.074 260.864 411.102 262.646 410.535C264.428 409.968 265.967 410.13 265.967 409.968C266.048 409.887 264.428 409.401 262.484 410.049C260.621 410.616 259.568 411.912 259.649 411.993Z" fill="white"/>
<path d="M259.731 405.27C259.812 405.432 261.027 404.946 262.647 405.027C264.267 405.027 265.482 405.513 265.563 405.432C265.644 405.351 264.429 404.622 262.728 404.541C260.865 404.46 259.65 405.108 259.731 405.27Z" fill="white"/>
<path d="M260.054 398.79C260.135 398.952 261.35 398.304 263.051 398.466C264.752 398.628 265.886 399.519 265.967 399.357C265.967 399.276 265.805 399.033 265.319 398.709C264.833 398.385 264.023 398.061 263.132 397.98C262.241 397.899 261.431 398.061 260.864 398.304C260.378 398.466 260.054 398.709 260.054 398.79Z" fill="white"/>
<path d="M263.133 397.17C263.133 397.17 263.214 396.846 263.214 396.36C263.214 395.793 263.133 395.064 262.728 394.092C262.485 393.687 262.323 393.12 261.675 392.796C261.351 392.634 260.946 392.634 260.622 392.958C260.379 393.201 260.217 393.606 260.217 393.93C260.136 395.307 261.27 396.765 262.809 397.089C264.348 397.332 265.887 396.522 266.616 395.388C266.778 395.064 266.859 394.74 266.778 394.335C266.616 393.93 266.211 393.768 265.887 393.768C265.239 393.849 264.753 394.173 264.348 394.416C263.538 394.983 263.052 395.631 262.728 396.036C262.404 396.522 262.323 396.765 262.323 396.765C262.404 396.846 262.971 395.712 264.51 394.659C264.915 394.416 265.32 394.092 265.806 394.092C266.049 394.092 266.211 394.173 266.292 394.416C266.373 394.578 266.292 394.902 266.13 395.145C265.563 396.117 264.186 396.846 262.809 396.603C261.513 396.36 260.541 395.064 260.541 393.93C260.541 393.687 260.622 393.363 260.784 393.201C260.946 393.039 261.189 393.039 261.351 393.12C261.756 393.282 261.999 393.768 262.242 394.173C263.214 395.955 263.052 397.17 263.133 397.17Z" fill="white"/>
<path d="M327.689 231.688C327.689 231.688 330.362 242.137 329.39 254.773C328.985 259.714 312.461 395.631 312.461 395.631H290.105L296.423 267.895L294.56 268.3C294.56 268.3 282.329 322.813 281.357 331.642C280.466 339.58 270.179 397.17 270.179 397.17L249.687 397.332L256.166 321.193L263.78 248.05L266.615 226.747L327.689 231.688Z" fill="#263238"/>
<path d="M295.532 259.228C295.532 259.228 295.532 259.309 295.694 259.39C295.775 259.471 296.018 259.552 296.261 259.633C296.747 259.795 297.638 259.714 298.367 259.147C299.177 258.58 299.663 257.446 299.825 256.231C299.987 255.016 299.987 253.72 300.068 252.343C300.23 249.589 300.311 247.078 300.392 245.296C300.473 243.514 300.473 242.38 300.392 242.38C300.311 242.38 300.23 243.514 300.068 245.296C299.906 247.078 299.744 249.589 299.582 252.343C299.501 253.72 299.501 255.016 299.339 256.231C299.177 257.365 298.772 258.418 298.124 258.904C297.476 259.471 296.666 259.552 296.261 259.471C295.775 259.39 295.613 259.147 295.532 259.228Z" fill="#455A64"/>
<path d="M262.646 246.025C262.646 246.025 262.889 246.106 263.294 246.268C263.699 246.349 264.347 246.511 265.076 246.592C266.615 246.754 268.802 246.592 270.989 245.701C273.176 244.81 274.877 243.433 275.849 242.218C276.335 241.651 276.74 241.165 276.902 240.76C277.145 240.355 277.226 240.193 277.226 240.193C277.145 240.112 276.659 240.922 275.606 242.056C274.553 243.109 272.933 244.486 270.827 245.296C268.721 246.187 266.615 246.349 265.076 246.268C263.537 246.187 262.646 245.944 262.646 246.025Z" fill="#455A64"/>
<path d="M318.779 240.355C318.698 240.355 318.779 241.246 319.103 242.623C319.427 244 320.156 245.863 321.371 247.645C322.586 249.427 323.963 250.804 325.097 251.695C326.231 252.505 327.041 252.91 327.041 252.91C327.122 252.829 324.044 251.047 321.695 247.483C319.346 243.838 318.941 240.355 318.779 240.355Z" fill="#455A64"/>
<path d="M387.143 201.881L392.327 203.501L401.641 198.398L406.906 213.14L394.271 216.137L384.632 215.084L387.143 201.881Z" fill="#FFBE9D"/>
<path d="M327.446 142.67C327.446 142.67 332.711 145.829 337.004 156.521C345.509 177.581 350.936 188.921 350.936 188.921L390.14 201.314L386.981 217.027C386.981 217.027 347.21 211.52 341.945 209.495C334.655 206.741 329.228 192.404 329.228 192.404L327.446 142.67Z" fill="#E0E0E0"/>
<path d="M316.673 95.5283C318.698 95.6903 320.723 94.0703 321.047 92.0453C321.371 90.0203 319.994 87.9143 318.05 87.3473C319.265 85.9703 319.427 83.8643 318.536 82.3254C317.645 80.7864 315.701 79.8954 313.919 80.3004C313.757 78.5184 312.623 76.8984 311.003 76.1694C309.383 75.4404 307.439 75.5214 305.9 76.4934C303.875 74.9544 300.716 75.0354 298.772 76.7364C297.071 76.4934 295.208 77.5464 294.479 79.0854C293.75 80.7054 294.155 82.7304 295.451 83.8643" fill="#263238"/>
<path d="M298.124 80.8674L299.015 80.7864C308.168 80.3004 316.106 86.9423 317.321 96.0143C318.455 104.438 319.508 113.753 319.67 118.289C319.994 127.685 310.679 129.629 310.679 129.629L312.056 140.888L289.214 141.293L285.164 100.388C283.787 90.8303 288.323 81.9204 298.124 80.8674Z" fill="#FFBE9D"/>
<path d="M310.76 129.71C310.76 129.71 304.766 130.358 298.286 126.713C298.286 126.713 301.526 133.355 310.841 132.059L310.76 129.71Z" fill="#EB996E"/>
<path d="M313.919 104.762C314 105.491 313.433 106.139 312.704 106.22C311.975 106.301 311.327 105.815 311.246 105.086C311.165 104.357 311.732 103.709 312.461 103.628C313.19 103.547 313.838 104.033 313.919 104.762Z" fill="#263238"/>
<path d="M315.458 100.793C315.296 100.955 314.243 100.307 312.785 100.388C311.327 100.469 310.355 101.279 310.112 101.036C310.031 100.955 310.193 100.631 310.598 100.307C311.003 99.9832 311.813 99.5782 312.704 99.5782C313.595 99.5782 314.405 99.8212 314.81 100.145C315.377 100.388 315.539 100.712 315.458 100.793Z" fill="#263238"/>
<path d="M300.716 105.086C300.797 105.815 300.23 106.463 299.501 106.544C298.772 106.625 298.124 106.139 298.043 105.41C297.962 104.681 298.529 104.033 299.258 103.952C299.987 103.871 300.635 104.438 300.716 105.086Z" fill="#263238"/>
<path d="M301.283 101.765C301.121 101.927 300.068 101.279 298.61 101.36C297.152 101.441 296.18 102.251 295.937 102.008C295.856 101.927 296.018 101.603 296.423 101.279C296.828 100.955 297.638 100.55 298.529 100.55C299.42 100.55 300.23 100.793 300.635 101.117C301.202 101.36 301.364 101.684 301.283 101.765Z" fill="#263238"/>
<path d="M307.034 112.214C307.034 112.133 307.925 111.971 309.383 111.647C309.788 111.566 310.112 111.485 310.112 111.242C310.193 110.999 310.031 110.594 309.788 110.189C309.383 109.298 308.978 108.407 308.573 107.435C306.872 103.547 305.576 100.307 305.738 100.226C305.9 100.145 307.439 103.304 309.14 107.192C309.545 108.164 309.95 109.055 310.355 109.946C310.517 110.351 310.76 110.837 310.598 111.404C310.517 111.647 310.274 111.89 310.031 111.971C309.788 112.052 309.626 112.052 309.383 112.052C308.006 112.214 307.034 112.295 307.034 112.214Z" fill="#263238"/>
<path d="M302.255 96.0953C302.093 96.5003 300.797 96.0953 299.258 96.1763C297.719 96.1763 296.423 96.5003 296.261 96.1763C296.18 96.0143 296.423 95.6903 296.99 95.3663C297.557 95.0423 298.367 94.7993 299.258 94.7993C300.149 94.7993 300.959 95.0423 301.526 95.3663C302.093 95.6093 302.336 95.9333 302.255 96.0953Z" fill="#263238"/>
<path d="M315.215 94.7993C314.891 95.1233 313.757 94.8803 312.299 94.8803C310.841 94.8803 309.626 95.2043 309.383 94.8803C309.221 94.7183 309.464 94.3943 309.95 94.0703C310.436 93.7463 311.327 93.4223 312.299 93.4223C313.271 93.4223 314.162 93.6653 314.648 93.9893C315.215 94.3133 315.377 94.6373 315.215 94.7993Z" fill="#263238"/>
<path d="M316.187 91.8023C316.187 91.8023 313.433 86.0513 310.517 84.8363C307.034 83.3783 305.738 87.1853 302.417 86.4563C299.096 85.7273 295.694 84.2693 292.535 86.9423C288.971 89.8583 290.834 91.7213 290.834 95.9333C290.753 112.862 287.918 117.803 286.622 109.946C286.46 109.055 284.03 108.488 283.463 104.843C282.734 100.064 282.248 94.3133 283.22 90.8303C283.949 87.9143 285.488 85.8893 288.323 83.5403C292.778 79.8954 299.096 79.4904 303.47 79.7334C307.601 79.8954 316.187 84.4313 316.187 91.8023Z" fill="#263238"/>
<path d="M287.108 109.622C286.946 108.164 285.65 107.111 284.192 107.273C282.41 107.516 280.547 108.65 280.871 112.214C281.357 118.613 287.756 116.75 287.756 116.588C287.675 116.507 287.351 112.295 287.108 109.622Z" fill="#FFBE9D"/>
<path d="M286.136 114.32C286.136 114.32 286.055 114.401 285.812 114.482C285.65 114.563 285.326 114.644 285.002 114.563C284.273 114.401 283.625 113.348 283.544 112.214C283.463 111.647 283.544 111.08 283.706 110.594C283.868 110.108 284.111 109.784 284.516 109.703C284.84 109.622 285.083 109.784 285.164 109.946C285.245 110.108 285.245 110.27 285.245 110.27C285.245 110.27 285.407 110.189 285.326 109.865C285.326 109.703 285.164 109.622 285.002 109.46C284.84 109.379 284.597 109.298 284.354 109.379C283.868 109.46 283.463 109.946 283.301 110.432C283.058 110.999 282.977 111.566 283.058 112.214C283.22 113.51 283.949 114.644 284.921 114.887C285.407 114.968 285.731 114.806 285.893 114.644C286.136 114.482 286.136 114.32 286.136 114.32Z" fill="#EB996E"/>
<path d="M286.541 97.1483C287.432 97.7153 288.323 98.2013 289.295 98.2823C290.267 98.3633 291.401 97.7153 291.563 96.6623C291.644 96.1763 291.482 95.6903 291.725 95.3663C292.049 94.9613 292.697 95.0423 293.264 95.0423C295.127 95.1233 297.233 92.9363 297.638 91.1543C298.124 91.8833 299.177 92.0453 299.906 91.4783C300.635 90.9923 300.878 90.6683 301.364 90.0203C301.931 89.3723 302.66 88.7243 303.551 88.8053C304.037 88.8863 304.523 89.1293 304.928 89.0483C305.738 88.9673 306.143 87.9143 306.224 87.1043C306.305 86.2943 306.386 85.2413 307.034 84.7553C307.682 84.2693 308.573 84.5123 309.302 84.5933C310.112 84.6743 311.084 84.4313 311.246 83.7023C311.327 83.2974 311.165 82.8924 310.922 82.5684C309.869 81.0294 307.601 80.4624 305.9 81.2724C305.171 79.1664 303.065 77.6274 300.878 77.4654C298.691 77.3034 296.423 78.6804 295.451 80.6244C293.993 79.4904 292.049 79.0044 290.267 79.5714C288.485 80.0574 287.027 81.4344 286.379 83.2164C284.759 82.8924 283.058 83.5403 282.086 84.9173C281.195 86.2133 281.114 88.1573 282.005 89.5343C280.871 90.2633 279.98 91.4783 279.98 92.7743C280.061 94.0703 281.357 95.3663 282.653 94.9613C282.167 96.0143 282.653 97.3913 283.706 97.9583C284.759 98.5253 286.136 98.0393 286.703 97.0673" fill="#263238"/>
<path d="M306.629 83.0544C306.629 83.0544 306.629 83.0544 306.629 83.1354C306.629 83.2163 306.629 83.2974 306.629 83.4593C306.548 83.7833 306.467 84.1883 306.224 84.7553C305.981 85.2413 305.576 85.8893 304.847 86.3753C304.199 86.8613 303.308 87.2663 302.255 87.2663L302.336 87.1043C302.579 87.6713 302.579 88.3193 302.255 88.8863C302.012 89.4533 301.607 90.0203 301.202 90.5063C300.959 90.7493 300.797 91.0733 300.554 91.3163C300.23 91.5593 299.906 91.7213 299.582 91.7213C298.853 91.8833 298.043 91.6403 297.476 91.0733L297.719 90.9923C297.638 92.2883 296.99 93.5843 295.856 94.3943C295.289 94.8803 294.56 95.2043 293.75 95.2043C293.021 95.2043 292.292 95.0423 291.644 94.8803L291.806 94.7993C291.482 95.6093 290.996 96.3383 290.348 96.8243C289.7 97.3913 288.89 97.7153 288.161 97.5533C286.622 97.3103 285.569 96.0953 285.326 94.8803L285.488 94.9613C284.759 95.4473 283.949 95.5283 283.301 95.3663C282.653 95.2853 282.086 95.0423 281.762 94.7183C281.357 94.4753 281.114 94.1513 281.033 93.9893C280.871 93.7463 280.871 93.6653 280.871 93.6653C280.871 93.6653 281.114 94.1513 281.843 94.6373C282.248 94.8803 282.734 95.1233 283.382 95.2043C284.03 95.2853 284.759 95.2043 285.488 94.7183L285.569 94.6373V94.7993C285.812 95.9333 286.865 97.0673 288.242 97.2293C288.971 97.3913 289.7 97.0673 290.267 96.5813C290.834 96.0953 291.32 95.3663 291.644 94.6373L291.725 94.4753H291.887C292.535 94.6373 293.183 94.8803 293.912 94.7993C294.641 94.7993 295.289 94.4753 295.856 94.0703C296.909 93.2603 297.557 92.0453 297.638 90.8303V90.5063L297.881 90.7493C298.367 91.2353 299.096 91.3973 299.744 91.3163C300.068 91.2353 300.392 91.1543 300.635 90.9113C300.878 90.7493 301.04 90.4253 301.283 90.1823C301.688 89.6963 302.093 89.1293 302.255 88.6433C302.498 88.0763 302.498 87.5093 302.336 87.0233L302.255 86.8613H302.417C303.389 86.8613 304.28 86.5373 304.928 86.0513C305.576 85.5653 305.981 84.9983 306.305 84.5123C306.629 83.7023 306.548 83.0544 306.629 83.0544Z" fill="#455A64"/>
<path d="M306.953 117.155C306.872 116.912 305.333 117.317 303.875 116.264C302.417 115.211 302.174 113.51 301.931 113.591C301.85 113.591 301.688 114.077 301.931 114.725C302.093 115.454 302.579 116.345 303.47 116.993C304.361 117.641 305.333 117.722 306.062 117.641C306.71 117.56 307.034 117.236 306.953 117.155Z" fill="#263238"/>
<path d="M345.185 176.609C345.023 176.123 336.68 153.281 334.007 148.34C330.848 142.346 324.125 139.754 319.913 139.511C315.782 139.268 271.07 142.832 271.07 142.832C271.07 142.832 257.705 145.829 256.004 157.25C254.06 170.453 252.359 200.666 252.359 200.666L272.69 190.217L275.282 183.575L317.321 192.971L327.608 177.824L345.185 176.609Z" fill="#E0E0E0"/>
<path d="M268.154 144.047L285.569 136.352L287.513 128.819L307.844 138.458L312.137 133.76L313.919 139.106L318.374 140.564L328.823 158.87V197.912L330.929 231.607L328.661 236.953L309.95 239.707C307.925 240.031 305.819 240.031 303.794 239.707L265.886 233.551L264.914 222.454L268.964 191.756L268.154 144.047Z" fill="#E0E0E0"/>
<path d="M287.513 128.9C287.513 128.9 289.781 129.548 295.613 132.707C301.364 135.785 307.844 138.539 307.844 138.539L307.358 147.692L285.731 136.838" fill="#E0E0E0"/>
<path d="M312.137 133.76L307.844 138.458L310.193 148.34L313.919 139.43" fill="#E0E0E0"/>
<g opacity="0.3">
<path d="M307.925 139.511C308.087 139.673 309.302 150.851 309.302 150.851L287.594 137.729L307.358 147.611L307.925 139.511Z" fill="black"/>
</g>
<path d="M307.844 181.388C307.52 172.802 308.897 150.932 308.897 150.932L311.732 150.446C311.732 150.446 316.997 171.749 319.022 197.831C319.832 208.361 319.832 220.591 319.832 220.591L314.162 232.822L307.844 220.672C307.763 220.753 308.168 191.837 307.844 181.388Z" fill="#455A64"/>
<path d="M266.858 145.424C266.858 145.505 267.425 145.91 268.316 146.882C269.207 147.773 270.26 149.15 271.232 150.851C272.123 152.552 272.69 154.253 272.933 155.468C273.176 156.683 273.257 157.493 273.338 157.493C273.338 157.493 273.338 157.331 273.338 156.926C273.338 156.602 273.257 156.035 273.176 155.387C272.933 154.091 272.447 152.39 271.556 150.689C270.665 148.988 269.45 147.611 268.559 146.72C268.073 146.315 267.668 145.91 267.425 145.748C267.02 145.505 266.858 145.424 266.858 145.424Z" fill="#263238"/>
<path d="M307.844 142.913L309.707 142.103L311.57 145.262L311.894 150.446L309.302 150.851L307.358 147.692L307.844 142.913Z" fill="#455A64"/>
<path d="M328.742 158.303C328.661 158.303 328.58 169.481 328.58 183.332C328.58 197.183 328.661 208.361 328.742 208.361C328.823 208.361 328.904 197.183 328.904 183.332C328.904 169.481 328.823 158.303 328.742 158.303Z" fill="#263238"/>
<path d="M307.682 138.377C307.682 138.377 308.087 139.106 308.816 140.24C309.464 141.374 310.436 142.994 311.246 144.857C311.327 145.019 311.408 145.181 311.489 145.262L311.651 145.586L311.813 145.262C312.623 143.48 313.271 141.86 313.595 140.645C313.757 140.078 313.919 139.592 314 139.187C314.081 138.863 314.081 138.62 314.081 138.62C314 138.62 313.838 139.349 313.352 140.483C312.947 141.617 312.299 143.237 311.489 145.019H311.732C311.651 144.857 311.57 144.695 311.489 144.533C310.598 142.67 309.707 141.05 308.897 139.916C308.492 139.349 308.249 138.944 308.006 138.62C307.844 138.539 307.682 138.377 307.682 138.377Z" fill="#263238"/>
<path d="M285.569 136.433C285.569 136.433 285.65 136.514 285.893 136.595C286.136 136.676 286.379 136.838 286.784 137.081C287.594 137.486 288.647 138.053 290.024 138.782C292.778 140.24 296.504 142.184 300.635 144.452C303.146 145.829 305.576 147.044 307.601 148.097L307.763 148.178V147.935C307.763 145.262 307.844 142.994 307.844 141.293C307.844 140.483 307.844 139.916 307.844 139.43C307.844 139.025 307.844 138.782 307.844 138.782C307.844 138.782 307.844 139.025 307.763 139.43C307.763 139.916 307.682 140.483 307.682 141.293C307.601 142.913 307.601 145.181 307.52 147.935L307.682 147.854C305.576 146.801 303.227 145.505 300.716 144.209C296.585 142.022 292.778 139.997 290.024 138.62C288.647 137.972 287.513 137.405 286.703 137C286.298 136.838 286.055 136.676 285.812 136.595C285.65 136.433 285.569 136.352 285.569 136.433Z" fill="#263238"/>
<path d="M326.15 143.48C326.069 143.48 326.474 144.047 326.879 145.1C327.284 146.072 327.851 147.449 328.094 149.069C328.418 150.689 328.418 152.147 328.337 153.281C328.256 154.334 328.175 154.982 328.175 155.063C328.175 155.063 328.256 154.901 328.337 154.577C328.418 154.253 328.499 153.848 328.499 153.281C328.58 152.228 328.661 150.689 328.337 149.069C328.013 147.449 327.446 145.991 326.96 145.019C326.717 144.533 326.474 144.128 326.312 143.885C326.312 143.561 326.15 143.48 326.15 143.48Z" fill="#263238"/>
<path d="M309.788 151.256C309.869 151.337 310.355 151.094 310.922 150.77C311.489 150.446 311.894 150.041 311.894 149.96C311.813 149.879 311.327 150.122 310.76 150.446C310.193 150.77 309.788 151.175 309.788 151.256Z" fill="#263238"/>
<path d="M308.897 149.96C308.978 149.96 309.545 148.826 310.193 147.368C310.841 145.91 311.327 144.695 311.246 144.614C311.165 144.614 310.598 145.748 309.95 147.206C309.221 148.664 308.816 149.879 308.897 149.96Z" fill="#263238"/>
<path d="M264.59 145.991C264.59 145.991 257.867 150.851 257.057 153.524C256.248 156.197 252.684 199.613 252.036 204.797C251.388 209.981 250.74 219.619 254.789 222.778C258.758 225.937 267.425 228.286 267.425 228.286L275.363 211.844L271.151 203.015L275.363 170.048L264.59 145.991Z" fill="#E0E0E0"/>
<path d="M265.4 227.638C265.4 227.638 265.562 227.638 265.805 227.638C266.048 227.638 266.534 227.638 267.02 227.557C268.073 227.395 269.693 227.152 271.313 226.018C272.933 224.884 274.472 222.94 275.444 220.429C276.416 217.919 276.983 214.841 276.983 211.601V211.682C275.039 209.009 273.014 206.174 270.827 203.177L270.746 203.096V203.015C270.746 202.772 270.827 202.529 270.827 202.286C272.042 193.052 273.095 184.709 273.905 178.553C274.31 175.556 274.634 173.126 274.877 171.344C274.958 170.534 275.039 169.886 275.12 169.4C275.201 168.995 275.201 168.752 275.201 168.752C275.201 168.752 275.201 168.833 275.201 168.914C275.201 168.995 275.201 169.238 275.201 169.4C275.12 169.886 275.12 170.534 275.039 171.344C274.877 173.045 274.634 175.475 274.229 178.553C273.5 184.628 272.447 193.052 271.313 202.286C271.313 202.529 271.232 202.772 271.232 203.015V202.853C273.419 205.85 275.444 208.766 277.388 211.439V211.52V211.601C277.307 214.922 276.74 218 275.768 220.591C274.796 223.183 273.176 225.208 271.475 226.261C270.665 226.828 269.774 227.152 269.045 227.395C268.883 227.476 268.64 227.476 268.478 227.557C268.316 227.557 268.154 227.638 267.992 227.638C267.668 227.719 267.344 227.719 267.101 227.719C266.534 227.8 266.129 227.719 265.886 227.719C265.562 227.719 265.4 227.638 265.4 227.638Z" fill="#263238"/>
<path d="M257.3 206.012C257.3 206.012 257.867 205.445 259.082 204.797C260.216 204.149 261.998 203.42 264.023 203.015C266.048 202.61 267.911 202.691 269.288 202.853C270.584 203.015 271.394 203.339 271.394 203.339C271.394 203.501 268.154 202.61 264.104 203.42C260.054 204.149 257.3 206.174 257.3 206.012Z" fill="#263238"/>
<path d="M309.95 162.839C309.95 162.839 310.355 164.297 310.922 166.808C312.299 164.864 314.081 163.163 316.106 161.867C316.106 161.867 326.474 151.58 329.795 140.726C332.225 132.869 331.577 124.121 331.577 124.121C331.496 123.716 330.686 119.99 330.038 116.993C329.471 114.482 331.01 112.052 333.44 111.404C338.624 110.027 352.556 107.273 355.715 116.669C360.494 130.601 352.799 145.748 352.88 150.041C352.88 150.851 352.88 151.499 352.88 152.066C356.93 151.094 360.17 150.446 360.17 150.527L386.98 144.29C386.98 144.29 395.89 141.617 398.887 150.689C401.965 159.761 391.597 162.839 391.597 162.839C391.597 162.839 396.457 162.596 397.753 170.858C399.049 179.12 390.22 181.793 390.22 181.793C390.22 181.793 395.647 181.469 397.024 188.759C398.401 195.887 389.491 200.18 389.086 200.423C390.382 200.18 391.192 200.018 391.192 200.018C391.192 200.018 390.625 200.261 389.572 200.504C393.703 201.071 394.27 205.931 394.27 205.931C396.943 216.055 389.167 218.161 389.167 218.161L340.325 229.663C335.384 230.797 330.281 230.635 325.583 229.096C326.069 231.202 326.312 232.336 326.312 232.336L292.049 240.355C291.968 240.355 288.242 224.803 283.787 205.607C279.332 186.41 275.687 170.777 275.768 170.777L309.95 162.839Z" fill="#26C7BC"/>
<g opacity="0.3">
<path d="M309.95 162.839C309.95 162.839 310.355 164.297 310.922 166.808C312.299 164.864 314.081 163.163 316.106 161.867C316.106 161.867 326.474 151.58 329.795 140.726C332.225 132.869 331.577 124.121 331.577 124.121C331.496 123.716 330.686 119.99 330.038 116.993C329.471 114.482 331.01 112.052 333.44 111.404C338.624 110.027 352.556 107.273 355.715 116.669C360.494 130.601 352.799 145.748 352.88 150.041C352.88 150.851 352.88 151.499 352.88 152.066C356.93 151.094 360.17 150.446 360.17 150.527L386.98 144.29C386.98 144.29 395.89 141.617 398.887 150.689C401.965 159.761 391.597 162.839 391.597 162.839C391.597 162.839 396.457 162.596 397.753 170.858C399.049 179.12 390.22 181.793 390.22 181.793C390.22 181.793 395.647 181.469 397.024 188.759C398.401 195.887 389.491 200.18 389.086 200.423C390.382 200.18 391.192 200.018 391.192 200.018C391.192 200.018 390.625 200.261 389.572 200.504C393.703 201.071 394.27 205.931 394.27 205.931C396.943 216.055 389.167 218.161 389.167 218.161L340.325 229.663C335.384 230.797 330.281 230.635 325.583 229.096C326.069 231.202 326.312 232.336 326.312 232.336L292.049 240.355C291.968 240.355 288.242 224.803 283.787 205.607C279.332 186.41 275.687 170.777 275.768 170.777L309.95 162.839Z" fill="black"/>
</g>
<path d="M316.592 172.559L315.944 177.014L326.879 223.912C333.359 228.205 341.297 229.663 348.911 227.881L397.916 216.46C397.916 216.46 405.691 214.354 403.019 204.23C403.019 204.23 402.371 198.884 397.754 198.722C397.754 198.722 407.15 194.348 405.773 187.058C404.396 179.768 398.969 180.092 398.969 180.092C398.969 180.092 407.878 177.419 406.502 169.157C405.206 160.895 400.346 161.138 400.346 161.138C400.346 161.138 410.632 158.141 407.635 148.988C404.558 139.916 395.729 142.589 395.729 142.589L360.899 150.689L330.362 157.817C323.072 159.437 317.645 165.35 316.592 172.559Z" fill="#26C7BC"/>
<path d="M324.692 160.085C324.692 160.085 335.06 149.798 338.381 138.944C340.811 131.087 340.163 122.339 340.163 122.339C340.082 121.934 339.272 118.208 338.624 115.211C338.057 112.7 339.596 110.27 342.026 109.622C347.21 108.245 356.444 110.756 359.684 120.152C364.463 134.084 361.385 143.966 361.466 148.259C361.547 152.552 361.547 152.552 361.547 152.552L324.692 160.085Z" fill="#26C7BC"/>
<path d="M318.546 161.088L284.313 169.082L300.559 238.652L334.792 230.658L318.546 161.088Z" fill="#26C7BC"/>
<path d="M334.817 230.635C334.898 230.635 331.334 215.002 326.798 195.806C322.343 176.609 318.617 161.057 318.536 161.057C318.455 161.057 322.019 176.69 326.555 195.887C331.091 215.083 334.736 230.635 334.817 230.635Z" fill="#263238"/>
<path d="M300.554 238.573C300.635 238.573 297.071 222.94 292.535 203.744C288.08 184.547 284.354 168.995 284.273 168.995C284.192 168.995 287.756 184.628 292.292 203.825C296.828 223.021 300.554 238.573 300.554 238.573Z" fill="#263238"/>
<path d="M310.193 179.768C311.003 183.332 308.816 186.815 305.252 187.706C301.688 188.516 298.205 186.329 297.314 182.765C296.504 179.201 298.691 175.718 302.255 174.827C305.819 174.017 309.383 176.285 310.193 179.768Z" fill="white"/>
<path d="M368.837 148.745C368.837 148.664 365.111 149.474 360.494 150.527C355.877 151.58 352.151 152.552 352.151 152.633C352.151 152.714 355.877 151.904 360.494 150.851C365.111 149.798 368.837 148.826 368.837 148.745Z" fill="#263238"/>
<path d="M399.698 180.173C399.698 180.092 397.268 180.578 394.352 181.307C391.436 181.955 389.006 182.603 389.087 182.684C389.087 182.765 391.517 182.279 394.433 181.55C397.349 180.902 399.698 180.254 399.698 180.173Z" fill="#263238"/>
<path d="M400.913 160.733C400.913 160.652 397.511 161.381 393.299 162.353C389.087 163.325 385.766 164.216 385.766 164.216C385.766 164.297 389.168 163.568 393.38 162.596C397.592 161.624 400.913 160.733 400.913 160.733Z" fill="#263238"/>
<path d="M399.94 198.236C399.94 198.155 396.538 198.884 392.326 199.856C388.114 200.828 384.793 201.719 384.793 201.719C384.793 201.8 388.195 201.071 392.407 200.099C396.538 199.208 399.94 198.317 399.94 198.236Z" fill="#263238"/>
<g opacity="0.3">
<path d="M342.35 113.105C341.297 114.077 341.135 115.778 341.54 117.155C341.945 118.532 342.755 119.747 343.403 121.124C344.78 124.04 345.185 127.361 344.537 130.52C344.294 131.492 344.051 132.626 344.699 133.355C345.59 134.408 347.372 133.841 348.425 132.95C352.637 129.71 354.581 123.959 353.366 118.775C352.799 116.588 351.665 114.563 349.883 113.186C348.182 111.971 345.428 110.756 342.35 113.105Z" fill="white"/>
</g>
<g opacity="0.3">
<path d="M398.888 143.723C397.673 143.48 396.458 143.804 395.243 144.128C388.358 145.91 381.473 147.611 374.588 149.393C372.32 149.96 368.108 150.446 368.027 152.795C367.541 154.091 368.513 155.468 369.728 155.954C370.943 156.44 372.401 156.278 373.697 156.116C376.451 155.711 379.205 155.063 381.959 154.415C387.467 153.119 392.894 151.742 398.159 149.636C398.969 149.312 399.698 148.988 400.346 148.421C400.994 147.854 401.399 147.044 401.399 146.234C401.237 144.857 400.103 143.966 398.888 143.723Z" fill="white"/>
</g>
<path d="M311.003 164.864C311.003 164.783 306.224 165.836 300.311 167.213C294.398 168.59 289.619 169.805 289.619 169.805C289.619 169.886 294.398 168.833 300.311 167.456C306.224 166.16 311.003 164.945 311.003 164.864Z" fill="white"/>
<path d="M403.343 172.802C403.343 172.802 403.424 172.64 403.505 172.397C403.586 172.154 403.667 171.749 403.667 171.263C403.748 170.777 403.667 170.21 403.586 169.562C403.505 168.914 403.343 168.185 403.019 167.537C402.695 166.808 402.371 166.241 401.966 165.674C401.561 165.107 401.156 164.702 400.832 164.378C400.427 164.054 400.184 163.811 399.941 163.649C399.698 163.487 399.536 163.406 399.536 163.487C399.536 163.568 400.022 163.892 400.67 164.54C400.994 164.864 401.399 165.35 401.723 165.836C402.047 166.403 402.452 166.97 402.695 167.618C402.938 168.266 403.1 168.995 403.262 169.562C403.343 170.21 403.424 170.777 403.343 171.263C403.424 172.154 403.262 172.802 403.343 172.802Z" fill="white"/>
<path d="M404.315 154.01C404.315 154.01 404.639 153.686 404.963 153.119C405.287 152.471 405.53 151.499 405.449 150.446C405.368 149.393 404.963 148.421 404.639 147.854C404.234 147.287 403.91 147.044 403.91 147.044C403.91 147.044 404.153 147.368 404.477 147.935C404.801 148.502 405.125 149.393 405.206 150.446C405.287 151.499 405.044 152.39 404.801 153.038C404.477 153.605 404.234 153.929 404.315 154.01Z" fill="white"/>
<path d="M401.723 193.052C401.723 193.052 402.209 192.809 402.614 192.161C403.1 191.513 403.505 190.46 403.505 189.164C403.424 187.949 402.857 186.896 402.29 186.329C401.723 185.762 401.237 185.519 401.237 185.519C401.237 185.519 401.642 185.843 402.128 186.41C402.614 186.977 403.181 188.03 403.181 189.164C403.262 190.379 402.857 191.351 402.452 191.999C402.047 192.647 401.642 192.971 401.723 193.052Z" fill="white"/>
<path d="M398.563 211.195C398.563 211.195 398.888 210.871 399.212 210.223C399.536 209.575 399.779 208.603 399.698 207.469C399.617 206.336 399.292 205.364 398.968 204.797C398.644 204.149 398.321 203.825 398.24 203.906C398.24 203.906 398.483 204.311 398.807 204.878C399.131 205.525 399.373 206.417 399.454 207.469C399.535 208.522 399.292 209.494 399.049 210.142C398.806 210.79 398.563 211.114 398.563 211.195Z" fill="white"/>
<path d="M360.089 136.595C360.089 136.595 360.17 136.352 360.332 135.785C360.413 135.542 360.494 135.218 360.494 134.813C360.575 134.408 360.656 134.003 360.656 133.517C360.737 132.545 360.818 131.492 360.818 130.196C360.737 128.981 360.656 127.604 360.332 126.146C360.089 124.769 359.684 123.392 359.279 122.258C358.874 121.124 358.388 120.071 357.902 119.261C357.659 118.856 357.497 118.451 357.254 118.127C357.092 117.803 356.849 117.56 356.768 117.317C356.444 116.912 356.282 116.669 356.282 116.669C356.282 116.669 356.444 116.912 356.687 117.398C356.849 117.641 357.011 117.884 357.173 118.208C357.335 118.532 357.578 118.937 357.74 119.342C358.145 120.152 358.631 121.205 359.036 122.339C359.441 123.473 359.846 124.85 360.089 126.227C360.332 127.604 360.494 128.981 360.575 130.196C360.656 131.411 360.575 132.545 360.494 133.517C360.494 134.003 360.413 134.408 360.332 134.813C360.332 135.218 360.251 135.461 360.17 135.785C360.089 136.352 360.089 136.595 360.089 136.595Z" fill="white"/>
<path d="M281.924 218.647C281.924 218.647 284.597 216.541 286.622 216.46C288.647 216.379 291.239 217.189 291.725 216.865C292.211 216.622 293.426 215.488 294.236 216.46C295.046 217.432 295.937 220.915 291.806 221.887H288.971C288.971 221.887 289.295 224.722 290.024 225.856C290.753 226.99 300.473 239.221 300.473 239.221C300.473 239.221 301.688 240.436 301.121 241.651C300.473 242.866 297.881 242.137 297.881 242.137C297.881 242.137 296.018 243.757 293.993 243.028C291.968 242.299 291.077 241.651 291.077 241.651C291.077 241.651 288.809 243.514 286.379 241.651C283.949 239.788 275.849 229.663 275.849 229.663L278.765 218.323L281.924 218.647Z" fill="#FFBE9D"/>
<path d="M273.5 211.924L281.924 218.647L275.687 229.663L263.294 225.208C263.375 225.208 263.699 212.167 273.5 211.924Z" fill="#FFBE9D"/>
<path d="M405.124 196.94C405.124 196.94 404.881 193.943 403.18 194.51C401.479 195.158 400.75 198.722 400.75 198.722L405.124 196.94Z" fill="#FFBE9D"/>
<path d="M399.13 199.937C399.13 199.937 402.046 196.616 406.177 196.94C410.227 197.183 407.716 200.666 407.716 200.666C407.716 200.666 410.713 202.529 408.526 205.202L408.202 205.931C408.202 205.931 410.794 206.903 408.121 209.657C408.121 209.657 409.093 211.439 407.797 212.735C406.501 214.031 403.099 212.33 403.099 212.33C403.099 212.33 400.021 213.059 399.778 211.763C399.535 210.548 400.183 209.657 400.507 209.414C400.75 209.252 402.37 208.604 402.37 208.604C402.37 208.604 398.806 209.009 398.725 208.199C398.644 207.308 398.32 206.336 400.912 205.445L402.37 205.04C402.37 205.04 398.644 205.121 398.644 204.23C398.644 203.339 398.482 203.015 399.778 202.367C401.074 201.719 402.208 201.071 402.208 201.071C402.208 201.071 398.563 201.8 399.13 199.937Z" fill="#FFBE9D"/>
<path d="M398.401 203.42C398.482 203.501 400.102 201.881 402.775 201.152C405.448 200.342 407.716 200.909 407.716 200.747C407.716 200.747 407.149 200.504 406.258 200.423C405.367 200.342 404.071 200.423 402.694 200.747C401.317 201.152 400.183 201.8 399.454 202.286C398.806 202.934 398.401 203.339 398.401 203.42Z" fill="#EB996E"/>
<path d="M398.887 208.523C398.887 208.523 398.806 208.442 398.725 208.199C398.644 208.037 398.644 207.632 398.725 207.308C398.887 206.903 399.049 206.498 399.535 206.174C399.94 205.85 400.507 205.607 401.155 205.526C403.666 204.959 405.853 205.04 405.853 204.959C405.853 204.878 405.367 204.797 404.476 204.797C403.585 204.797 402.451 204.878 401.155 205.121C400.507 205.283 399.859 205.526 399.454 205.85C398.968 206.174 398.725 206.741 398.563 207.146C398.482 207.551 398.563 207.956 398.644 208.199C398.725 208.442 398.806 208.523 398.887 208.523Z" fill="#EB996E"/>
<path d="M400.345 212.411C400.345 212.411 400.183 212.33 400.021 212.168C399.859 212.006 399.616 211.682 399.616 211.277C399.535 210.872 399.697 210.305 400.102 209.981C400.507 209.657 401.236 209.414 401.884 209.171C403.18 208.766 404.557 209.009 405.448 209.009C406.42 209.009 406.987 209.009 406.987 208.928C406.987 208.847 406.42 208.847 405.448 208.766C404.557 208.685 403.18 208.442 401.803 208.847C401.074 209.09 400.507 209.333 399.94 209.738C399.697 209.981 399.535 210.224 399.454 210.548C399.373 210.872 399.373 211.115 399.454 211.358C399.535 211.844 399.859 212.168 400.102 212.33C400.183 212.411 400.345 212.411 400.345 212.411Z" fill="#EB996E"/>
<path d="M399.049 200.099C399.049 200.099 399.13 200.018 399.292 199.856C399.454 199.694 399.778 199.451 400.102 199.208C400.831 198.722 401.884 197.993 403.099 197.588C404.395 197.183 405.61 196.94 406.42 197.102C407.311 197.264 407.716 197.588 407.797 197.507C407.797 197.507 407.392 197.102 406.501 196.859C405.61 196.616 404.314 196.859 403.018 197.264C400.345 198.155 398.806 199.937 399.049 200.099Z" fill="#EB996E"/>
</svg>
