<svg width="36" height="36" viewBox="0 0 36 36" fill="none" xmlns="http://www.w3.org/2000/svg">
<g clip-path="url(#clip0_1222_15288)">
<path d="M28.0883 3.62186L18.9519 0.575398C18.6527 0.475763 18.3294 0.475763 18.0302 0.575398L8.89377 3.62186C7.44113 4.10439 6.1775 5.03244 5.28241 6.27414C4.38733 7.51584 3.90632 9.00805 3.90773 10.5387V18.001C3.90773 29.0304 17.3244 35.1219 17.899 35.3756C18.0854 35.4584 18.2871 35.5012 18.4911 35.5012C18.695 35.5012 18.8967 35.4584 19.0831 35.3756C19.6577 35.1219 33.0744 29.0304 33.0744 18.001V10.5387C33.0758 9.00805 32.5948 7.51584 31.6997 6.27414C30.8046 5.03244 29.541 4.10439 28.0883 3.62186ZM30.1577 18.001C30.1577 25.9562 20.9425 31.1741 18.4911 32.4225C16.0367 31.1785 6.82439 25.9766 6.82439 18.001V10.5387C6.82448 9.62039 7.11354 8.72535 7.65063 7.98044C8.18772 7.23553 8.9456 6.67851 9.81689 6.38831L18.4911 3.49644L27.1652 6.38831C28.0365 6.67851 28.7944 7.23553 29.3315 7.98044C29.8686 8.72535 30.1576 9.62039 30.1577 10.5387V18.001Z" fill="url(#paint0_linear_1222_15288)"/>
<path d="M23.3033 12.6046L17.1958 18.7297L13.9233 15.3171C13.792 15.1736 13.6332 15.0577 13.4564 14.9764C13.2797 14.8951 13.0884 14.85 12.8939 14.8438C12.6994 14.8376 12.5056 14.8703 12.324 14.9401C12.1423 15.01 11.9765 15.1154 11.8363 15.2503C11.696 15.3852 11.5842 15.5468 11.5073 15.7256C11.4305 15.9044 11.3902 16.0967 11.3889 16.2913C11.3876 16.4859 11.4252 16.6788 11.4995 16.8586C11.5739 17.0385 11.6835 17.2016 11.8219 17.3384L15.1848 20.8384C15.4356 21.1093 15.7387 21.3265 16.0758 21.4769C16.413 21.6273 16.7771 21.7078 17.1462 21.7134H17.1944C17.5561 21.7146 17.9145 21.6439 18.2487 21.5055C18.5829 21.3671 18.8863 21.1636 19.1412 20.907L25.3712 14.6769C25.5073 14.5412 25.6153 14.3799 25.689 14.2024C25.7628 14.0249 25.8009 13.8346 25.8011 13.6423C25.8013 13.4501 25.7636 13.2597 25.6902 13.0821C25.6169 12.9044 25.5092 12.7429 25.3734 12.6068C25.2376 12.4708 25.0764 12.3628 24.8989 12.289C24.7214 12.2153 24.5311 12.1772 24.3388 12.177C24.1466 12.1768 23.9562 12.2145 23.7785 12.2878C23.6009 12.3612 23.4394 12.4689 23.3033 12.6046Z" fill="url(#paint1_linear_1222_15288)"/>
</g>
<defs>
<linearGradient id="paint0_linear_1222_15288" x1="3.67731" y1="35.5012" x2="37.3175" y2="30.7885" gradientUnits="userSpaceOnUse">
<stop stop-color="#ADE6E0"/>
<stop offset="1" stop-color="#26C7BC"/>
</linearGradient>
<linearGradient id="paint1_linear_1222_15288" x1="11.275" y1="21.7134" x2="27.1962" y2="17.6684" gradientUnits="userSpaceOnUse">
<stop stop-color="#ADE6E0"/>
<stop offset="1" stop-color="#26C7BC"/>
</linearGradient>
<clipPath id="clip0_1222_15288">
<rect width="35" height="35" fill="white" transform="translate(0.990906 0.5)"/>
</clipPath>
</defs>
</svg>
