<svg width="184" height="30" viewBox="0 0 184 30" fill="none" xmlns="http://www.w3.org/2000/svg">
<path fill-rule="evenodd" clip-rule="evenodd" d="M147.762 17.6119C147.762 17.0148 147.762 16.5671 147.911 15.9701C148.06 15.5223 148.209 14.9253 148.359 14.4775C148.508 14.0298 148.806 13.582 149.105 13.1342C149.404 12.6865 149.702 12.2387 150.001 11.9402C150.299 11.6417 150.747 11.1939 151.195 10.8954C151.642 10.5969 152.09 10.2984 152.538 10.1492C152.986 9.99991 153.583 9.85068 154.18 9.70142C154.777 9.55217 155.374 9.55216 155.971 9.55216C156.568 9.55216 157.015 9.55217 157.612 9.70142C157.911 9.70142 158.06 9.85066 158.359 9.85066C158.657 9.85066 158.807 9.99991 159.105 10.1492C159.254 10.2984 159.553 10.2984 159.702 10.4477C159.851 10.5969 160.15 10.7462 160.299 10.7462L160.448 10.8954L160.598 9.85066H164.478V25.2238H160.448L160.299 24.1791L160.15 24.3283C160.001 24.4775 159.702 24.6268 159.553 24.6268C159.404 24.7761 159.105 24.7761 158.956 24.9253C158.807 25.0746 158.508 25.0746 158.209 25.2238C157.911 25.3731 157.762 25.3731 157.463 25.3731C157.165 25.3731 156.866 25.5223 156.717 25.5223C156.418 25.5223 156.12 25.5223 155.821 25.5223C155.224 25.5223 154.627 25.5223 154.18 25.3731C153.583 25.2238 153.135 25.0746 152.538 24.9253C152.09 24.7761 151.642 24.4776 151.195 24.1791C150.747 23.8805 150.299 23.582 150.001 23.1343C149.702 22.8358 149.254 22.388 149.105 21.9402C148.806 21.4925 148.657 21.0447 148.359 20.5969C148.209 20.1492 148.06 19.5522 147.911 19.1044C147.762 18.6566 147.762 18.0596 147.762 17.6119ZM62.8362 17.6119C62.8362 17.0148 62.8362 16.5671 62.9855 15.9701C63.1347 15.5223 63.284 14.9253 63.4333 14.4775C63.5825 14.0298 63.881 13.582 64.1795 13.1342C64.478 12.6865 64.7765 12.2387 65.2243 11.9402C65.6721 11.6417 65.9706 11.1939 66.4183 10.8954C66.8661 10.5969 67.3138 10.2984 67.7616 10.1492C68.2094 9.99991 68.8064 9.85068 69.4034 9.70142C70.0004 9.55217 70.5974 9.55216 71.1945 9.55216C71.7915 9.55216 72.3885 9.55217 72.9855 9.70142C73.5825 9.85068 74.0303 9.99991 74.6273 10.1492C75.0751 10.2984 75.6721 10.5969 76.1198 10.8954C76.5676 11.1939 77.0154 11.4925 77.3139 11.9402C77.7616 12.2387 78.0601 12.6865 78.3586 13.1342C78.6572 13.582 78.9557 14.0298 79.1049 14.4775C79.2542 14.9253 79.4034 15.5223 79.5527 15.9701C79.7019 16.5671 79.7019 17.0148 79.7019 17.6119V17.9104C79.7019 18.0596 79.7019 18.0596 79.7019 18.2089L79.5527 19.1044H67.6124C67.7616 19.4029 67.7616 19.5522 67.9109 19.7014C68.0601 19.8507 68.2094 20.1492 68.3586 20.2984C68.5079 20.4477 68.6572 20.597 68.8064 20.7462C68.9557 20.8955 69.1049 21.0447 69.4034 21.194C69.5527 21.3432 69.8512 21.3432 70.0004 21.4925C70.1497 21.6417 70.4482 21.6417 70.5974 21.6417C70.7467 21.6417 71.0452 21.6417 71.3437 21.6417C71.6422 21.6417 72.09 21.6417 72.3885 21.4925C72.687 21.3432 72.9855 21.3432 73.284 21.194C73.5825 21.0447 73.7318 20.8954 74.0303 20.5969C74.1795 20.4477 74.3288 20.1492 74.478 19.9999L77.9109 22.5372C77.7616 22.8358 77.4631 22.985 77.3139 23.1343C77.0154 23.4328 76.7169 23.7313 76.4183 23.8805C76.1198 24.1791 75.6721 24.3283 75.3736 24.4776C74.9258 24.6268 74.6273 24.7761 74.1795 24.9253C73.7318 25.0746 73.284 25.2238 72.8363 25.2238C72.3885 25.2238 71.9407 25.3731 71.3437 25.3731C70.7467 25.3731 70.1497 25.3731 69.5527 25.2238C68.9557 25.0746 68.5079 24.9253 67.9109 24.7761C67.4631 24.6268 66.8661 24.3283 66.4183 24.0298C65.9706 23.7313 65.5228 23.4328 65.2243 22.985C64.9258 22.6865 64.478 22.2387 64.1795 21.791C63.881 21.3432 63.5825 20.8955 63.4333 20.4477C63.284 19.9999 63.1347 19.4029 62.9855 18.9552C62.8362 18.6567 62.8362 18.0596 62.8362 17.6119ZM65.5228 6.41782L66.1198 5.52231H60.7467L55.9706 13.4328L51.1944 5.52231H45.8213L53.5825 17.7611V25.2238H58.2094V17.7611L65.5228 6.41782ZM99.1049 22.0895L105.971 13.8805H99.4035V9.85066H112.538V12.8357L105.672 21.0447H112.836V25.0746H98.9557V22.2387L99.1049 22.0895ZM130.15 10.7462L121.792 29.9999H116.866L119.702 24.0298L113.583 9.99993H118.508L122.09 18.5074L125.672 9.99993H130.598L130.15 10.7462ZM81.1945 17.4626C81.1945 16.8656 81.1945 16.4178 81.3437 15.8208C81.493 15.3731 81.6422 14.776 81.7915 14.3283C81.9407 13.8805 82.2393 13.4328 82.5378 12.985C82.8363 12.5372 83.1348 12.0895 83.5825 11.791C84.0303 11.4925 84.3288 11.0447 84.7766 10.7462C85.2243 10.4477 85.6721 10.1492 86.1198 9.99993C86.5676 9.85067 87.1646 9.70142 87.7617 9.55216C88.3587 9.40291 88.9557 9.4029 89.5527 9.4029C90.1497 9.4029 90.7467 9.40291 91.3437 9.55216C91.9408 9.70142 92.3885 9.85067 92.9855 9.99993C93.4333 10.1492 94.0303 10.4477 94.4781 10.7462C94.9258 11.0447 95.3736 11.3432 95.6721 11.791C96.1199 12.0895 96.4184 12.5372 96.7169 12.985C97.0154 13.4328 97.3139 13.8805 97.4632 14.3283C97.6124 14.776 97.7617 15.3731 97.9109 15.8208C98.0602 16.4178 98.0602 16.8656 98.0602 17.4626V17.7611C98.0602 17.9104 98.0602 17.9104 98.0602 18.0596L97.9109 18.9552H85.9706C86.1199 19.2537 86.1199 19.4029 86.2691 19.5522C86.4184 19.7014 86.5676 19.9999 86.7169 20.1492C86.8661 20.2985 87.0154 20.4477 87.1646 20.5969C87.3139 20.7462 87.4631 20.8955 87.7617 21.0447C87.9109 21.194 88.2094 21.194 88.3587 21.3432C88.5079 21.4925 88.8064 21.4925 88.9557 21.4925C89.1049 21.4925 89.4034 21.4925 89.5527 21.4925C89.8512 21.4925 90.299 21.4925 90.5975 21.3432C90.896 21.194 91.1945 21.194 91.493 21.0447C91.7915 20.8955 91.9408 20.7462 92.2393 20.4477C92.3885 20.2984 92.5378 19.9999 92.687 19.8507L96.1199 22.388C95.9706 22.6865 95.6721 22.8358 95.5228 22.985C95.2243 23.2835 94.9258 23.582 94.6273 23.7313C94.3288 24.0298 93.8811 24.179 93.5825 24.3283C93.284 24.4775 92.8363 24.6268 92.3885 24.7761C91.9407 24.9253 91.493 25.0746 91.0452 25.0746C90.5975 25.0746 90.1497 25.2238 89.5527 25.2238C88.9557 25.2238 88.3587 25.2238 87.7617 25.0746C87.1646 24.9253 86.7169 24.7761 86.1198 24.6268C85.6721 24.4776 85.0751 24.1791 84.6273 23.8805C84.1795 23.582 83.7318 23.2835 83.4333 22.8358C83.1348 22.5372 82.687 22.0895 82.3885 21.6417C82.09 21.194 81.7915 20.7462 81.6422 20.2984C81.493 19.8507 81.3437 19.2537 81.1945 18.8059C81.1945 18.6566 81.1945 18.0596 81.1945 17.4626ZM89.5527 13.2835C89.1049 13.2835 88.6572 13.2835 88.2094 13.4328C88.0602 13.582 87.7616 13.582 87.6124 13.7313C87.4631 13.8805 87.3139 13.8805 87.1646 14.0298C87.0154 14.179 86.8661 14.3283 86.7169 14.4775C86.5676 14.6268 86.4184 14.7761 86.2691 14.9253C86.1199 15.0746 86.1199 15.2238 85.9706 15.3731H92.9855C92.9855 15.2238 92.8363 15.0746 92.687 14.9253C92.5378 14.7761 92.3885 14.6268 92.3885 14.4775C92.2393 14.3283 92.09 14.179 91.9408 14.0298C91.7915 13.8805 91.6423 13.7313 91.493 13.7313C91.3437 13.582 91.1945 13.582 90.896 13.4328C90.4482 13.4328 90.0005 13.2835 89.5527 13.2835ZM71.1945 13.2835C70.7467 13.2835 70.2989 13.2835 69.8512 13.4328C69.7019 13.4328 69.4034 13.582 69.2541 13.7313C69.1049 13.8805 68.9557 13.8805 68.8064 14.0298C68.6572 14.179 68.5079 14.3283 68.3586 14.4775C68.2094 14.6268 68.0601 14.7761 67.9109 14.9253C67.7616 15.0746 67.7616 15.2238 67.6124 15.3731H74.6273C74.6273 15.2238 74.4781 15.0746 74.3288 14.9253C74.1795 14.7761 74.0303 14.6268 74.0303 14.4775C73.881 14.3283 73.7318 14.179 73.5825 14.0298C73.4333 13.8805 73.284 13.7313 73.1348 13.7313C72.9855 13.582 72.8363 13.582 72.5378 13.4328C72.09 13.4328 71.6422 13.2835 71.1945 13.2835ZM182.687 10.7462L174.329 29.9999H169.404L172.239 24.0298L166.12 9.99993H171.045L174.627 18.5074L178.21 9.99993H183.135L182.687 10.7462ZM136.568 19.1044V25.2238H131.941V5.37305H140.448C140.896 5.37305 141.493 5.37306 141.941 5.52231C142.389 5.67156 142.836 5.67157 143.284 5.97008C143.732 6.11933 144.18 6.41783 144.478 6.56708C144.926 6.86559 145.224 7.01484 145.523 7.31335C145.821 7.61186 146.12 7.91036 146.418 8.35813C146.717 8.65663 146.866 9.1044 147.015 9.55216C147.165 9.99992 147.314 10.4477 147.463 10.8954C147.612 11.3432 147.612 11.791 147.612 12.2387C147.612 12.6865 147.612 13.1343 147.463 13.7313C147.314 14.179 147.314 14.6268 147.015 15.0746C146.866 15.5223 146.568 15.8208 146.418 16.2686C146.12 16.5671 145.821 17.0149 145.523 17.3134C145.224 17.6119 144.926 17.9104 144.478 18.0596C144.03 18.3581 143.732 18.5074 143.284 18.6567C142.836 18.8059 142.389 18.9551 141.941 19.1044C141.493 19.2537 141.045 19.2537 140.448 19.2537H136.568V19.1044ZM140.299 14.9253C140.598 14.9253 141.045 14.9253 141.344 14.776C141.493 14.776 141.642 14.6268 141.792 14.4775C141.941 14.3283 142.09 14.3283 142.09 14.179C142.239 14.0298 142.239 13.8805 142.389 13.7313C142.538 13.582 142.538 13.4328 142.687 13.2835C142.687 13.1343 142.836 12.985 142.836 12.8357C142.836 12.6865 142.836 12.5372 142.836 12.2387C142.836 12.0895 142.836 11.791 142.836 11.6417C142.836 11.4925 142.687 11.3432 142.687 11.0447C142.687 10.8954 142.538 10.7462 142.389 10.5969C142.239 10.4477 142.239 10.2984 142.09 10.1492C141.941 9.99991 141.792 9.85066 141.642 9.85066C141.493 9.70141 141.344 9.70142 141.195 9.55216C141.045 9.55216 140.896 9.4029 140.747 9.4029C140.598 9.4029 140.448 9.4029 140.15 9.4029H136.568V14.9253H140.299ZM152.239 17.4626C152.239 17.7611 152.239 18.0596 152.389 18.3581C152.389 18.6566 152.538 18.9551 152.687 19.1044C152.836 19.4029 152.986 19.5522 152.986 19.8507C153.135 19.9999 153.284 20.2984 153.433 20.4477C153.583 20.597 153.732 20.7462 154.03 20.8955C154.18 21.0447 154.478 21.194 154.777 21.194C155.075 21.3432 155.224 21.3432 155.523 21.3432C155.821 21.3432 155.971 21.3432 156.269 21.3432C156.568 21.3432 156.866 21.3432 157.015 21.3432C157.314 21.3432 157.463 21.194 157.762 21.194C158.06 21.0447 158.21 21.0447 158.359 20.8955C158.508 20.7462 158.807 20.597 158.956 20.4477C159.105 20.2984 159.254 20.1492 159.404 19.8507C159.553 19.7014 159.702 19.4029 159.702 19.1044C159.851 18.8059 159.851 18.6566 160.001 18.3581C160.001 18.0596 160.15 17.7611 160.15 17.4626C160.15 17.1641 160.15 16.8656 160.001 16.5671C160.001 16.2686 159.851 15.9701 159.702 15.8208C159.553 15.5223 159.553 15.3731 159.404 15.0746C159.254 14.9253 159.105 14.6268 158.956 14.4775C158.807 14.3283 158.508 14.179 158.359 14.0298C158.21 13.8805 157.911 13.7313 157.612 13.7313C157.314 13.582 157.165 13.582 156.866 13.582C156.568 13.582 156.418 13.582 156.12 13.582C155.821 13.582 155.523 13.582 155.374 13.582C155.075 13.582 154.926 13.7313 154.627 13.7313C154.329 13.8805 154.18 13.8805 154.03 14.0298C153.881 14.179 153.583 14.3283 153.433 14.4775C153.284 14.6268 153.135 14.9253 152.986 15.0746C152.836 15.2238 152.687 15.5223 152.687 15.8208C152.538 16.1193 152.538 16.2686 152.389 16.5671C152.239 17.0149 152.239 17.1641 152.239 17.4626Z" fill="white"/>
<path fill-rule="evenodd" clip-rule="evenodd" d="M33.8806 1.34328C32.9851 0.895514 32.0896 0.597011 31.0448 0.298503C30.2985 0.149249 29.2537 0.149254 28.3582 0H27.9104H12.6866L16.5672 5.37313H19.7015H26.4179C28.5075 5.37313 30.8955 5.37313 32.5373 6.86567C32.9851 7.31343 33.4328 7.91045 33.5821 8.50747C33.8806 9.10448 34.0299 9.7015 34.0299 10.4478C34.0299 11.194 33.8806 11.791 33.5821 12.3881C33.2836 12.9851 32.9851 13.5821 32.5373 14.0299C31.9403 14.6269 31.194 15.0746 30.2985 15.2239C29.2537 15.5224 28.0597 15.6717 27.0149 15.6717L24.1791 20.8955C26.1194 21.0448 28.209 21.0448 30.4478 20.597C32.6866 20.1493 34.7761 19.403 36.4179 17.7612C37.3134 16.8657 38.209 15.6716 38.6567 14.3284C39.1045 13.1343 39.403 11.791 39.403 10.2985C39.403 8.95522 39.1045 7.61194 38.6567 6.26866C38.0597 4.92537 37.3134 3.88059 36.4179 2.83582C35.5224 2.38805 34.7761 1.79104 33.8806 1.34328Z" fill="#26C7BC"/>
<path fill-rule="evenodd" clip-rule="evenodd" d="M6.56716 0L17.4627 15.6717L14.3284 20.7463L0 0H6.56716Z" fill="white"/>
<path fill-rule="evenodd" clip-rule="evenodd" d="M30.149 7.16418L19.7012 25.3732H13.4326L23.8804 7.16418L29.9998 7.31345L30.149 7.16418Z" fill="white"/>
</svg>
