<svg width="463" height="172" viewBox="0 0 463 172" fill="none" xmlns="http://www.w3.org/2000/svg">
<g opacity="0.5">
<path d="M226.623 72.2703H220.135V69.5669H226.623V72.2703Z" fill="#C4F3F0"/>
<path d="M227.57 72.8596H219.325V71.643H227.57V72.8596Z" fill="#C4F3F0"/>
<path d="M229.597 75.9504H217.296V72.8414H229.597V75.9504Z" fill="#C4F3F0"/>
<path d="M224.221 42.3694H222.599L223.139 27.9059H223.545L224.221 42.3694Z" fill="#C4F3F0"/>
<path d="M225.167 42.0991V70.08H221.653V42.0991H225.167ZM223.14 54.3999H222.734V68.8634H223.14V54.3999ZM224.086 54.3999H223.68V68.8634H224.086V54.3999Z" fill="#C4F3F0"/>
<path d="M396.837 122.798H415.761V188.492H396.837V122.798Z" fill="#C4F3F0"/>
<path d="M294.783 188.627V62.7807L340.471 41.5585H357.503V37.9088H358.179V71.0263H361.559V48.7227H380.213V71.0263H383.457V105.495H386.971V188.627H294.783Z" fill="#C4F3F0"/>
<path d="M438.471 116.445H450.772V188.627H438.471V116.445Z" fill="#C4F3F0"/>
<path d="M442.526 105.09H465.235V188.627H442.526V105.09Z" fill="#C4F3F0"/>
<path d="M424.008 42.9103H453.34V187.546H424.008V42.9103Z" fill="#C4F3F0"/>
<path d="M239.141 180.755H214.269L214.269 55.855H239.141V180.755Z" fill="#C4F3F0"/>
<path d="M202.729 79.2719H227.601V188.492H202.729V79.2719Z" fill="#C4F3F0"/>
<path d="M237.737 41.4233V63.4566H254.634V54.9407H263.961V51.4262H268.827V54.9407H292.077C292.212 55.0758 292.212 55.211 292.348 55.3462V93.0595H302.08V188.627H236.115V41.4233H237.737Z" fill="#C4F3F0"/>
<path d="M376.968 122.798V126.718H375.617V134.558H371.021V188.627H395.082V122.798H376.968Z" fill="#B5EEF2"/>
<path d="M422.654 77.3796H430.494V78.0555H422.654V77.3796Z" fill="#FFFFFB"/>
<path d="M420.494 78.0557H432.389V89.9509H420.494V78.0557Z" fill="#D2F5EF"/>
<path d="M408.55 114.738H406.928V55.938H408.55V114.738Z" fill="#EAFCFD"/>
<path d="M405.016 114.738H403.394V55.938H405.016V114.738Z" fill="#EAFCFD"/>
<path d="M399.273 73.0541H424.551V138.613H399.273V73.0541Z" fill="#E4F3F7"/>
<path d="M383.187 116.309H411.574V96.7092L383.187 116.309Z" fill="#F3FFF9"/>
<path d="M409.006 90.3561H443.205V188.627H409.006V90.3561Z" fill="#E4F3F7"/>
<path d="M381.565 114.687H412.925V188.492H381.565V114.687Z" fill="#EAFCFD"/>
<path d="M5.10352 140.505V143.614H4.15729V149.697H0.50758V191.871H19.2968V140.505H5.10352Z" fill="#B5EEF2"/>
<path d="M40.6539 105.09H46.8719V105.631H40.6539V105.09Z" fill="#FFFFFB"/>
<path d="M39.1679 105.631H48.3597V114.958H39.1679V105.631Z" fill="#D2F5EF"/>
<path d="M29.6882 134.214H28.4716L28.4716 88.3898H29.6882L29.6882 134.214Z" fill="#EAFCFD"/>
<path d="M26.8945 134.214H25.6779L25.6779 88.3898H26.8945L26.8945 134.214Z" fill="#EAFCFD"/>
<path d="M22.5413 101.71H42.2766V152.806H22.5413V101.71Z" fill="#E4F3F7"/>
<path d="M9.96991 135.504H32.1384V120.094L9.96991 135.504Z" fill="#F3FFF9"/>
<path d="M30.1116 115.228H56.7408V191.871H30.1116V115.228Z" fill="#E4F3F7"/>
<path d="M8.75284 134.287H33.2192V191.871H8.75284V134.287Z" fill="#EAFCFD"/>
<path d="M325.738 0.871338H338.445V85.7601H325.738V0.871338Z" fill="#B7EEF2"/>
<path d="M301.678 4.1153H348.177V109.01H301.678V4.1153Z" fill="#EAFCFD"/>
<path d="M353.442 84.7444H345.061V82.4464H353.442V84.7444Z" fill="#F3FFF9"/>
<path d="M354.524 85.2338H343.98V84.2875H354.524V85.2338Z" fill="#F3FFF9"/>
<path d="M357.093 101.483H341.278V85.1266H357.093V101.483Z" fill="#B7EEF2"/>
<path d="M331.01 46.0192V188.627H294.784V62.7806L331.01 46.0192Z" fill="#EAFCFD"/>
<path d="M338.986 76.9738H360.614V188.627H338.986V76.9738Z" fill="#B7EEF2"/>
<path d="M342.77 87.9227H344.528V159.024H342.77V87.9227Z" fill="#C0F3EA"/>
<path d="M346.692 87.9227H348.449V159.024H346.692V87.9227Z" fill="#C0F3EA"/>
<path d="M350.61 87.9227H352.367V159.024H350.61V87.9227Z" fill="#C0F3EA"/>
<path d="M354.53 87.9227H356.288V159.024H354.53V87.9227Z" fill="#C0F3EA"/>
<path d="M318.306 74.6759H330.742V87.9229H318.306V74.6759Z" fill="#EAFCFD"/>
<path d="M131.627 44.8028H141.36V109.821H131.627V44.8028Z" fill="#B7EEF2"/>
<path d="M113.379 47.2358H148.929V127.664H113.379V47.2358Z" fill="#EAFCFD"/>
<path d="M152.936 108.998H146.448V107.241H152.936V108.998Z" fill="#F3FFF9"/>
<path d="M153.748 109.368H145.638V108.557H153.748V109.368Z" fill="#F3FFF9"/>
<path d="M155.777 121.835H143.611V109.264H155.777V121.835Z" fill="#B7EEF2"/>
<path d="M135.685 79.4069V188.627H107.974V92.2484L135.685 79.4069Z" fill="#EAFCFD"/>
<path d="M141.902 103.062H158.393V188.627H141.902V103.062Z" fill="#C4F3F0"/>
<path d="M144.74 111.443H146.092V165.918H144.74V111.443Z" fill="#C0F3EA"/>
<path d="M147.715 111.443H149.067V165.918H147.715V111.443Z" fill="#C0F3EA"/>
<path d="M150.688 111.443H152.04V165.918H150.688V111.443Z" fill="#C0F3EA"/>
<path d="M153.797 111.443H155.149V165.918H153.797V111.443Z" fill="#C0F3EA"/>
<path d="M125.815 101.305H135.413V111.443H125.815V101.305Z" fill="#EAFCFD"/>
<path d="M437.751 42.3455H425.991V30.3151H437.751V42.3455Z" fill="#B5EEF2"/>
<path d="M494.702 188.627L493.35 112.795H491.728V105.09L464.829 102.251V117.526H461.72V34.1237H423.601V115.633H420.221V188.627H494.702Z" fill="white"/>
<path d="M149.066 122.798H167.99V188.492H149.066V122.798Z" fill="#C4F3F0"/>
<path d="M54.7125 188.627V92.2485L89.7224 76.0277H102.699V73.054H103.105V98.6017H105.808V81.4347H120.137V98.6017H122.57V124.96H125.273V188.627H54.7125Z" fill="#C4F3F0"/>
<path d="M176.369 42.9102H205.702V187.546H176.369V42.9102Z" fill="#C4F3F0"/>
<path d="M129.33 122.798V126.718H127.978V134.558H123.382V188.627H147.443V122.798H129.33Z" fill="#B5EEF2"/>
<path d="M174.882 77.3798H182.722V78.0557H174.882V77.3798Z" fill="#FFFFFB"/>
<path d="M172.854 78.0555H184.75V89.9508H172.854V78.0555Z" fill="#D2F5EF"/>
<path d="M160.857 114.739H159.234V55.9382H160.857V114.739Z" fill="#EAFCFD"/>
<path d="M157.323 114.739H155.701V55.9382H157.323V114.739Z" fill="#EAFCFD"/>
<path d="M151.633 73.0541H176.91V138.613H151.633V73.0541Z" fill="#E4F3F7"/>
<path d="M135.548 116.31H163.799V96.7094L135.548 116.31Z" fill="#F3FFF9"/>
<path d="M161.365 90.3562H195.564V188.627H161.365V90.3562Z" fill="#E4F3F7"/>
<path d="M133.924 114.687H165.285V188.492H133.924V114.687Z" fill="#EAFCFD"/>
<path d="M79.5842 71.2966H86.0726V114.822H79.5842V71.2966Z" fill="#B7EEF2"/>
<path d="M67.2834 72.9186H91.074V126.718H67.2834V72.9186Z" fill="#EAFCFD"/>
<path d="M93.8194 114.306H89.4939V113.089H93.8194V114.306Z" fill="#F3FFF9"/>
<path d="M94.3593 114.513H88.9524V113.972H94.3593V114.513Z" fill="#F3FFF9"/>
<path d="M95.7104 122.871H87.6V114.49H95.7104V122.871Z" fill="#B7EEF2"/>
<path d="M82.2882 94.4114V167.675H63.6343V103.062L82.2882 94.4114Z" fill="#EAFCFD"/>
<path d="M86.3443 110.227H97.4286V167.54H86.3443V110.227Z" fill="#EAFCFD"/>
<path d="M88.238 115.904H89.1842V152.401H88.238V115.904Z" fill="#C0F3EA"/>
<path d="M90.2665 115.904H91.2128V152.401H90.2665V115.904Z" fill="#C0F3EA"/>
<path d="M92.2931 115.904H93.2394V152.401H92.2931V115.904Z" fill="#C0F3EA"/>
<path d="M94.3204 115.904H95.2666V152.401H94.3204V115.904Z" fill="#C0F3EA"/>
<path d="M75.801 109.145H82.1542V115.904H75.801V109.145Z" fill="#EAFCFD"/>
<path d="M190.195 42.3455H178.435V30.3151H190.195V42.3455Z" fill="#B5EEF2"/>
<path d="M247.063 188.627L245.711 112.795H244.089V105.09L217.189 102.251V117.526H214.08V34.1237H175.961V115.633H172.447V188.627H247.063Z" fill="white"/>
<path d="M242.702 132.428H231.077V129.319H242.702V132.428Z" fill="#C4F3F0"/>
<path d="M242.702 138.212H231.077V135.103H242.702V138.212Z" fill="#C4F3F0"/>
<path d="M242.702 143.995H231.077V140.886H242.702V143.995Z" fill="#C4F3F0"/>
<path d="M242.702 149.778H231.077V146.669H242.702V149.778Z" fill="#C4F3F0"/>
<path d="M242.702 155.562H231.077V152.453H242.702V155.562Z" fill="#C4F3F0"/>
<path d="M242.702 161.345H231.077V158.236H242.702V161.345Z" fill="#C4F3F0"/>
<path d="M242.702 167.129H231.077V164.02H242.702V167.129Z" fill="#C4F3F0"/>
<path d="M242.702 172.912H231.077V169.803H242.702V172.912Z" fill="#C4F3F0"/>
<path d="M235.713 130.232H260.99V188.492H235.713V130.232Z" fill="#EAFCFD"/>
<path d="M248.147 96.5739V28.3114H253.553V25.0672H254.77V24.5265H255.311V23.5803H256.257V16.8216H256.798L257.068 10.874H257.338L257.609 16.8216H258.149V23.5803H259.096V24.5265H259.636V25.0672H260.853V28.3114H275.857L284.508 38.8549V96.5739H248.147ZM257.338 23.5803H257.609V17.4975H257.338V23.5803ZM256.798 23.5803H257.068V17.4975H256.798V23.5803Z" fill="#D2F5EF"/>
<path d="M269.37 68.8634H301.271V147.534H269.37V68.8634Z" fill="#B7EEF2"/>
<path d="M459.017 114.552H480.375V124.284H459.017V114.552Z" fill="#E4F3F7"/>
<path d="M236.117 63.3215H280.724V188.492H236.117V63.3215Z" fill="#E4F3F7"/>
<path d="M245.578 88.0582H272.612V188.222H245.578V88.0582Z" fill="#EAFCFD"/>
</g>
</svg>
