<svg width="463" height="171" viewBox="0 0 463 171" fill="none" xmlns="http://www.w3.org/2000/svg">
<g opacity="0.75">
<g opacity="0.5">
<path d="M236.377 71.399H242.865V68.6956H236.377V71.399Z" fill="#C4F3F0"/>
<path d="M235.43 71.9882H243.675V70.7716H235.43V71.9882Z" fill="#C4F3F0"/>
<path d="M233.403 75.0791H245.704V71.9701H233.403V75.0791Z" fill="#C4F3F0"/>
<path d="M238.779 41.4981H240.401L239.861 27.0345H239.455L238.779 41.4981Z" fill="#C4F3F0"/>
<path d="M237.833 41.2278V69.2086H241.347V41.2278H237.833ZM239.86 53.5285H240.266V67.9921H239.86V53.5285ZM238.914 53.5285H239.32V67.9921H238.914V53.5285Z" fill="#C4F3F0"/>
<path d="M66.1628 121.926H47.2385V187.621H66.1628V121.926Z" fill="#C4F3F0"/>
<path d="M168.217 187.756V61.9093L122.529 40.6871H105.497V37.0375H104.821V70.1549H101.441V47.8513H82.7875V70.1549H79.5433V104.624H76.0288V187.756H168.217Z" fill="#C4F3F0"/>
<path d="M24.5286 115.573H12.2278V187.756H24.5286V115.573Z" fill="#C4F3F0"/>
<path d="M20.4742 104.219H-2.23499V187.756H20.4742V104.219Z" fill="#C4F3F0"/>
<path d="M38.9925 42.0389H9.65979V186.674H38.9925V42.0389Z" fill="#C4F3F0"/>
<path d="M223.859 179.884H248.731L248.731 54.9837H223.859V179.884Z" fill="#C4F3F0"/>
<path d="M260.271 78.4005H235.399V187.621H260.271V78.4005Z" fill="#C4F3F0"/>
<path d="M225.263 40.552V62.5852H208.366V54.0693H199.039V50.5548H194.173V54.0693H170.923C170.788 54.2045 170.788 54.3397 170.652 54.4748V92.1882H160.92V187.756H226.885V40.552H225.263Z" fill="#C4F3F0"/>
<path d="M86.0316 121.926V125.846H87.3833V133.686H91.9792V187.756H67.9183V121.926H86.0316Z" fill="#B5EEF2"/>
<path d="M40.3457 76.5083H32.5056V77.1842H40.3457V76.5083Z" fill="#FFFFFB"/>
<path d="M42.5063 77.1843H30.611V89.0796H42.5063V77.1843Z" fill="#D2F5EF"/>
<path d="M54.4501 113.867H56.0721L56.0721 55.0666H54.4501L54.4501 113.867Z" fill="#EAFCFD"/>
<path d="M57.9837 113.867H59.6057L59.6057 55.0666H57.9837L57.9837 113.867Z" fill="#EAFCFD"/>
<path d="M63.7267 72.1827H38.4492V137.742H63.7267V72.1827Z" fill="#E4F3F7"/>
<path d="M79.8127 115.438H51.4263V95.8379L79.8127 115.438Z" fill="#F3FFF9"/>
<path d="M53.9938 89.4847H19.7948V187.756H53.9938V89.4847Z" fill="#E4F3F7"/>
<path d="M81.4349 113.816H50.0746V187.62H81.4349V113.816Z" fill="#EAFCFD"/>
<path d="M457.897 139.634V142.743H458.843V148.826H462.492V191H443.703V139.634H457.897Z" fill="#B5EEF2"/>
<path d="M422.346 104.219H416.128V104.759H422.346V104.219Z" fill="#FFFFFB"/>
<path d="M423.832 104.759H414.64V114.086H423.832V104.759Z" fill="#D2F5EF"/>
<path d="M433.312 133.342H434.528V87.5184H433.312V133.342Z" fill="#EAFCFD"/>
<path d="M436.105 133.342H437.322V87.5184H436.105V133.342Z" fill="#EAFCFD"/>
<path d="M440.459 100.839H420.723V151.935H440.459V100.839Z" fill="#E4F3F7"/>
<path d="M453.03 134.633H430.862V119.223L453.03 134.633Z" fill="#F3FFF9"/>
<path d="M432.888 114.357H406.259V191H432.888V114.357Z" fill="#E4F3F7"/>
<path d="M454.247 133.416H429.781V191H454.247V133.416Z" fill="#EAFCFD"/>
<path d="M137.262 0H124.555V84.8888H137.262V0Z" fill="#B7EEF2"/>
<path d="M161.322 3.24402H114.823V108.138H161.322V3.24402Z" fill="#EAFCFD"/>
<path d="M109.558 83.873H117.939V81.5751H109.558V83.873Z" fill="#F3FFF9"/>
<path d="M108.476 84.3623H119.02V83.4161H108.476V84.3623Z" fill="#F3FFF9"/>
<path d="M105.907 100.611H121.722V84.2552H105.907V100.611Z" fill="#B7EEF2"/>
<path d="M131.989 45.1478V187.756H168.216V61.9093L131.989 45.1478Z" fill="#EAFCFD"/>
<path d="M124.013 76.1024H102.385V187.756H124.013V76.1024Z" fill="#B7EEF2"/>
<path d="M120.229 87.0514H118.472V158.153H120.229V87.0514Z" fill="#C0F3EA"/>
<path d="M116.308 87.0514H114.551V158.153H116.308V87.0514Z" fill="#C0F3EA"/>
<path d="M112.39 87.0514H110.633V158.153H112.39V87.0514Z" fill="#C0F3EA"/>
<path d="M108.469 87.0514H106.712V158.153H108.469V87.0514Z" fill="#C0F3EA"/>
<path d="M144.694 73.8046H132.258V87.0516H144.694V73.8046Z" fill="#EAFCFD"/>
<path d="M331.373 43.9315H321.64V108.95H331.373V43.9315Z" fill="#B7EEF2"/>
<path d="M349.622 46.3645H314.071V126.793H349.622V46.3645Z" fill="#EAFCFD"/>
<path d="M310.064 108.127H316.552V106.37H310.064V108.127Z" fill="#F3FFF9"/>
<path d="M309.252 108.497H317.362V107.686H309.252V108.497Z" fill="#F3FFF9"/>
<path d="M307.223 120.964H319.389V108.393H307.223V120.964Z" fill="#B7EEF2"/>
<path d="M327.315 78.5356V187.756H355.026V91.3771L327.315 78.5356Z" fill="#EAFCFD"/>
<path d="M321.099 102.191H304.608V187.756H321.099V102.191Z" fill="#C4F3F0"/>
<path d="M318.26 110.572H316.908V165.046H318.26V110.572Z" fill="#C0F3EA"/>
<path d="M315.285 110.572H313.933V165.046H315.285V110.572Z" fill="#C0F3EA"/>
<path d="M312.312 110.572H310.96V165.046H312.312V110.572Z" fill="#C0F3EA"/>
<path d="M309.203 110.572H307.851V165.046H309.203V110.572Z" fill="#C0F3EA"/>
<path d="M337.185 100.434H327.587V110.572H337.185V100.434Z" fill="#EAFCFD"/>
<path d="M25.2485 41.4741H37.0087V29.4437H25.2485V41.4741Z" fill="#B5EEF2"/>
<path d="M-31.7021 187.756L-30.3504 111.923H-28.7283V104.218L-1.82876 101.38V116.654H1.28026V33.2524H39.3992V114.762H42.7786V187.756H-31.7021Z" fill="white"/>
<path d="M313.934 121.926H295.01V187.621H313.934V121.926Z" fill="#C4F3F0"/>
<path d="M408.287 187.756V91.3772L373.278 75.1564H360.301V72.1826H359.895V97.7304H357.192V80.5633H342.863V97.7304H340.43V124.089H337.727V187.756H408.287Z" fill="#C4F3F0"/>
<path d="M286.631 42.0388H257.298V186.674H286.631V42.0388Z" fill="#C4F3F0"/>
<path d="M333.67 121.926V125.846H335.022V133.686H339.618V187.756H315.557V121.926H333.67Z" fill="#B5EEF2"/>
<path d="M288.118 76.5084H280.278V77.1843H288.118V76.5084Z" fill="#FFFFFB"/>
<path d="M290.146 77.1841H278.25V89.0794H290.146V77.1841Z" fill="#D2F5EF"/>
<path d="M302.143 113.867H303.766V55.0667H302.143V113.867Z" fill="#EAFCFD"/>
<path d="M305.677 113.867H307.299V55.0667H305.677V113.867Z" fill="#EAFCFD"/>
<path d="M311.367 72.1829H286.09V137.742H311.367V72.1829Z" fill="#E4F3F7"/>
<path d="M327.452 115.438H299.201V95.838L327.452 115.438Z" fill="#F3FFF9"/>
<path d="M301.635 89.4849H267.436V187.756H301.635V89.4849Z" fill="#E4F3F7"/>
<path d="M329.076 113.816H297.715V187.621H329.076V113.816Z" fill="#EAFCFD"/>
<path d="M383.416 70.4253H376.927V113.951H383.416V70.4253Z" fill="#B7EEF2"/>
<path d="M395.716 72.0474H371.926V125.846H395.716V72.0474Z" fill="#EAFCFD"/>
<path d="M369.181 113.435H373.506V112.218H369.181V113.435Z" fill="#F3FFF9"/>
<path d="M368.641 113.642H374.048V113.101H368.641V113.642Z" fill="#F3FFF9"/>
<path d="M367.29 122H375.4V113.619H367.29V122Z" fill="#B7EEF2"/>
<path d="M380.712 93.5402V166.804H399.366V102.191L380.712 93.5402Z" fill="#EAFCFD"/>
<path d="M376.655 109.355H365.571V166.669H376.655V109.355Z" fill="#EAFCFD"/>
<path d="M374.762 115.033H373.816V151.529H374.762V115.033Z" fill="#C0F3EA"/>
<path d="M372.733 115.033H371.787V151.529H372.733V115.033Z" fill="#C0F3EA"/>
<path d="M370.707 115.033H369.761V151.529H370.707V115.033Z" fill="#C0F3EA"/>
<path d="M368.68 115.033H367.733V151.529H368.68V115.033Z" fill="#C0F3EA"/>
<path d="M387.199 108.274H380.846V115.033H387.199V108.274Z" fill="#EAFCFD"/>
<path d="M272.805 41.4741H284.565V29.4437H272.805V41.4741Z" fill="#B5EEF2"/>
<path d="M215.937 187.756L217.289 111.923H218.911V104.218L245.811 101.38V116.654H248.92V33.2524H287.039V114.762H290.553V187.756H215.937Z" fill="white"/>
<path d="M220.298 131.557H231.923V128.448H220.298V131.557Z" fill="#C4F3F0"/>
<path d="M220.298 137.34H231.923V134.231H220.298V137.34Z" fill="#C4F3F0"/>
<path d="M220.298 143.124H231.923V140.015H220.298V143.124Z" fill="#C4F3F0"/>
<path d="M220.298 148.907H231.923V145.798H220.298V148.907Z" fill="#C4F3F0"/>
<path d="M220.298 154.691H231.923V151.582H220.298V154.691Z" fill="#C4F3F0"/>
<path d="M220.298 160.474H231.923V157.365H220.298V160.474Z" fill="#C4F3F0"/>
<path d="M220.298 166.258H231.923V163.149H220.298V166.258Z" fill="#C4F3F0"/>
<path d="M220.298 172.041H231.923V168.932H220.298V172.041Z" fill="#C4F3F0"/>
<path d="M227.287 129.361H202.01V187.621H227.287V129.361Z" fill="#EAFCFD"/>
<path d="M214.853 95.7025V27.44H209.447V24.1959H208.23V23.6552H207.689V22.709H206.743V15.9503H206.202L205.932 10.0027H205.662L205.391 15.9503H204.851V22.709H203.904V23.6552H203.364V24.1959H202.147V27.44H187.143L178.492 37.9835V95.7025H214.853ZM205.662 22.709H205.391V16.6262H205.662V22.709ZM206.202 22.709H205.932V16.6262H206.202V22.709Z" fill="#D2F5EF"/>
<path d="M193.63 67.9921H161.729V146.663H193.63V67.9921Z" fill="#B7EEF2"/>
<path d="M3.98283 113.681H-17.3746V123.413H3.98283V113.681Z" fill="#E4F3F7"/>
<path d="M226.883 62.4502H182.276V187.621H226.883V62.4502Z" fill="#E4F3F7"/>
<path d="M217.422 87.1869H190.388V187.35H217.422V87.1869Z" fill="#EAFCFD"/>
</g>
</g>
</svg>
