<svg width="337" height="217" viewBox="0 0 337 217" fill="none" xmlns="http://www.w3.org/2000/svg">
<g clip-path="url(#clip0_101_6152)">
<circle opacity="0.1" cx="31.0422" cy="-89.1287" r="305.458" transform="rotate(90 31.0422 -89.1287)" stroke="white"/>
<circle opacity="0.5" cx="31.0421" cy="-89.1287" r="244.266" transform="rotate(90 31.0421 -89.1287)" stroke="white"/>
<circle opacity="0.25" cx="31.0423" cy="-89.1287" r="274.862" transform="rotate(90 31.0423 -89.1287)" stroke="white"/>
<path d="M198.244 130.139C198.452 129.958 198.475 129.642 198.293 129.433C198.112 129.225 197.796 129.203 197.588 129.384L198.244 130.139ZM197.588 129.384C194.215 132.316 187.257 137.039 179.936 141.646C172.622 146.248 164.986 150.709 160.277 153.115L160.732 154.006C165.479 151.58 173.143 147.101 180.468 142.492C187.785 137.888 194.805 133.127 198.244 130.139L197.588 129.384Z" fill="url(#paint0_linear_101_6152)"/>
</g>
<defs>
<linearGradient id="paint0_linear_101_6152" x1="197.916" y1="129.761" x2="164.952" y2="150.906" gradientUnits="userSpaceOnUse">
<stop stop-color="#2DC9BE" stop-opacity="0"/>
<stop offset="1" stop-color="white"/>
</linearGradient>
<clipPath id="clip0_101_6152">
<rect width="216" height="337" fill="white" transform="translate(337 0.871338) rotate(90)"/>
</clipPath>
</defs>
</svg>
