<svg width="337" height="216" viewBox="0 0 337 216" fill="none" xmlns="http://www.w3.org/2000/svg">
<g clip-path="url(#clip0_7_3301)">
<path opacity="0.1" d="M305.958 215.458C474.657 215.458 611.415 78.6997 611.415 -90C611.415 -258.7 474.657 -395.458 305.958 -395.458C137.258 -395.458 0.5 -258.7 0.5 -90C0.5 78.6997 137.258 215.458 305.958 215.458Z" stroke="white"/>
<circle opacity="0.5" r="244.266" transform="matrix(0 1 1 0 305.958 -90)" stroke="white"/>
<circle opacity="0.25" r="274.862" transform="matrix(0 1 1 0 305.958 -90)" stroke="white"/>
<path d="M138.756 129.268C138.548 129.086 138.526 128.771 138.707 128.562C138.888 128.354 139.204 128.332 139.412 128.513L138.756 129.268ZM139.412 128.513C142.785 131.444 149.743 136.167 157.065 140.775C164.378 145.377 172.014 149.838 176.723 152.244L176.268 153.135C171.521 150.709 163.857 146.23 156.532 141.621C149.215 137.017 142.195 132.256 138.756 129.268L139.412 128.513Z" fill="url(#paint0_linear_7_3301)"/>
</g>
<defs>
<linearGradient id="paint0_linear_7_3301" x1="139.084" y1="128.89" x2="172.048" y2="150.035" gradientUnits="userSpaceOnUse">
<stop stop-color="#2DC9BE" stop-opacity="0"/>
<stop offset="1" stop-color="white"/>
</linearGradient>
<clipPath id="clip0_7_3301">
<rect width="216" height="337" fill="white" transform="matrix(0 1 1 0 0 0)"/>
</clipPath>
</defs>
</svg>
