<svg width="70" height="61" viewBox="0 0 70 61" fill="none" xmlns="http://www.w3.org/2000/svg">
<path d="M69.3932 42.0694C69.2316 42.7876 69.1239 43.5057 68.9264 44.2238C68.1185 47.0425 66.4668 49.2686 64.0252 50.8844C63.6302 51.1537 63.4507 51.423 63.4686 51.9077C63.4866 54.0621 63.4686 56.2165 63.4866 58.3529C63.4866 59.2326 63.1993 59.9507 62.3735 60.3278C61.4938 60.7227 60.7577 60.3996 60.1294 59.7533C58.0468 57.6707 55.9283 55.5881 53.8637 53.4697C53.4508 53.0388 53.0379 52.8952 52.4454 52.8952C44.941 52.9131 37.4366 52.8952 29.9322 52.9131C26.97 52.9131 24.277 52.1232 21.9431 50.2561C21.7277 50.0945 21.5302 49.9149 21.3327 49.7175C20.9198 49.2866 20.9018 48.748 21.2429 48.3171C21.602 47.8862 22.1765 47.8324 22.6792 48.1914C23.1819 48.5685 23.6666 48.9814 24.1872 49.3045C25.8569 50.3638 27.6881 50.8126 29.6809 50.8126C37.293 50.7947 44.9051 50.8126 52.5352 50.7947C53.6124 50.7947 54.4562 51.1178 55.2282 51.9077C57.0594 53.8108 58.9624 55.6599 60.8295 57.5271C60.9911 57.6886 61.1527 57.8323 61.3861 58.0477C61.404 57.7605 61.4399 57.563 61.4399 57.3834C61.4399 55.5163 61.4758 53.6672 61.4399 51.8C61.422 50.669 61.8529 49.8431 62.8044 49.2148C65.7666 47.2579 67.3106 44.4572 67.3645 40.9204C67.4183 37.1862 67.4363 33.434 67.3645 29.6997C67.2747 24.1702 62.8762 19.8794 57.3466 19.8794C48.0649 19.8794 38.8011 19.8794 29.5193 19.8794C23.9538 19.8794 19.5733 24.224 19.5374 29.7895C19.5015 33.5058 19.4656 37.2221 19.5733 40.9384C19.6092 42.1951 19.9862 43.4339 20.2914 44.6726C20.453 45.3908 20.2735 45.9473 19.6451 46.1268C19.1065 46.2884 18.6397 46.0371 18.3704 45.4267C17.7241 43.9007 17.4728 42.2849 17.4728 40.6511C17.4728 38.9995 17.4728 37.3298 17.4728 35.6243C16.5572 35.5525 15.7672 35.4268 15.0132 36.2347C13.3795 37.9941 11.656 39.6637 9.95041 41.3334C8.80141 42.4465 7.13177 42.0694 6.7368 40.6332C6.66499 40.3818 6.66499 40.0946 6.66499 39.8433C6.66499 38.1018 6.64704 36.3424 6.66499 34.6009C6.66499 34.1701 6.53932 33.9187 6.18026 33.6674C2.49987 31.1899 0.650697 27.7429 0.614791 23.3084C0.596838 19.7717 0.614791 16.2349 0.614791 12.6802C0.632744 5.78619 5.89301 0.507979 12.787 0.507979C21.979 0.490026 31.153 0.507979 40.345 0.507979C41.871 0.507979 43.3252 0.759323 44.7435 1.29792C45.4437 1.56721 45.731 2.12376 45.4796 2.71621C45.2642 3.25481 44.7076 3.38048 44.0075 3.2189C42.8405 2.9496 41.6556 2.57259 40.4707 2.57259C31.171 2.51873 21.8713 2.51873 12.5895 2.55463C7.99352 2.57259 4.1336 5.62462 3.02051 10.0411C2.80507 10.8849 2.7153 11.7646 2.69735 12.6263C2.66145 16.181 2.66145 19.7537 2.69735 23.3084C2.73326 27.0247 4.27723 29.9511 7.41902 31.9977C8.29872 32.5722 8.74755 33.3263 8.7296 34.4035C8.71164 35.8756 8.7296 37.3657 8.7296 38.8379C8.7296 39.0533 8.7296 39.2688 8.7296 39.6278C8.99889 39.3765 9.16047 39.2328 9.32205 39.0892C10.7942 37.6171 12.3023 36.1808 13.7206 34.6548C14.5285 33.7931 15.4261 33.3981 16.5751 33.4879C16.8444 33.5058 17.1137 33.4879 17.4907 33.4879C17.4907 33.0749 17.4907 32.6979 17.4907 32.3389C17.5087 30.3999 17.401 28.443 17.9575 26.54C19.3578 21.4772 23.9538 17.9045 29.2321 17.8686C35.9824 17.8327 42.7148 17.8507 49.4652 17.8507C49.7345 17.8507 49.9859 17.8507 50.309 17.8507C50.327 17.5634 50.3449 17.348 50.3449 17.1326C50.3449 15.7143 50.327 14.3139 50.3449 12.8956C50.3988 10.2027 49.5729 7.83285 47.7597 5.8221C47.4006 5.40918 47.1852 4.92445 47.5622 4.49357C47.7956 4.22427 48.2624 4.0627 48.6394 4.04474C48.8728 4.02679 49.178 4.33199 49.3754 4.56538C51.4221 6.88134 52.3916 9.61021 52.3916 12.6802C52.3916 14.1344 52.3916 15.5886 52.3916 17.0428C52.3916 17.2762 52.3916 17.5275 52.3916 17.8327C54.0433 17.8327 55.6052 17.8507 57.1671 17.8327C58.8547 17.8148 60.4705 18.0841 62.0144 18.7663C66.0898 20.5796 68.4955 23.7034 69.2675 28.1019C69.3034 28.2814 69.3573 28.443 69.3932 28.6226C69.3932 33.1108 69.3932 37.5812 69.3932 42.0694Z" fill="url(#paint0_linear_101_3125)"/>
<path d="M27.9035 30.7591C29.5373 31.5131 30.1656 32.8057 30.0938 34.5113C30.0579 35.6782 30.1297 36.8452 30.0399 37.9942C29.9143 39.574 28.6037 40.8308 27.0597 40.9744C25.4619 41.118 24.0077 40.1845 23.523 38.6764C23.3973 38.2814 23.3434 37.8505 23.3255 37.4197C23.3075 36.3245 23.3075 35.2294 23.3255 34.1343C23.3255 32.5723 24.0256 31.4592 25.4439 30.7591C25.6594 30.6513 25.8569 30.3282 25.9287 30.0589C26.8443 26.2887 29.7347 23.5599 33.5408 22.9136C38.3343 22.1057 42.9303 25.0859 44.1331 29.8076C44.2588 30.3282 44.4563 30.6693 44.9769 30.9386C46.1618 31.5131 46.7543 32.5544 46.7902 33.865C46.8261 35.1217 46.8261 36.3784 46.7902 37.6351C46.7363 39.1073 46.0003 40.1485 44.6358 40.759C44.3665 40.8846 44.1152 41.1539 43.9895 41.4053C43.3971 42.6081 42.5712 43.5596 41.3863 44.206C41.1529 44.3316 40.9375 44.565 40.8298 44.7984C40.2553 46.0192 39.2499 46.6117 37.9573 46.7194C36.5749 46.8451 35.372 46.4142 34.5641 45.2293C33.828 44.1521 34.0435 42.7338 35.0489 41.8182C36.4133 40.5794 38.7292 40.5794 40.0937 41.8361C40.2373 41.9618 40.363 42.1413 40.5784 42.3927C41.117 41.8182 41.5838 41.3155 42.1224 40.759C41.8531 40.5794 41.6915 40.4717 41.5299 40.364C40.6502 39.7177 40.0937 38.8739 40.0757 37.7608C40.0398 36.3963 40.0219 35.0319 40.0757 33.6675C40.1296 32.2492 40.9375 31.3156 42.1762 30.7232C42.0147 27.8866 38.8549 25.05 35.6054 24.8345C31.9071 24.6191 28.6037 27.1325 27.9035 30.7591ZM42.1044 35.7859C42.1044 36.3604 42.0865 36.9529 42.1044 37.5274C42.1224 38.3532 42.661 38.9457 43.3971 38.9457C44.1152 38.9457 44.6897 38.4071 44.7076 37.6172C44.7435 36.3784 44.7435 35.1576 44.7076 33.9188C44.6897 33.1109 44.1331 32.6082 43.3791 32.6082C42.643 32.6262 42.1224 33.1468 42.0865 33.9547C42.0865 34.5831 42.1044 35.1755 42.1044 35.7859ZM28.0112 35.8218C28.0112 35.2473 28.0112 34.6549 28.0112 34.0804C28.0112 34.0445 28.0112 33.9906 28.0112 33.9547C27.9574 33.1648 27.4367 32.6441 26.7007 32.6441C25.9825 32.6441 25.4439 33.1468 25.426 33.9188C25.3901 35.1755 25.3901 36.4323 25.426 37.671C25.4439 38.425 26.0005 38.9457 26.7007 38.9636C27.4188 38.9816 27.9933 38.425 28.0112 37.6351C28.0292 37.0247 28.0112 36.4143 28.0112 35.8218ZM37.5623 43.0031C36.8083 43.0031 36.162 43.416 36.1799 43.8828C36.1979 44.3316 36.8262 44.7266 37.5443 44.7266C38.2984 44.7266 38.9267 44.3137 38.9088 43.8289C38.8908 43.3801 38.2984 43.0031 37.5623 43.0031Z" fill="white"/>
<path d="M53.5944 28.6405C52.3018 28.6405 50.9912 28.6405 49.6986 28.6405C48.9087 28.6405 48.4598 28.2635 48.4419 27.6531C48.4239 27.0068 48.9087 26.6118 49.7166 26.6118C52.2839 26.6118 54.8691 26.6118 57.4364 26.6118C58.2263 26.6118 58.6572 26.9888 58.6572 27.6351C58.6572 28.2635 58.2084 28.6585 57.4364 28.6585C56.1438 28.6405 54.8691 28.6405 53.5944 28.6405Z" fill="white"/>
<path d="M52.5173 33.2184C51.5298 33.2184 50.5604 33.2364 49.573 33.2184C48.8728 33.2005 48.424 32.7876 48.424 32.1772C48.4419 31.6027 48.8728 31.1897 49.537 31.1897C51.5657 31.1718 53.5944 31.1718 55.6411 31.1897C56.3592 31.1897 56.7721 31.6027 56.7721 32.231C56.7542 32.8235 56.3592 33.2184 55.6591 33.2184C54.6178 33.2364 53.5765 33.2184 52.5173 33.2184Z" fill="white"/>
<path d="M16.8444 13.9907C16.8264 14.8525 16.1621 15.4988 15.3004 15.4808C14.4745 15.4629 13.8103 14.7986 13.8103 13.9907C13.7923 13.1469 14.4745 12.4647 15.3363 12.4647C16.198 12.4467 16.8623 13.129 16.8444 13.9907Z" fill="white"/>
<path d="M10.7045 12.4468C11.5662 12.4468 12.2305 13.1469 12.2126 13.9907C12.1946 14.8525 11.4944 15.4988 10.6327 15.4629C9.80683 15.4449 9.16052 14.7807 9.16052 13.9548C9.17848 13.111 9.84274 12.4468 10.7045 12.4468Z" fill="white"/>
<path d="M21.4584 13.9548C21.4584 14.8166 20.8121 15.4808 19.9503 15.4808C19.1065 15.4808 18.4602 14.8525 18.4423 14.0266C18.4243 13.1469 19.0527 12.4827 19.9144 12.4647C20.7762 12.4468 21.4404 13.0931 21.4584 13.9548Z" fill="white"/>
<defs>
<linearGradient id="paint0_linear_101_3125" x1="0.606806" y1="30.6667" x2="69.4261" y2="30.6667" gradientUnits="userSpaceOnUse">
<stop stop-color="#95E0D9"/>
<stop offset="0.5865" stop-color="#26C7BC"/>
</linearGradient>
</defs>
</svg>
