<svg width="66" height="51" viewBox="0 0 66 51" fill="none" xmlns="http://www.w3.org/2000/svg">
<path d="M40.0644 50.5428C32.4628 50.5428 25.9374 47.2972 20.6419 40.8913C20.3173 40.4984 19.9927 40.3276 19.4974 40.3276C15.7905 40.3447 12.1178 40.3447 9.3163 40.3447H2.03924C1.988 40.3447 1.78301 40.3447 1.73176 40.3447C1.62927 40.3447 1.50969 40.3447 1.39011 40.3276C0.877645 40.2422 0.484751 39.7981 0.518916 39.2685C0.535998 38.7731 0.911812 38.3461 1.42428 38.2777C1.52677 38.2606 1.64635 38.2606 1.73176 38.2606C1.78301 38.2606 1.97091 38.2606 2.02216 38.2606H18.8311L18.6262 37.9019C16.6617 34.383 15.5855 30.7444 15.3634 26.7472L15.3464 26.5251H11.4687C11.3491 26.5251 11.2295 26.5251 11.127 26.5251C11.0074 26.5251 10.905 26.5251 10.7854 26.5251C10.6316 26.5251 10.4779 26.5251 10.3412 26.5251C9.67503 26.508 9.21381 26.0639 9.21381 25.466C9.23089 24.8852 9.69211 24.4582 10.3242 24.4582C10.9391 24.4582 11.5541 24.4582 12.152 24.4582C12.5449 24.4582 15.278 24.4582 15.278 24.4582L15.9442 19.6239H2.00508C1.95383 19.6239 1.73176 19.6239 1.73176 19.6239C1.62927 19.6239 1.52677 19.6239 1.4072 19.6068C0.894728 19.5214 0.501833 19.0772 0.518916 18.5648C0.535998 18.0694 0.911811 17.6423 1.4072 17.574C1.50969 17.5569 1.62927 17.5569 1.73176 17.5569C1.78301 17.5569 1.97091 17.5569 2.02216 17.5569H16.5421L18.7116 12.7226H12.6986C11.3833 12.7226 10.0508 12.7226 8.7355 12.7226C8.27428 12.7226 7.91556 12.603 7.6764 12.3639C7.50558 12.1931 7.42017 11.9539 7.42017 11.6635C7.43725 11.0144 7.89847 10.6557 8.71842 10.6557H9.98251C11.2295 10.6557 12.4765 10.6557 13.7406 10.6557C16.0126 10.6557 17.8404 10.6557 19.5315 10.6727C20.0269 10.6727 20.3515 10.5019 20.676 10.109C25.8861 3.70316 32.5482 0.45752 40.5086 0.45752C40.8844 0.45752 41.2602 0.457519 41.636 0.474602C53.3032 0.901659 63.1939 9.66488 65.1413 21.315C65.2438 21.8958 65.3121 22.4937 65.3975 23.0574C65.4317 23.3307 65.4658 23.587 65.5 23.8603V27.1401C65.4317 27.55 65.3804 27.96 65.3121 28.3871C65.1754 29.2754 65.0558 30.1807 64.8509 31.069C62.6643 40.9597 54.5331 48.6467 44.6254 50.1841C43.0538 50.4232 41.5335 50.5428 40.0644 50.5428ZM40.389 2.49031C27.731 2.49031 17.4304 12.7909 17.4133 25.4489C17.3962 31.5815 19.7878 37.3553 24.1437 41.7113C28.4997 46.0673 34.2735 48.4759 40.4061 48.4759H40.4403C53.0641 48.4759 63.3818 38.1923 63.433 25.5343C63.4501 19.4018 61.0757 13.628 56.7368 9.2549C52.3979 4.88183 46.624 2.47323 40.4744 2.45615L40.389 2.49031Z" fill="url(#paint0_linear_101_3137)"/>
<path d="M4.96033 33.4434C3.88414 33.4434 2.80796 33.4434 1.73177 33.4434C1.3218 33.4434 0.980154 33.3238 0.758084 33.1018C0.587261 32.9139 0.484767 32.6747 0.501849 32.3843C0.518932 31.7523 0.980151 31.3765 1.73177 31.3765C2.15883 31.3765 2.58589 31.3765 3.01294 31.3765H4.97741H6.94187C7.36893 31.3765 7.79599 31.3765 8.22305 31.3765C8.63302 31.3765 8.97467 31.5131 9.19674 31.7352C9.36756 31.9231 9.47006 32.1623 9.45297 32.4356C9.43589 33.0505 8.95758 33.4434 8.22305 33.4434C7.14686 33.4434 6.05359 33.4434 4.96033 33.4434Z" fill="url(#paint1_linear_101_3137)"/>
<path d="M40.3036 45.0594C29.5076 44.991 20.7786 36.1766 20.8298 25.4147C20.8811 14.67 29.6443 5.92383 40.389 5.92383H40.4745C45.7016 5.94091 50.6213 8.00787 54.3282 11.7489C58.018 15.4728 60.0166 20.3925 59.9824 25.6026C59.9141 36.3303 51.1509 45.0594 40.4403 45.0594H40.3036ZM40.4061 7.99079C30.84 7.99079 22.9822 15.7803 22.9139 25.3464C22.8797 30.0099 24.6733 34.4171 27.9702 37.7652C31.2671 41.0963 35.6572 42.9583 40.3207 42.9753H40.4232C50.0064 42.9753 57.8472 35.1687 57.8984 25.5856C57.9667 15.9511 50.1601 8.05912 40.5257 7.99079H40.4061Z" fill="url(#paint2_linear_101_3137)"/>
<path d="M40.389 27.8064C40.1157 27.8064 39.8253 27.7551 39.5519 27.6526C38.6295 27.2939 38.0487 26.3715 38.0658 25.3124C38.0658 24.9707 37.912 24.5437 37.6729 24.2874C37.3142 23.8774 36.9213 23.4845 36.5284 23.1258C36.3063 22.9038 36.0842 22.6817 35.8622 22.4596C35.3497 21.9301 35.2985 21.3151 35.7426 20.871C35.9476 20.666 36.1696 20.5635 36.4259 20.5635C36.7334 20.5635 37.0408 20.7172 37.3312 20.9905C37.5533 21.2126 37.7925 21.4518 38.0145 21.6738C38.3903 22.0496 38.7662 22.4425 39.1591 22.7842C39.4153 23.0233 39.8423 23.1771 40.184 23.1771C40.9869 23.1771 41.6189 23.4504 42.1826 24.0141C42.4218 24.2703 42.8147 24.4412 43.1392 24.4412C44.9329 24.4582 46.6753 24.4582 48.1614 24.4582H51.9024H52.2099C52.2783 24.4582 52.3295 24.4582 52.3978 24.4582C53.0811 24.4753 53.5594 24.8853 53.5594 25.4832C53.5594 26.0811 53.0982 26.5081 52.4149 26.5252C51.7658 26.5252 51.1167 26.5252 50.4675 26.5252C50.0234 26.5252 47.649 26.5252 47.649 26.5252C47.2731 26.5252 46.8973 26.5252 46.5215 26.5252C46.1457 26.5252 45.7699 26.5252 45.3941 26.5252C44.4546 26.5252 43.7371 26.5252 43.0709 26.5423C42.7634 26.5423 42.3876 26.7302 42.1655 26.9693C41.7043 27.516 41.0552 27.8064 40.389 27.8064Z" fill="white"/>
<path d="M40.389 14.3797C39.8423 14.3797 39.3811 13.9185 39.364 13.3548C39.364 13.0814 39.4665 12.8252 39.6715 12.6202C39.8594 12.4152 40.1327 12.3127 40.389 12.3127C40.9527 12.3298 41.4139 12.791 41.4139 13.3377C41.4139 13.611 41.3114 13.8672 41.1064 14.0722C40.9356 14.2772 40.6794 14.3797 40.389 14.3797Z" fill="white"/>
<path d="M40.3719 38.6707C39.8252 38.6536 39.364 38.1753 39.364 37.6458C39.364 37.3725 39.4665 37.1162 39.6715 36.9283C39.8765 36.7233 40.1327 36.6208 40.406 36.6208H40.4231C40.9697 36.6379 41.431 37.0992 41.431 37.6458C41.431 37.9191 41.3285 38.1753 41.1235 38.3803C40.9185 38.5853 40.6623 38.6878 40.406 38.6878L40.3719 38.6707Z" fill="white"/>
<path d="M28.2606 26.5252C27.9873 26.5252 27.7311 26.4056 27.5261 26.2177C27.3382 26.0127 27.2186 25.7565 27.2186 25.4832C27.2357 24.9366 27.6969 24.4753 28.2436 24.4583C28.8073 24.4583 29.2685 24.9024 29.2856 25.449C29.3027 25.7223 29.2002 25.9957 28.9952 26.2006C28.8073 26.4056 28.551 26.5252 28.2606 26.5252Z" fill="white"/>
<defs>
<linearGradient id="paint0_linear_101_3137" x1="0.516841" y1="25.6393" x2="65.5311" y2="25.6393" gradientUnits="userSpaceOnUse">
<stop stop-color="#95E0D9"/>
<stop offset="0.5865" stop-color="#26C7BC"/>
</linearGradient>
<linearGradient id="paint1_linear_101_3137" x1="0.499999" y1="32.4157" x2="9.45911" y2="32.4157" gradientUnits="userSpaceOnUse">
<stop stop-color="#95E0D9"/>
<stop offset="0.5865" stop-color="#26C7BC"/>
</linearGradient>
<linearGradient id="paint2_linear_101_3137" x1="20.8296" y1="25.6003" x2="60.0016" y2="25.6003" gradientUnits="userSpaceOnUse">
<stop stop-color="#95E0D9"/>
<stop offset="0.5865" stop-color="#26C7BC"/>
</linearGradient>
</defs>
</svg>
