<svg width="24" height="25" viewBox="0 0 24 25" fill="none" xmlns="http://www.w3.org/2000/svg">
<g clip-path="url(#clip0_1222_15174)">
<path d="M22.3189 4.29429L8.49988 18.1123C8.40697 18.2056 8.29655 18.2796 8.17497 18.3301C8.05339 18.3806 7.92303 18.4066 7.79138 18.4066C7.65972 18.4066 7.52937 18.3806 7.40778 18.3301C7.2862 18.2796 7.17579 18.2056 7.08288 18.1123L1.73888 12.7633C1.64597 12.67 1.53555 12.596 1.41397 12.5455C1.29239 12.495 1.16203 12.469 1.03038 12.469C0.898723 12.469 0.768365 12.495 0.646783 12.5455C0.5252 12.596 0.414787 12.67 0.321877 12.7633C0.2286 12.8562 0.154588 12.9666 0.104086 13.0882C0.0535845 13.2098 0.0275879 13.3401 0.0275879 13.4718C0.0275879 13.6034 0.0535845 13.7338 0.104086 13.8554C0.154588 13.977 0.2286 14.0874 0.321877 14.1803L5.66788 19.5253C6.23182 20.0882 6.99607 20.4043 7.79288 20.4043C8.58968 20.4043 9.35393 20.0882 9.91788 19.5253L23.7359 5.71029C23.829 5.6174 23.9029 5.50705 23.9533 5.38556C24.0037 5.26407 24.0297 5.13382 24.0297 5.00229C24.0297 4.87075 24.0037 4.74051 23.9533 4.61902C23.9029 4.49753 23.829 4.38718 23.7359 4.29429C23.643 4.20101 23.5326 4.127 23.411 4.0765C23.2894 4.026 23.159 4 23.0274 4C22.8957 4 22.7654 4.026 22.6438 4.0765C22.5222 4.127 22.4118 4.20101 22.3189 4.29429Z" fill="#26C7BC"/>
</g>
<defs>
<clipPath id="clip0_1222_15174">
<rect width="24" height="24" fill="white" transform="translate(0 0.5)"/>
</clipPath>
</defs>
</svg>
