<svg width="460" height="171" viewBox="0 0 460 171" fill="none" xmlns="http://www.w3.org/2000/svg">
<g clip-path="url(#clip0_7_2864)">
<g opacity="0.5">
<path d="M225.623 71.399H219.135V68.6956H225.623V71.399Z" fill="#2DC9BE"/>
<path d="M226.57 71.9882H218.325V70.7716H226.57V71.9882Z" fill="#2DC9BE"/>
<path d="M228.597 75.0791H216.296V71.9701H228.597V75.0791Z" fill="#2DC9BE"/>
<path d="M223.221 41.4981H221.599L222.139 27.0345H222.545L223.221 41.4981Z" fill="#2DC9BE"/>
<path d="M224.167 41.2278V69.2086H220.653V41.2278H224.167ZM222.14 53.5285H221.734V67.9921H222.14V53.5285ZM223.086 53.5285H222.68V67.9921H223.086V53.5285Z" fill="#2DC9BE"/>
<path d="M395.837 121.926H414.761V187.621H395.837V121.926Z" fill="#2DC9BE"/>
<path d="M293.783 187.756V61.9093L339.471 40.6871H356.503V37.0375H357.179V70.1549H360.559V47.8513H379.212V70.1549H382.457V104.624H385.971V187.756H293.783Z" fill="#2DC9BE"/>
<path d="M437.471 115.573H449.772V187.756H437.471V115.573Z" fill="#2DC9BE"/>
<path d="M441.526 104.219H464.235V187.756H441.526V104.219Z" fill="#2DC9BE"/>
<path d="M423.008 42.0389H452.34V186.674H423.008V42.0389Z" fill="#2DC9BE"/>
<path d="M238.141 179.884H213.269L213.269 54.9837H238.141V179.884Z" fill="#2DC9BE"/>
<path d="M201.729 78.4005H226.601V187.621H201.729V78.4005Z" fill="#2DC9BE"/>
<path d="M236.737 40.552V62.5852H253.634V54.0693H262.961V50.5548H267.827V54.0693H291.077C291.212 54.2045 291.212 54.3397 291.348 54.4748V92.1882H301.08V187.756H235.115V40.552H236.737Z" fill="#2DC9BE"/>
<path d="M375.968 121.926V125.846H374.617V133.686H370.021V187.756H394.082V121.926H375.968Z" fill="#B5EEF2"/>
<path d="M421.654 76.5083H429.494V77.1842H421.654V76.5083Z" fill="#FFFFFB"/>
<path d="M419.494 77.1843H431.389V89.0796H419.494V77.1843Z" fill="#D2F5EF"/>
<path d="M407.55 113.867H405.928V55.0666H407.55V113.867Z" fill="#52EEE3"/>
<path d="M404.016 113.867H402.394V55.0666H404.016V113.867Z" fill="#52EEE3"/>
<path d="M398.273 72.1827H423.551V137.742H398.273V72.1827Z" fill="#56D7CE"/>
<path d="M382.187 115.438H410.574V95.8379L382.187 115.438Z" fill="#23BDB2"/>
<path d="M408.006 89.4847H442.205V187.756H408.006V89.4847Z" fill="#56D7CE"/>
<path d="M380.565 113.816H411.925V187.62H380.565V113.816Z" fill="#52EEE3"/>
<path d="M4.10349 139.634V142.743H3.15726V148.826H-0.49245V191H18.2967V139.634H4.10349Z" fill="#B5EEF2"/>
<path d="M39.654 104.219H45.872V104.759H39.654V104.219Z" fill="#FFFFFB"/>
<path d="M38.168 104.759H47.3598V114.086H38.168V104.759Z" fill="#D2F5EF"/>
<path d="M28.6882 133.342H27.4716L27.4716 87.5184H28.6882L28.6882 133.342Z" fill="#52EEE3"/>
<path d="M25.8945 133.342H24.6779L24.6779 87.5184H25.8945L25.8945 133.342Z" fill="#52EEE3"/>
<path d="M21.5413 100.839H41.2767V151.935H21.5413V100.839Z" fill="#56D7CE"/>
<path d="M8.96991 134.633H31.1384V119.223L8.96991 134.633Z" fill="#23BDB2"/>
<path d="M29.1116 114.357H55.7408V191H29.1116V114.357Z" fill="#56D7CE"/>
<path d="M7.7529 133.416H32.2193V191H7.7529V133.416Z" fill="#52EEE3"/>
<path d="M324.738 0H337.445V84.8888H324.738V0Z" fill="#B7EEF2"/>
<path d="M300.678 3.24402H347.177V108.138H300.678V3.24402Z" fill="#52EEE3"/>
<path d="M352.442 83.873H344.061V81.5751H352.442V83.873Z" fill="#23BDB2"/>
<path d="M353.524 84.3623H342.98V83.4161H353.524V84.3623Z" fill="#23BDB2"/>
<path d="M356.093 100.611H340.278V84.2552H356.093V100.611Z" fill="#B7EEF2"/>
<path d="M330.011 45.1478V187.756H293.784V61.9093L330.011 45.1478Z" fill="#52EEE3"/>
<path d="M337.987 76.1024H359.615V187.756H337.987V76.1024Z" fill="#B7EEF2"/>
<path d="M341.77 87.0514H343.528V158.153H341.77V87.0514Z" fill="#C0F3EA"/>
<path d="M345.692 87.0514H347.449V158.153H345.692V87.0514Z" fill="#C0F3EA"/>
<path d="M349.61 87.0514H351.367V158.153H349.61V87.0514Z" fill="#C0F3EA"/>
<path d="M353.531 87.0514H355.288V158.153H353.531V87.0514Z" fill="#C0F3EA"/>
<path d="M317.306 73.8046H329.742V87.0516H317.306V73.8046Z" fill="#52EEE3"/>
<path d="M130.627 43.9315H140.36V108.95H130.627V43.9315Z" fill="#B7EEF2"/>
<path d="M112.379 46.3645H147.929V126.793H112.379V46.3645Z" fill="#52EEE3"/>
<path d="M151.936 108.127H145.448V106.37H151.936V108.127Z" fill="#23BDB2"/>
<path d="M152.748 108.497H144.638V107.686H152.748V108.497Z" fill="#23BDB2"/>
<path d="M154.777 120.964H142.611V108.393H154.777V120.964Z" fill="#B7EEF2"/>
<path d="M134.685 78.5356V187.756H106.974V91.3771L134.685 78.5356Z" fill="#52EEE3"/>
<path d="M140.901 102.191H157.392V187.756H140.901V102.191Z" fill="#2DC9BE"/>
<path d="M143.74 110.572H145.092V165.046H143.74V110.572Z" fill="#C0F3EA"/>
<path d="M146.715 110.572H148.067V165.046H146.715V110.572Z" fill="#C0F3EA"/>
<path d="M149.688 110.572H151.04V165.046H149.688V110.572Z" fill="#C0F3EA"/>
<path d="M152.797 110.572H154.149V165.046H152.797V110.572Z" fill="#C0F3EA"/>
<path d="M124.815 100.434H134.413V110.572H124.815V100.434Z" fill="#52EEE3"/>
<path d="M436.751 41.4741H424.991V29.4437H436.751V41.4741Z" fill="#B5EEF2"/>
<path d="M493.702 187.756L492.35 111.923H490.728V104.218L463.829 101.38V116.654H460.72V33.2524H422.601V114.762H419.221V187.756H493.702Z" fill="#84FEF5"/>
<path d="M148.066 121.926H166.99V187.621H148.066V121.926Z" fill="#2DC9BE"/>
<path d="M53.7125 187.756V91.3772L88.7224 75.1564H101.699V72.1826H102.105V97.7304H104.808V80.5633H119.137V97.7304H121.57V124.089H124.273V187.756H53.7125Z" fill="#2DC9BE"/>
<path d="M175.369 42.0388H204.702V186.674H175.369V42.0388Z" fill="#2DC9BE"/>
<path d="M128.33 121.926V125.846H126.978V133.686H122.382V187.756H146.443V121.926H128.33Z" fill="#B5EEF2"/>
<path d="M173.882 76.5084H181.722V77.1843H173.882V76.5084Z" fill="#FFFFFB"/>
<path d="M171.854 77.1841H183.75V89.0794H171.854V77.1841Z" fill="#D2F5EF"/>
<path d="M159.857 113.867H158.234V55.0667H159.857V113.867Z" fill="#52EEE3"/>
<path d="M156.323 113.867H154.701V55.0667H156.323V113.867Z" fill="#52EEE3"/>
<path d="M150.633 72.1829H175.91V137.742H150.633V72.1829Z" fill="#56D7CE"/>
<path d="M134.548 115.438H162.799V95.838L134.548 115.438Z" fill="#23BDB2"/>
<path d="M160.365 89.4849H194.564V187.756H160.365V89.4849Z" fill="#56D7CE"/>
<path d="M132.924 113.816H164.285V187.621H132.924V113.816Z" fill="#52EEE3"/>
<path d="M78.5843 70.4253H85.0727V113.951H78.5843V70.4253Z" fill="#B7EEF2"/>
<path d="M66.2836 72.0474H90.0742V125.846H66.2836V72.0474Z" fill="#52EEE3"/>
<path d="M92.8195 113.435H88.494V112.218H92.8195V113.435Z" fill="#23BDB2"/>
<path d="M93.3594 113.642H87.9525V113.101H93.3594V113.642Z" fill="#23BDB2"/>
<path d="M94.7105 122H86.6001V113.619H94.7105V122Z" fill="#B7EEF2"/>
<path d="M81.2882 93.5402V166.804H62.6343V102.191L81.2882 93.5402Z" fill="#52EEE3"/>
<path d="M85.3446 109.355H96.4289V166.669H85.3446V109.355Z" fill="#52EEE3"/>
<path d="M87.238 115.033H88.1843V151.529H87.238V115.033Z" fill="#C0F3EA"/>
<path d="M89.2667 115.033H90.2129V151.529H89.2667V115.033Z" fill="#C0F3EA"/>
<path d="M91.2932 115.033H92.2394V151.529H91.2932V115.033Z" fill="#C0F3EA"/>
<path d="M93.3204 115.033H94.2667V151.529H93.3204V115.033Z" fill="#C0F3EA"/>
<path d="M74.801 108.274H81.1542V115.033H74.801V108.274Z" fill="#52EEE3"/>
<path d="M189.195 41.4741H177.435V29.4437H189.195V41.4741Z" fill="#B5EEF2"/>
<path d="M246.063 187.756L244.711 111.923H243.089V104.218L216.189 101.38V116.654H213.08V33.2524H174.961V114.762H171.447V187.756H246.063Z" fill="#84FEF5"/>
<path d="M241.702 131.557H230.077V128.448H241.702V131.557Z" fill="#2DC9BE"/>
<path d="M241.702 137.34H230.077V134.231H241.702V137.34Z" fill="#2DC9BE"/>
<path d="M241.702 143.124H230.077V140.015H241.702V143.124Z" fill="#2DC9BE"/>
<path d="M241.702 148.907H230.077V145.798H241.702V148.907Z" fill="#2DC9BE"/>
<path d="M241.702 154.691H230.077V151.582H241.702V154.691Z" fill="#2DC9BE"/>
<path d="M241.702 160.474H230.077V157.365H241.702V160.474Z" fill="#2DC9BE"/>
<path d="M241.702 166.258H230.077V163.149H241.702V166.258Z" fill="#2DC9BE"/>
<path d="M241.702 172.041H230.077V168.932H241.702V172.041Z" fill="#2DC9BE"/>
<path d="M234.713 129.361H259.99V187.621H234.713V129.361Z" fill="#52EEE3"/>
<path d="M247.147 95.7025V27.44H252.554V24.1959H253.77V23.6552H254.311V22.709H255.257V15.9503H255.798L256.068 10.0027H256.338L256.609 15.9503H257.149V22.709H258.096V23.6552H258.636V24.1959H259.853V27.44H274.857L283.508 37.9835V95.7025H247.147ZM256.338 22.709H256.609V16.6262H256.338V22.709ZM255.798 22.709H256.068V16.6262H255.798V22.709Z" fill="#D2F5EF"/>
<path d="M268.37 67.9921H300.271V146.663H268.37V67.9921Z" fill="#B7EEF2"/>
<path d="M458.017 113.681H479.375V123.413H458.017V113.681Z" fill="#56D7CE"/>
<path d="M235.117 62.4502H279.724V187.621H235.117V62.4502Z" fill="#56D7CE"/>
<path d="M244.578 87.1869H271.612V187.35H244.578V87.1869Z" fill="#52EEE3"/>
</g>
</g>
<defs>
<clipPath id="clip0_7_2864">
<rect width="460" height="171" fill="white"/>
</clipPath>
</defs>
</svg>
