<svg width="404" height="231" viewBox="0 0 404 231" fill="none" xmlns="http://www.w3.org/2000/svg">
<path d="M351.053 100.144C354.686 87.977 347.42 78.2432 334.1 84.3268L324.413 87.977L284.452 103.795L204.532 135.429L123.4 168.281C100.393 178.015 123.4 181.665 133.088 184.099L174.259 196.266H171.837C203.321 175.582 261.445 139.08 292.929 118.395C297.773 115.962 303.827 109.878 311.093 112.312C313.514 113.528 315.594 117.179 314.383 119.612C313.172 122.045 312.304 123.262 311.093 124.479L208.165 219.384L210.586 215.734L206.954 272.92L200.899 265.62C204.532 265.62 204.532 265.62 206.954 261.969C213.008 257.102 227.539 241.285 233.594 235.201C236.016 232.768 239.648 232.768 242.07 235.201C260.234 248.585 280.82 264.403 296.562 276.57C312.304 287.521 311.093 258.319 315.936 248.585C328.045 201.133 341.366 147.597 351.053 100.144ZM352.264 100.144C342.576 148.814 332.889 202.35 324.413 251.019C320.78 269.27 319.569 300.905 292.929 286.304C273.554 272.92 255.39 259.536 236.016 246.152H244.492L226.328 264.403C221.485 268.053 216.641 275.353 210.586 277.787C204.532 280.22 194.844 281.437 196.055 272.92L199.688 215.734C199.688 214.517 200.899 212.083 202.11 212.083L306.249 119.612C305.038 120.829 306.249 123.262 307.46 123.262C308.671 123.262 307.46 123.262 306.249 123.262C305.038 124.479 301.405 126.912 297.773 128.129C286.874 135.429 256.601 153.68 245.703 160.981L175.47 204.783C174.259 204.783 173.048 206 173.048 204.783L131.877 190.182C125.822 187.749 116.135 187.749 110.08 181.665C101.604 173.148 113.713 163.414 120.978 162.198C160.939 147.597 243.281 117.179 283.242 101.361L323.703 85.8986L333.355 82.5701C347.588 77.3704 355.897 86.7603 352.264 100.144Z" fill="url(#paint0_linear_1230_15448)"/>
<circle opacity="0.1" cx="272.845" cy="240.909" r="271.5" transform="rotate(-90 272.845 240.909)" stroke="white"/>
<circle opacity="0.5" cx="272.845" cy="240.909" r="217.1" transform="rotate(-90 272.845 240.909)" stroke="white"/>
<circle opacity="0.25" cx="272.845" cy="240.91" r="244.3" transform="rotate(-90 272.845 240.91)" stroke="white"/>
<path d="M124.163 45.9358C123.955 46.117 123.933 46.4328 124.114 46.6412C124.295 46.8496 124.611 46.8718 124.819 46.6906L124.163 45.9358ZM124.819 46.6906C127.814 44.0877 133.997 39.8907 140.506 35.7948C147.007 31.7036 153.794 27.7388 157.978 25.6007L157.523 24.7102C153.3 26.8679 146.485 30.8504 139.973 34.9484C133.468 39.0417 127.224 43.2758 124.163 45.9358L124.819 46.6906Z" fill="url(#paint1_linear_1230_15448)"/>
<defs>
<linearGradient id="paint0_linear_1230_15448" x1="348" y1="76.5789" x2="245.817" y2="289.932" gradientUnits="userSpaceOnUse">
<stop stop-color="white"/>
<stop offset="1" stop-color="white" stop-opacity="0"/>
</linearGradient>
<linearGradient id="paint1_linear_1230_15448" x1="124.491" y1="46.3132" x2="153.796" y2="27.5155" gradientUnits="userSpaceOnUse">
<stop stop-color="#2DC9BE" stop-opacity="0"/>
<stop offset="1" stop-color="white"/>
</linearGradient>
</defs>
</svg>
