<svg width="607" height="300" viewBox="0 0 607 300" fill="none" xmlns="http://www.w3.org/2000/svg">
<path d="M526.086 105.9C531.543 87.6223 520.628 73.0001 500.619 82.139L486.067 87.6223L426.038 111.383L305.981 158.906L184.105 208.256C149.543 222.878 184.105 228.361 198.657 232.017L260.505 250.295H256.867C304.162 219.222 391.476 164.389 438.771 133.317C446.048 129.661 455.143 120.522 466.057 124.178C469.695 126.006 472.819 131.489 471 135.145C469.181 138.8 467.876 140.628 466.057 142.456L311.438 285.022L315.076 279.539L309.619 365.445L300.524 354.478C305.981 354.478 305.981 354.478 309.619 348.995C318.714 341.683 340.543 317.922 349.638 308.783C353.276 305.128 358.733 305.128 362.371 308.783C389.657 328.889 420.581 352.65 444.228 370.928C467.876 387.378 466.057 343.511 473.333 328.889C491.524 257.606 511.533 177.183 526.086 105.9ZM527.905 105.9C513.352 179.011 498.8 259.433 486.067 332.545C480.609 359.961 478.79 407.483 438.771 385.55C409.667 365.445 382.381 345.339 353.276 325.233H366.009L338.724 352.65C331.448 358.133 324.171 369.1 315.076 372.756C305.981 376.411 291.428 378.239 293.248 365.445L298.705 279.539C298.705 277.711 300.524 274.056 302.343 274.056L458.781 135.145C456.962 136.972 458.781 140.628 460.6 140.628C462.419 140.628 460.6 140.628 458.781 140.628C456.962 142.456 451.505 146.111 446.048 147.939C429.676 158.906 384.2 186.322 367.828 197.289L262.324 263.089C260.505 263.089 258.686 264.917 258.686 263.089L196.838 241.156C187.743 237.5 173.19 237.5 164.095 228.361C151.362 215.567 169.552 200.945 180.467 199.117C240.495 177.183 364.19 131.489 424.219 107.728L485 84.5001L499.5 79.5001C520.881 71.689 533.362 85.7945 527.905 105.9Z" fill="url(#paint0_linear_1222_15299)"/>
<circle opacity="0.1" cx="408.6" cy="317.358" r="408.1" transform="rotate(-90 408.6 317.358)" stroke="white"/>
<circle opacity="0.5" cx="408.6" cy="317.358" r="326.38" transform="rotate(-90 408.6 317.358)" stroke="white"/>
<circle opacity="0.25" cx="408.6" cy="317.358" r="367.24" transform="rotate(-90 408.6 317.358)" stroke="white"/>
<path d="M185.416 24.6578C185.207 24.839 185.185 25.1548 185.366 25.3632C185.547 25.5716 185.863 25.5938 186.072 25.4126L185.416 24.6578ZM186.072 25.4126C190.587 21.4881 199.89 15.1741 209.667 9.02184C219.436 2.87433 229.638 -3.08606 235.933 -6.30283L235.478 -7.19331C229.145 -3.95701 218.914 2.02115 209.134 8.17547C199.362 14.325 189.997 20.6762 185.416 24.6578L186.072 25.4126Z" fill="url(#paint1_linear_1222_15299)"/>
<defs>
<linearGradient id="paint0_linear_1222_15299" x1="521.5" y1="70.5001" x2="368" y2="391" gradientUnits="userSpaceOnUse">
<stop stop-color="white"/>
<stop offset="1" stop-color="white" stop-opacity="0"/>
</linearGradient>
<linearGradient id="paint1_linear_1222_15299" x1="185.744" y1="25.0352" x2="229.766" y2="-3.20284" gradientUnits="userSpaceOnUse">
<stop stop-color="#2DC9BE" stop-opacity="0"/>
<stop offset="1" stop-color="white"/>
</linearGradient>
</defs>
</svg>
