<svg width="360" height="230" viewBox="0 0 360 230" fill="none" xmlns="http://www.w3.org/2000/svg">
<path d="M396.395 155.396C398.648 147.849 394.142 141.812 385.88 145.585L379.872 147.849L355.087 157.66L305.518 177.281L255.197 197.657C240.927 203.694 255.197 205.958 261.206 207.467L286.741 215.014H285.239C304.767 202.184 340.817 179.545 360.344 166.716C363.349 165.206 367.104 161.433 371.61 162.942C373.112 163.697 374.402 165.961 373.651 167.47C372.9 168.98 372.361 169.734 371.61 170.489L307.771 229.352L309.273 227.088L307.02 262.557L303.265 258.029C305.518 258.029 305.518 258.029 307.02 255.765C310.775 252.746 319.788 242.936 323.543 239.163C325.045 237.653 327.298 237.653 328.8 239.163C340.066 247.464 352.834 257.274 362.598 264.821C372.361 271.613 371.61 253.501 374.614 247.464C382.125 218.032 390.386 184.827 396.395 155.396ZM397.146 155.396C391.137 185.582 385.129 218.787 379.872 248.973C377.619 260.293 376.868 279.914 360.344 270.858C348.328 262.557 337.062 254.256 325.045 245.954H330.302L319.037 257.274C316.032 259.538 313.028 264.066 309.273 265.575C305.518 267.085 299.509 267.839 300.26 262.557L302.514 227.088C302.514 226.333 303.265 224.824 304.016 224.824L368.606 167.47C367.855 168.225 368.606 169.734 369.357 169.734C370.108 169.734 369.357 169.734 368.606 169.734C367.855 170.489 365.602 171.998 363.349 172.753C356.589 177.281 337.813 188.601 331.053 193.129L287.493 220.296C286.741 220.296 285.99 221.051 285.99 220.296L260.455 211.24C256.699 209.731 250.691 209.731 246.936 205.958C241.678 200.675 249.189 194.638 253.695 193.883C278.48 184.827 329.551 165.961 354.336 156.151L379.431 146.56L385.418 144.496C394.246 141.271 399.399 147.095 397.146 155.396Z" fill="url(#paint0_linear_1230_15608)"/>
<circle opacity="0.1" cx="347.888" cy="242.703" r="168.203" transform="rotate(-90 347.888 242.703)" stroke="white"/>
<circle opacity="0.5" cx="347.888" cy="242.703" r="134.462" transform="rotate(-90 347.888 242.703)" stroke="white"/>
<circle opacity="0.25" cx="347.888" cy="242.703" r="151.333" transform="rotate(-90 347.888 242.703)" stroke="white"/>
<path d="M255.546 121.631C255.338 121.812 255.315 122.128 255.497 122.336C255.678 122.545 255.994 122.567 256.202 122.386L255.546 121.631ZM256.202 122.386C258.047 120.782 261.87 118.186 265.908 115.645C269.938 113.109 274.142 110.653 276.73 109.331L276.275 108.44C273.649 109.782 269.416 112.256 265.375 114.799C261.342 117.337 257.457 119.97 255.546 121.631L256.202 122.386Z" fill="url(#paint1_linear_1230_15608)"/>
<defs>
<linearGradient id="paint0_linear_1230_15608" x1="394.502" y1="140.78" x2="331.124" y2="273.108" gradientUnits="userSpaceOnUse">
<stop stop-color="white"/>
<stop offset="1" stop-color="white" stop-opacity="0"/>
</linearGradient>
<linearGradient id="paint1_linear_1230_15608" x1="255.874" y1="122.008" x2="274.05" y2="110.349" gradientUnits="userSpaceOnUse">
<stop stop-color="#2DC9BE" stop-opacity="0"/>
<stop offset="1" stop-color="white"/>
</linearGradient>
</defs>
</svg>
