<svg width="60" height="60" viewBox="0 0 60 60" fill="none" xmlns="http://www.w3.org/2000/svg">
<path d="M5.92067 22.1649V22.9975L7.91608 23.0142V22.3147V3.44713C7.91608 2.29809 8.19642 2.01499 9.3343 2.01499H32.2239C33.3617 2.01499 33.6421 2.29809 33.6421 3.44713V8.76923C34.2455 7.29231 35.2128 6.5153 35.621 6.31141V3.34721C35.6045 1.21565 34.4172 0 32.3228 0H9.25185C7.10801 0 5.92067 1.199 5.92067 3.36387V22.1649Z" fill="#26C7BC"/>
<path fill-rule="evenodd" clip-rule="evenodd" d="M5.17857 22.9809C5.39295 22.9975 5.62383 22.9975 5.92067 22.9975L7.91608 23.0142C8.40738 23.0142 8.88733 23.0103 9.35979 23.0066C10.2829 22.9992 11.1774 22.9921 12.0718 23.0142C14.5455 23.0808 16.6069 25.1124 16.8047 27.5937C17.0026 30.1082 15.3041 32.4729 12.8469 32.856C11.903 33.0052 10.9356 32.9962 9.96632 32.987C9.53 32.9829 9.09329 32.9788 8.65817 32.9892H7.93257H5.92067V32.3064C5.92067 31.3239 6.25048 31.0075 7.22345 31.0075C7.67542 31.0075 8.12739 31.0102 8.57974 31.0129C9.71187 31.0197 10.8464 31.0265 11.9894 30.9909C13.589 30.9575 14.8423 29.5754 14.8258 27.96C14.8093 26.378 13.556 25.0291 11.9729 25.0125C9.58167 24.9792 7.19047 24.9792 4.79927 25.0125C3.2656 25.0291 1.96281 26.3114 1.97931 27.8601C2.01229 30.3081 2.07825 32.7727 2.27614 35.204C2.50701 38.1182 2.79445 41.0323 3.08188 43.9465C3.20507 45.1955 3.32827 46.4446 3.44701 47.6936L3.47406 47.9839C3.59704 49.3045 3.72101 50.6356 3.85929 51.9234C3.90175 51.9356 3.93305 51.9456 3.95731 51.9534C3.99899 51.9667 4.01983 51.9734 4.04068 51.9734H23.8794C24.0443 51.9734 24.2587 51.8901 24.3411 51.7569C25.0466 50.7891 25.7305 49.7997 26.4537 48.7536C26.6265 48.5036 26.8016 48.2503 26.9797 47.9933L30.058 47.9647C29.5 48.0299 29.1101 48.3177 28.7607 48.8926C28.2534 49.7063 27.6981 50.4957 27.1418 51.2865C26.7759 51.8066 26.4096 52.3274 26.0562 52.856C25.8583 53.1391 25.7429 53.5387 25.7429 53.8884C25.7182 55.0996 25.7212 56.3202 25.7243 57.5431C25.7254 57.9511 25.7264 58.3594 25.7264 58.7677C25.7264 59.6336 25.3636 60 24.5226 60H3.18315C2.32561 60 1.97931 59.6503 1.96282 58.7843C1.96282 58.545 1.95913 58.3076 1.95546 58.0708C1.94814 57.5989 1.94086 57.1296 1.96282 56.6528C2.07712 53.8698 1.80019 51.1066 1.52372 48.348C1.44119 47.5245 1.35871 46.7015 1.28668 45.8784C1.14926 44.3242 0.997516 42.7699 0.845777 41.2157C0.63334 39.0397 0.420903 36.8637 0.247747 34.6878C0.0828363 32.5562 0.0168721 30.408 0.000381089 28.2598C-0.032601 25.1291 2.07826 22.9975 5.17857 22.9809ZM31.4688 48.1414C31.6083 48.254 31.6946 48.4588 31.8635 48.8592L31.8775 48.8926C32.5042 50.3747 32.7351 51.8901 32.6691 53.5054C32.6121 54.6924 32.6261 55.8873 32.6401 57.0848C32.6464 57.6177 32.6526 58.1511 32.6526 58.6844C32.6526 59.6336 32.9989 59.9667 33.9224 59.9667H53.151C54.0745 59.9667 54.4208 59.617 54.4208 58.6844C54.429 57.5187 54.429 56.353 54.429 55.1874V55.1859C54.429 54.0207 54.429 52.8555 54.4373 51.6903C54.4373 51.3406 54.4868 50.9742 54.6022 50.6578C55.0724 49.3247 55.5448 47.9939 56.0169 46.6636C56.8365 44.3546 57.6554 42.0475 58.4611 39.7336C58.5334 39.5186 58.6125 39.3037 58.6918 39.0883C58.9382 38.4191 59.1863 37.7453 59.2362 37.0525C59.3681 35.2207 59.4176 33.3555 59.3186 31.5071C59.2197 29.7752 57.9004 28.443 56.2018 28.0766C54.965 27.8102 53.8766 28.1765 52.8541 28.9259C52.1945 27.9267 51.304 27.2773 50.1166 27.0608C48.9293 26.8443 47.8903 27.2273 46.9504 27.9267C45.5156 26.0117 43.7346 25.5121 41.5578 26.4946V25.6786V10.1249C41.5413 8.01 40.2055 6.32806 38.1771 6.07827C37.6053 6.00756 37.0003 6.10366 36.3858 6.2013C36.132 6.24162 35.8765 6.28221 35.621 6.31141C35.2128 6.5153 34.2455 7.29231 33.6421 8.76923V22.8143V23.5304C32.6691 23.0808 31.7786 22.8809 30.8056 23.1141C29.0246 23.5304 27.7218 25.0625 27.7053 26.9109C27.6723 30.0083 27.6558 33.1224 27.7218 36.2198C27.7383 37.0525 27.9857 37.9018 28.2495 38.7011C28.7442 40.1887 29.2682 41.6614 29.7923 43.1342C30.0543 43.8707 30.3164 44.6072 30.5748 45.3455C30.6407 45.5287 30.7067 45.7286 30.7891 45.995L31.4688 48.1414ZM39.5789 34.9709V34.1882V10.5745V9.95837C39.5294 8.94255 38.7708 8.12656 37.7978 8.02665C36.8414 7.92673 35.9179 8.57619 35.687 9.55871C35.621 9.8418 35.621 10.1416 35.621 10.4246V34.2215V34.9542H33.6421V27.244C33.6421 25.9117 32.8505 25.0125 31.6632 25.0125C30.4923 25.0125 29.6842 25.9117 29.6842 27.2273C29.6842 28.0312 29.6816 28.8351 29.6789 29.6386L29.6789 29.6406C29.6721 31.6494 29.6654 33.6558 29.7007 35.6536C29.7172 36.4363 29.8492 37.2356 30.0965 37.9684C30.8358 40.1323 31.6016 42.2855 32.3668 44.4371L32.3672 44.4382C32.9504 46.078 33.5333 47.7169 34.1038 49.3589C34.2687 49.8085 34.4337 49.9917 34.9614 49.9917C40.6838 49.975 46.4226 49.975 52.145 49.9917C52.5738 49.9917 52.7882 49.8918 52.9366 49.4421C53.659 47.3619 54.391 45.2865 55.1222 43.2134L55.1226 43.212L55.1232 43.2105C55.7438 41.4509 56.3638 39.693 56.9769 37.9351C57.1748 37.3689 57.3232 36.7694 57.3562 36.1865C57.4055 34.7919 57.3893 33.4138 57.3728 32.0193L57.3727 32.0067C57.3727 31.3406 57.0923 30.791 56.5646 30.408C55.9545 29.9584 55.2783 29.8585 54.5857 30.2082C53.8601 30.5579 53.4478 31.174 53.4313 31.99C53.4204 32.8775 53.424 33.7577 53.4277 34.6403C53.4295 35.0825 53.4313 35.5253 53.4313 35.97H51.4524V35.2373C51.4524 34.7655 51.4542 34.2937 51.4561 33.8218C51.4597 32.8782 51.4634 31.9345 51.4524 30.9909C51.4359 29.8751 50.5454 29.0092 49.4735 29.0092C48.3851 29.0258 47.5275 29.8751 47.511 31.0075C47.5 31.5188 47.5037 32.0375 47.5074 32.5538C47.5092 32.8109 47.511 33.0675 47.511 33.3222V34.9875H45.5321V34.2881C45.5321 33.9305 45.5332 33.572 45.5342 33.2128C45.5373 32.1336 45.5404 31.0496 45.5156 29.975C45.4991 28.9259 44.6911 28.0933 43.7016 28.0266C42.7287 27.9434 41.8216 28.6261 41.6238 29.6087C41.5743 29.8751 41.5743 30.1416 41.5743 30.408V34.9875C40.8817 34.9709 40.2715 34.9709 39.5789 34.9709ZM23.7145 54.0383H4.0077V57.9684H23.7145V54.0383ZM37.5505 57.9684V52.0566H34.6645V57.9684H37.5505ZM39.5789 57.9351H42.4978V52.04H39.5789V57.9351ZM47.4616 52.04H44.5757V57.9517H47.4616V52.04ZM49.49 57.9351H52.4089V52.04H49.49V57.9351Z" fill="white"/>
<path d="M7.93257 40V32.9892H5.92067V44.796C5.92067 46.7277 7.17398 47.9933 9.10343 47.9933H26.1717H26.9797L30.058 47.9647C30.2112 47.9468 30.3771 47.9457 30.5583 47.96L30.7011 47.972C31.1188 48.0067 31.3229 48.0236 31.4688 48.1414L30.7891 45.995H30.08H9.36729C8.17993 45.995 7.89959 45.7286 7.89959 44.5462V42.015H25.6769V40H7.93257Z" fill="#26C7BC"/>
<path d="M30.6737 13.9717C30.6737 19.5171 26.2376 24.0134 20.7791 23.9967C15.3041 23.9967 10.8845 19.5171 10.8845 13.9717C10.8845 8.45966 15.3535 3.99671 20.8286 3.99671C26.2211 4.01336 30.6737 8.52627 30.6737 13.9717ZM12.8469 13.9884C12.8304 18.3847 16.3595 21.9817 20.7296 21.9984C25.0668 22.015 28.6783 18.418 28.6783 14.055C28.6948 9.64201 25.1657 6.02835 20.8286 6.0117C16.4254 5.99505 12.8634 9.55874 12.8469 13.9884Z" fill="#26C7BC"/>
<path d="M19.7236 8.04329C20.4492 8.04329 21.0594 8.04329 21.6696 8.04329C21.7026 8.07659 21.7355 8.1099 21.7355 8.14321C21.6366 8.84262 21.9004 9.27559 22.5436 9.65861C23.3517 10.1415 23.6815 10.9908 23.731 11.9733C23.0713 11.9733 22.4447 11.9733 21.8015 11.9733C21.7685 11.8734 21.7355 11.7735 21.7025 11.6902C21.4717 11.1574 20.9934 10.8909 20.5152 11.0408C20.037 11.2073 19.7566 11.5404 19.7896 12.0733C19.8226 12.5895 20.2019 12.9559 20.7791 12.9892C22.0489 13.0724 22.9724 13.6553 23.5001 14.8376C24.0443 16.0866 23.698 17.5687 22.5601 18.3514C21.9664 18.7677 21.5047 19.1174 21.8345 19.9667C21.1089 19.9667 20.4822 19.9667 19.7731 19.9667C20.037 19.0674 19.4763 18.6844 18.8496 18.2348C18.1405 17.7352 17.8601 16.9359 17.8107 16.0366C18.4703 16.0366 19.0805 16.0366 19.7401 16.0366C19.7896 16.1532 19.8391 16.3197 19.9215 16.4529C20.1689 16.9192 20.5647 17.1024 21.0594 16.9525C21.5212 16.8193 21.785 16.4696 21.7685 15.97C21.752 15.4538 21.4552 15.1207 20.944 15.0208C20.6636 14.9542 20.3668 14.9708 20.0864 14.9042C18.9321 14.5878 18.19 13.8385 17.9261 12.6728C17.6458 11.4904 17.9921 10.4413 18.9486 9.72522C19.5092 9.2756 20.0534 8.90923 19.7236 8.04329Z" fill="#26C7BC"/>
<path fill-rule="evenodd" clip-rule="evenodd" d="M44.6533 13.3245C45.0968 12.8765 45.8309 12.8919 46.2931 13.3589L50.0436 17.1484L56.3926 9.03104C56.7816 8.53365 57.5095 8.46612 58.0183 8.8802C58.5272 9.29428 58.6243 10.0332 58.2352 10.5306L50.3103 20.6629L44.6874 14.9814C44.2252 14.5143 44.2099 13.7725 44.6533 13.3245Z" fill="#26C7BC"/>
</svg>
