<svg width="60" height="60" viewBox="0 0 60 60" fill="none" xmlns="http://www.w3.org/2000/svg">
<path fill-rule="evenodd" clip-rule="evenodd" d="M36.6147 28.7947H35.8129C35.791 29.3853 35.6801 30.7479 35.412 31.4732C35.5456 31.3393 35.6792 31.2054 35.8129 31.2054H36.2138H57.5947H58.2628V50.2232H56.2584V49.5536V35.625C56.2584 33.8839 55.4565 33.2143 53.853 33.2143H35.6793H34.8775C34.6993 33.7581 34.236 34.9749 33.8084 35.4911C33.9421 35.3572 34.2093 35.2232 34.4766 35.2232H42.3608H53.5858H54.3875V54.2411H52.3831V53.5714V39.6428C52.3831 38.0357 51.5813 37.2321 49.9777 37.2321H33.274H32.6058C32.049 37.8182 30.8418 39.0672 30.4677 39.375C30.7349 39.2411 31.0022 39.1072 31.2695 39.1072H43.0289H43.4298C44.2316 42.9911 46.5033 45.2679 50.3786 46.0715V51.1607C46.5033 51.9643 44.2316 54.2411 43.4298 58.1251H35.5457C35.6793 57.9911 35.7795 57.8572 35.8798 57.7232C35.98 57.5893 36.0802 57.4554 36.2138 57.3214C38.6192 54.5089 39.5546 51.1608 39.2873 47.4108C39.1537 45.4018 38.4855 43.5268 37.5501 41.7857C37.1493 40.9822 36.6147 40.8482 36.0802 41.1161C35.412 41.5179 35.412 42.0536 35.8129 42.8572C37.6837 46.4732 37.8174 50.0893 36.2138 53.7053C35.2784 55.7143 33.9421 57.3214 31.804 57.9911C29.7995 58.6607 27.9287 58.125 26.3252 56.6518C24.4543 54.9107 23.6525 52.6339 23.3853 50.2232C23.2968 49.5141 23.3255 48.8635 23.355 48.194C23.37 47.8521 23.3853 47.5051 23.3853 47.1429C23.3853 46.3393 23.118 45.8036 22.4499 45.8036C21.9153 45.8036 21.5145 46.2053 21.3808 47.0089C20.8463 51.1607 22.049 54.9107 24.9889 57.9911C24.9889 58.125 24.9888 58.125 25.1225 58.2589C22.4499 58.2589 19.9109 58.2589 17.3719 57.9911C16.5701 54.1071 14.2984 51.8303 10.4231 51.0268V42.1875C9.67636 41.8149 8.12716 41.0171 7.5744 40.6446C7.90475 40.8919 8.01781 41.1482 8.01781 41.5179V57.3214C8.01781 58.6607 8.28512 59.4643 9.48779 60H50.5122C51.9764 59.3711 51.9673 58.168 51.9582 56.9684C51.9557 56.6353 51.9531 56.3024 51.9822 55.9821H53.853C55.1893 55.9821 55.9911 55.1786 55.9911 53.8393V51.9643H57.7283C59.1982 51.9643 60 51.1607 60 49.6875V31.0715V30.4018C59.7327 29.3304 58.9309 28.7947 57.7283 28.7947H36.6147ZM50.245 58.2589H45.4343C45.7015 55.9822 47.8397 53.8393 50.245 53.4375V58.2589ZM15.1002 58.2589H10.2895V53.4375C12.4276 53.5715 14.8329 55.9822 15.1002 58.2589ZM50.245 39.2411V44.0625C48.1069 44.0625 45.8352 41.6518 45.4343 39.2411H50.245Z" fill="white"/>
<path fill-rule="evenodd" clip-rule="evenodd" d="M0.935428 21.4286C0.534537 22.5 0.534537 23.7054 0.267277 24.7768C0.267277 25.7143 0.26726 26.6518 0 27.3215C0.26726 28.3929 0.400891 29.5982 0.668151 30.8036C1.73719 34.8214 4.14259 38.1696 7.48334 40.5804C7.51538 40.6018 7.54571 40.6232 7.5744 40.6446C8.12716 41.0171 9.67636 41.8149 10.4231 42.1875C10.6904 42.1875 10.8241 42.3214 10.9577 42.3214C18.0401 45.4018 24.5879 44.3304 30.4677 39.375C30.8418 39.0672 32.049 37.8182 32.6058 37.2321C33.0067 36.5625 33.2739 36.0268 33.8084 35.4911C34.236 34.9749 34.6993 33.7581 34.8775 33.2143C35.1448 32.5446 35.2784 32.0089 35.412 31.4732C35.6801 30.7479 35.791 29.3853 35.8129 28.7947C36.3474 25.9822 36.2138 23.4375 35.412 20.7589C34.6102 18.0804 33.274 15.8036 31.5368 13.7946C32.0713 13.125 32.6058 12.7232 33.1403 12.0536C33.2739 12.3214 33.5412 12.4554 33.6748 12.7232L34.2094 13.259C34.6103 13.7947 35.2784 13.7946 35.6793 13.3929C36.0802 12.9911 36.0802 12.4554 35.5457 11.9197L31.804 8.16961C31.2695 7.6339 30.735 7.63393 30.3341 8.03572C29.9332 8.57143 29.9332 9.10716 30.4677 9.64288C30.8686 9.91073 31.2695 10.3125 31.6704 10.5804L30.0668 12.1875C28.5969 11.3839 27.2605 10.3125 25.7906 9.64288C24.3207 8.97323 22.7171 8.43754 21.1136 7.90182V5.89289H21.6481C23.118 5.62503 24.3207 4.28568 24.1871 2.81247C24.1871 1.33925 22.9844 0 21.3808 0H15.1002C13.8975 0.133929 12.8285 0.9375 12.4276 2.00893C11.8931 3.21429 12.1603 4.41968 13.0957 5.22325C13.7639 5.75896 14.432 5.89288 15.1002 6.29466L15.2339 6.16068V7.23218V8.30359C15.1002 8.43752 14.9666 8.43749 14.833 8.43749C7.7506 10.0446 3.07351 14.4643 0.935428 21.4286ZM2.27173 26.25C2.27173 17.4107 9.48776 10.1785 18.3074 10.1785C27.127 10.1785 34.2094 17.2768 34.343 26.25C34.343 34.9553 27.127 42.1875 18.3074 42.1875C9.48776 42.1875 2.27173 35.0893 2.27173 26.25ZM20.98 4.15175H18.1738H15.3675C14.5657 4.15175 14.1649 3.75003 14.1649 3.21432C14.1649 2.54468 14.5657 2.14283 15.2339 2.14283H20.98C21.7817 2.14283 22.1827 2.54463 22.1827 3.08034C22.1827 3.74998 21.6481 4.15175 20.98 4.15175ZM17.3719 6.16068H19.2428C19.2428 6.42854 19.2428 6.56247 19.3764 6.83033V8.16961H17.3719V6.16068Z" fill="#26C7BC"/>
<path d="M29.2651 53.0357C29.2651 51.9642 29.2651 50.8928 29.2651 49.9553C29.2651 49.8214 28.9979 49.5536 28.8642 49.5536C27.9288 49.2857 26.9934 48.8839 26.3252 48.2143C24.9889 46.875 24.9889 45 26.3252 43.6607C26.9934 42.991 27.9288 42.5892 28.8642 42.3214C29.1315 42.3214 29.3987 42.1875 29.3987 41.7857C29.5323 41.3839 29.7996 41.1161 30.3341 41.1161C30.735 41.1161 31.1359 41.3839 31.2696 41.7857C31.4032 42.1875 31.5368 42.1875 31.804 42.3214C32.6058 42.7232 33.4076 42.9911 34.0758 43.5268C34.7439 44.0625 35.1448 44.8661 35.2785 45.8036C35.2785 46.4732 35.0112 46.875 34.343 47.0089C33.8085 47.0089 33.4076 46.7411 33.274 46.0715C33.1404 45.134 32.3386 44.5982 31.2696 44.4643C31.2696 45.5357 31.2696 46.6071 31.2696 47.6785C31.2696 47.8125 31.5368 47.9464 31.6704 47.9464C32.4722 48.3482 33.274 48.616 33.9422 49.0178C35.5457 50.3571 35.6794 52.5 33.9422 53.8393C33.274 54.375 32.3386 54.6428 31.5368 55.0446C31.4032 55.1785 31.1359 55.3125 31.0023 55.4465C30.735 55.8482 30.4677 56.1161 30.0669 56.1161C29.666 56.1161 29.2651 55.8482 29.1314 55.4465C28.9978 55.0447 28.8642 55.0446 28.597 54.9107C27.6615 54.6429 26.7261 54.2411 26.0579 53.5714C25.5234 53.0357 25.2562 52.3661 25.1225 51.5625C25.1225 51.0268 25.3898 50.4911 26.0579 50.4911C26.5925 50.4911 26.9933 50.759 27.127 51.4286C27.3942 52.3661 28.0624 52.9017 29.2651 53.0357ZM29.2651 44.4643C28.1961 44.5982 27.3943 45.2678 27.2607 45.9375C27.2607 46.6071 28.1961 47.4107 29.2651 47.5446C29.2651 46.4732 29.2651 45.5357 29.2651 44.4643ZM31.2696 49.9553C31.2696 51.0268 31.2696 52.0982 31.2696 53.1697C32.3386 52.9018 33.1404 52.2321 33.274 51.5625C33.274 50.8929 32.4722 50.0893 31.2696 49.9553Z" fill="white"/>
<path d="M18.3073 40.1786C10.5567 40.1786 4.27611 33.8839 4.27611 26.1161C4.27611 18.3482 10.5567 12.0536 18.3073 12.0536C26.0578 12.0536 32.3385 18.3482 32.3385 26.1161C32.2048 34.0179 25.9242 40.1786 18.3073 40.1786ZM18.3073 14.1964C11.6258 14.1964 6.28056 19.6875 6.28056 26.25C6.28056 32.9464 11.7594 38.3036 18.3073 38.3036C24.9888 38.3036 30.334 32.9464 30.334 26.25C30.334 19.5536 24.8552 14.0625 18.3073 14.1964Z" fill="#26C7BC"/>
<path d="M18.0402 29.1964C16.9711 29.1964 16.0357 28.5268 15.6348 27.4553C15.1003 26.25 15.3676 25.1785 16.1694 24.241C16.9712 23.3035 18.0402 23.0357 19.2429 23.3036C19.6437 23.4375 19.7773 23.3036 20.0446 23.0357C21.1136 21.8304 22.3164 20.7589 23.519 19.5535C24.0536 19.0178 24.588 18.8839 25.1225 19.4196C25.5234 19.8214 25.5235 20.4911 24.9889 21.0268C23.7863 22.2321 22.7173 23.3035 21.5146 24.5089C21.2473 24.7768 21.2473 25.0447 21.2473 25.3125C21.7818 27.3214 20.1782 29.1964 18.0402 29.1964ZM18.3074 25.1785C17.7729 25.1785 17.2384 25.5803 17.2384 26.25C17.2384 26.7857 17.6393 27.1875 18.1738 27.1875C18.7084 27.1875 19.2429 26.7857 19.2429 26.25C19.2429 25.7142 18.8419 25.1785 18.3074 25.1785Z" fill="#26C7BC"/>
</svg>
