<svg width="60" height="60" viewBox="0 0 60 60" fill="none" xmlns="http://www.w3.org/2000/svg">
<path d="M16.6406 60C15.9219 59.625 15.1406 59.3437 14.5156 58.8594C13.6875 58.2187 13.2812 57.2656 13.2187 56.2031C13.2031 55.9062 13.2031 55.625 13.2031 55.3281C13.2031 49.2187 13.2031 43.1094 13.2031 36.9844C13.2031 34.6562 13.2031 32.3437 13.2031 30.0156C13.2188 27.3281 14.9062 25.6406 17.5937 25.6406C20 25.6406 22.3906 25.6406 24.7969 25.6406C25.0156 25.6406 25.2187 25.6406 25.4844 25.6406C25.5 25.3906 25.5156 25.1875 25.5156 24.9687C25.5156 23.6875 25.5 22.3906 25.5156 21.1094C25.5469 19.2031 26.9063 17.8281 28.8125 17.8125C33.9844 17.7969 39.1563 17.7969 44.3438 17.8125C46.2656 17.8125 47.6562 19.2344 47.6719 21.1562C47.6875 22.625 47.6719 24.0781 47.6719 25.6406C47.9062 25.6406 48.1094 25.6406 48.3125 25.6406C50.7344 25.6406 53.1562 25.6406 55.5781 25.6406C57.8594 25.6406 59.2813 26.7344 59.8906 28.9219C59.9063 28.9687 59.9531 29.0156 59.9844 29.0625C59.9844 38.25 59.9844 47.4219 59.9844 56.5937C59.625 57.2812 59.3438 58 58.9062 58.625C58.3594 59.4062 57.4531 59.7031 56.5937 59.9844C43.2812 60 29.9688 60 16.6406 60ZM31.7344 42.4375C30.25 42.1562 28.7812 41.9062 27.3438 41.5937C23.2812 40.7344 19.1094 40.2656 15.1094 39.0625C15.1094 39.1406 15.0781 39.2656 15.0781 39.4062C15.0781 44.8594 15.0781 50.2969 15.0781 55.75C15.0781 57.25 16 58.1406 17.5156 58.1406C30.25 58.1406 42.9844 58.1406 55.7187 58.1406C57.2344 58.1406 58.1406 57.2187 58.1406 55.6875C58.1406 50.2812 58.1406 44.875 58.1406 39.4531C58.1406 39.2969 58.125 39.125 58.1094 39.0156C57.4375 39.2344 56.8281 39.5156 56.1875 39.6406C52.5781 40.3594 48.9531 41.0469 45.3281 41.75C44.0469 42 42.7812 42.25 41.4844 42.5C41.4844 43.1094 41.4844 43.6562 41.4844 44.2031C41.4531 47 39.3281 49.1562 36.6094 49.1562C33.8906 49.1562 31.7812 47.0156 31.7344 44.2187C31.7187 43.6094 31.7344 43.0469 31.7344 42.4375ZM31.625 40.5C31.6719 40.4062 31.7031 40.375 31.7031 40.3437C31.7031 39.4219 31.7188 38.5156 31.7188 37.5937C31.7344 36.3125 32.4219 35.6094 33.7187 35.6094C35.5937 35.6094 37.4687 35.6094 39.3437 35.6094C40.7812 35.6094 41.4688 36.2812 41.4688 37.7187C41.4688 38.6562 41.4688 39.5781 41.4688 40.5156C41.5938 40.5156 41.6563 40.5312 41.7031 40.5156C45.5469 39.7812 49.4063 39.0469 53.25 38.2969C54.375 38.0781 55.5156 37.8594 56.6094 37.5156C57.6406 37.1875 58.1562 36.4219 58.125 35.2812C58.0938 33.5781 58.1094 31.8906 58.1094 30.1875C58.1094 28.3281 57.2969 27.5156 55.4375 27.5156C50.6406 27.5156 45.8281 27.5156 41.0312 27.5156C33.3594 27.5156 25.6875 27.5156 18.0156 27.5156C17.75 27.5156 17.4687 27.5156 17.2031 27.5312C16.0312 27.5937 15.1094 28.4375 15.0937 29.625C15.0469 31.6406 15.0937 33.6406 15.0937 35.6562C15.0937 36.4062 15.4531 36.9375 16.0625 37.2812C16.5469 37.5469 17.0938 37.75 17.6406 37.8594C21.0469 38.5312 24.4531 39.1719 27.875 39.8125C29.125 40.0312 30.3906 40.2656 31.625 40.5ZM29.4687 21.7031C34.25 21.7031 38.9688 21.7031 43.7344 21.7031C43.7344 23.0156 43.7344 24.2969 43.7344 25.5781C44.4531 25.5781 45.1094 25.5781 45.7969 25.5781C45.7969 24.0156 45.8281 22.5 45.7812 20.9844C45.7656 20.2031 45.1406 19.7031 44.3125 19.7031C39.1562 19.7031 34.0156 19.7031 28.8594 19.7031C27.9531 19.7031 27.4062 20.25 27.3906 21.1562C27.375 22.1719 27.3906 23.1875 27.3906 24.2031C27.3906 24.6562 27.3906 25.125 27.3906 25.5937C28.125 25.5937 28.75 25.5937 29.4687 25.5937C29.4687 24.2656 29.4687 22.9844 29.4687 21.7031ZM33.625 37.5156C33.625 39.9375 33.625 42.2969 33.625 44.6562C33.625 44.7656 33.6562 44.8906 33.6875 45C34.0781 46.4687 35.4375 47.4062 36.9531 47.2344C38.4062 47.0781 39.5625 45.7969 39.5781 44.25C39.6094 42.1094 39.5781 39.9531 39.5781 37.8125C39.5781 37.7187 39.5469 37.625 39.5312 37.5156C37.5781 37.5156 35.6406 37.5156 33.625 37.5156ZM31.375 23.5625C31.375 24.2812 31.375 24.9375 31.375 25.5937C34.875 25.5937 38.3437 25.5937 41.8125 25.5937C41.8125 24.8906 41.8125 24.2344 41.8125 23.5625C38.3281 23.5625 34.875 23.5625 31.375 23.5625Z" fill="white"/>
<path d="M29.7656 -7.62939e-06C30.6094 0.281242 31.2187 0.874993 31.8125 1.49999C33.9375 3.79687 36.0781 6.07812 38.2031 8.35937C38.7656 8.95312 39.0625 9.64062 39.0469 10.4687C39.0313 11.8906 39.0469 13.3125 39.0469 14.75C39.0469 15.4844 38.6875 15.9219 38.1094 15.9062C37.5313 15.8906 37.1719 15.4531 37.1719 14.7187C37.1719 13.5469 37.1719 12.3906 37.1719 11.1562C36.6094 11.1562 36.1094 11.1562 35.5938 11.1562C34.3906 11.1562 33.1719 11.1719 31.9687 11.1406C30.0312 11.0781 28.5 9.53124 28.4844 7.59374C28.4687 5.71874 28.4844 3.84374 28.4844 1.87499C28.25 1.87499 28.0469 1.87499 27.8438 1.87499C19.625 1.87499 11.4062 1.87499 3.17187 1.87499C2.17187 1.87499 1.875 2.17187 1.875 3.15624C1.875 18.625 1.875 34.0937 1.875 49.5625C1.875 50.5625 2.17188 50.8594 3.15625 50.8594C5.51563 50.8594 7.875 50.8594 10.25 50.8594C10.8906 50.8594 11.2812 51.25 11.2656 51.8125C11.25 52.3594 10.875 52.7031 10.2656 52.7344C10.125 52.7344 10 52.7344 9.85937 52.7344C7.76562 52.7344 5.67188 52.6719 3.59375 52.75C1.82812 52.8125 0.609375 52.2031 0 50.5156C0 34.4219 0 18.3281 0 2.23437C0.375 1.12499 1.10938 0.374993 2.21875 0.0156183C11.4063 -6.67595e-06 20.5938 -7.62939e-06 29.7656 -7.62939e-06ZM30.3438 3.34374C30.3438 4.82812 30.3281 6.14062 30.3438 7.45312C30.3594 8.57812 31.0469 9.28124 32.1719 9.29687C33.2188 9.31249 34.2812 9.29687 35.3281 9.29687C35.4531 9.29687 35.5625 9.26562 35.7656 9.23437C33.9531 7.26562 32.2031 5.35937 30.3438 3.34374Z" fill="#26C7BC"/>
<path d="M17.3437 12.6406C19.4531 12.6406 21.5625 12.6406 23.6562 12.6406C24.3906 12.6406 24.8281 12.9999 24.8125 13.5779C24.7968 14.1402 24.3593 14.4995 23.625 14.5151C19.4375 14.5151 15.2343 14.5151 11.0468 14.5151C10.125 14.5151 9.56246 13.7966 9.99996 13.1561C10.1875 12.8905 10.625 12.6718 10.9531 12.6718C13.0781 12.625 15.2187 12.6406 17.3437 12.6406Z" fill="#26C7BC"/>
<path d="M17.3438 10.2495C15.3125 10.2495 13.2813 10.2495 11.2656 10.2495C11.0313 10.2495 10.7969 10.2495 10.5625 10.2026C10.1094 10.0933 9.81252 9.73399 9.89064 9.31223C9.95314 8.98419 10.2656 8.68739 10.5469 8.45308C10.6875 8.32811 11 8.37497 11.2344 8.37497C15.3125 8.37497 19.3906 8.37497 23.4688 8.37497C24.375 8.37497 24.8281 8.68739 24.8281 9.2966C24.8438 9.92144 24.375 10.2495 23.4375 10.2495C21.3906 10.2495 19.375 10.2495 17.3438 10.2495Z" fill="#26C7BC"/>
<path d="M14.2344 16.875C15.3282 16.875 16.4219 16.875 17.5157 16.875C18.2188 16.875 18.625 17.2187 18.6407 17.7966C18.6563 18.4058 18.2344 18.7495 17.5 18.7495C15.3282 18.7495 13.1719 18.7495 11 18.7495C10.3125 18.7495 9.87503 18.3902 9.8594 17.8435C9.84378 17.2655 10.2969 16.8906 11.0157 16.8906C12.0938 16.875 13.1719 16.875 14.2344 16.875Z" fill="#26C7BC"/>
<path d="M5.98398 18.8901C5.57784 18.7026 5.18732 18.6089 4.92176 18.3746C4.54686 18.0466 4.64058 17.453 4.99986 17.1249C5.39039 16.7656 6.5151 16.75 6.93686 17.1093C7.31177 17.4217 7.42111 18.0309 7.06183 18.359C6.79627 18.6089 6.39013 18.7026 5.98398 18.8901Z" fill="#26C7BC"/>
<path d="M5.96843 14.4995C5.43732 14.5307 4.98431 14.4214 4.76561 13.8747C4.59378 13.4529 4.73438 13.1092 5.06242 12.8281C5.40608 12.5469 6.56202 12.5469 6.90568 12.8281C7.26497 13.1248 7.37431 13.4998 7.18686 13.9215C6.95254 14.4682 6.48392 14.5307 5.96843 14.4995Z" fill="#26C7BC"/>
<path d="M6.01522 10.39C5.60908 10.2026 5.20293 10.1245 4.93738 9.89018C4.56247 9.56214 4.64058 8.98416 4.99986 8.6405C5.37477 8.28122 6.53072 8.2656 6.93686 8.59364C7.31177 8.90606 7.43673 9.51528 7.07745 9.84332C6.81189 10.0933 6.39013 10.2026 6.01522 10.39Z" fill="#26C7BC"/>
<path d="M36.5935 45.0464C36.078 45.0464 35.6562 44.6246 35.6562 44.1248C35.6562 43.6249 36.078 43.2031 36.5935 43.2031C37.109 43.2031 37.5151 43.6093 37.5151 44.1248C37.5151 44.6403 37.109 45.0464 36.5935 45.0464Z" fill="white"/>
<path fill-rule="evenodd" clip-rule="evenodd" d="M59.7071 0.377312C60.0976 0.767938 60.0976 1.40127 59.7071 1.79189L52.4142 9.08669L59.7071 16.3815C60.0976 16.7721 60.0976 17.4054 59.7071 17.7961C59.3166 18.1867 58.6834 18.1867 58.2929 17.7961L51 10.5013L48.1516 13.3505C47.761 13.7411 47.1279 13.7411 46.7373 13.3505C46.3468 12.9598 46.3468 12.3265 46.7373 11.9359L49.5858 9.08669L42.2929 1.79193C41.9024 1.4013 41.9024 0.76797 42.2929 0.377344C42.6834 -0.0132826 43.3166 -0.0132833 43.7071 0.377342L51 7.67211L58.2929 0.377312C58.6834 -0.0133136 59.3166 -0.0133136 59.7071 0.377312Z" fill="#26C7BC"/>
</svg>
