<svg width="46" height="60" viewBox="0 0 46 60" fill="none" xmlns="http://www.w3.org/2000/svg">
<path d="M36.6789 60C33.9516 60 31.2244 60 28.4971 60C28.1503 60 27.835 59.8896 27.6458 59.6847C27.4724 59.5113 27.3936 59.2906 27.3936 59.0384C27.3936 58.4708 27.8507 58.0925 28.5129 58.0925C30.7672 58.0925 33.0215 58.0925 35.2759 58.0925H42.8113L42.6852 57.7772C42.6537 57.6984 42.6222 57.6195 42.5906 57.5565C42.5276 57.4146 42.4803 57.3043 42.433 57.1781L40.9196 54.0095C39.485 51.03 38.0031 47.9401 36.5686 44.8975C36.3479 44.4404 36.0641 44.2669 35.5911 44.2669H35.5596C34.6768 44.2827 33.7782 44.2827 32.99 44.2827H32.1702C31.4924 44.2827 30.7987 44.2827 30.1208 44.2827C29.8686 44.2827 29.506 44.3615 29.3326 44.5822C28.2449 45.9222 27.2044 47.2622 26.0851 48.6653L24.9501 50.1156L25.3599 50.1471C25.4388 50.1471 25.5176 50.1629 25.5806 50.1629C25.7068 50.1787 25.8171 50.1944 25.9432 50.1944C26.0536 50.1944 26.1482 50.1944 26.2585 50.1944C26.4319 50.1944 26.6053 50.1944 26.7787 50.1944C26.9522 50.1944 27.1256 50.1944 27.299 50.1944C27.5985 50.1944 28.0084 50.1944 28.4025 50.226C28.9543 50.2575 29.3484 50.6516 29.3484 51.1876C29.3484 51.7394 28.9227 52.1177 28.3394 52.1177C26.5423 52.1177 24.7294 52.1177 22.9322 52.1177C21.1981 52.1177 19.464 52.1177 17.7141 52.1177C17.0835 52.1177 16.6579 51.7394 16.6579 51.1718C16.6579 50.6201 17.0678 50.2417 17.6668 50.2102C17.9506 50.1944 18.2659 50.1944 18.6442 50.1944C18.8492 50.1944 19.0541 50.1944 19.259 50.1944C19.464 50.1944 19.6689 50.1944 19.8896 50.1944H21.1193L20.4887 49.3904C20.268 49.1067 20.063 48.8387 19.8739 48.5864C19.5743 48.1923 19.259 47.814 18.9595 47.4199C18.2659 46.537 17.5407 45.6385 16.8471 44.7399C16.5948 44.4088 16.3111 44.2512 15.9012 44.2512H15.8854C15.0184 44.2512 14.104 44.2669 13.1582 44.2669C12.2438 44.2669 11.3137 44.2669 10.3993 44.2512C9.94218 44.2512 9.68994 44.4088 9.51653 44.7872C8.03466 47.877 6.53703 51.03 5.07092 54.0725L3.4787 57.3831C3.44717 57.4619 3.41564 57.5407 3.38411 57.6353C3.36835 57.6826 3.35258 57.7299 3.33682 57.7772L3.22646 58.0767H11.2349C13.3 58.0767 15.381 58.0767 17.4461 58.0767C17.9033 58.0767 18.2816 58.2501 18.4866 58.5339C18.6442 58.7704 18.6758 59.0541 18.5496 59.3537C18.392 59.7793 18.0609 59.9842 17.5565 59.9842H7.5302H1.98106C1.38201 59.9842 0.97213 59.8266 0.782955 59.5428C0.609544 59.2591 0.641076 58.8334 0.893309 58.3132C1.61848 56.784 2.35941 55.2706 3.08458 53.7415C4.75563 50.2733 6.47397 46.6947 8.14502 43.1634C8.42878 42.5644 8.7756 42.3279 9.40618 42.3279H9.45347C10.0525 42.3437 10.6989 42.3437 11.4871 42.3437C11.96 42.3437 12.433 42.3437 12.9059 42.3437C13.4104 42.3437 13.9149 42.3437 14.4193 42.3437H14.8607L14.4193 41.7446C14.309 41.6027 14.2301 41.4766 14.1356 41.3663C13.4419 40.4519 12.7167 39.506 12.0389 38.6075C10.4624 36.5581 8.82289 34.4298 7.30949 32.2859C5.19704 29.3221 3.90434 26.4057 3.36834 23.3946C2.21753 16.9942 3.88858 11.2559 8.36572 6.38466C11.7236 2.71151 16.0273 0.599054 21.135 0.0945873C21.2454 0.0788227 21.3242 0.0472935 21.4188 0.0157643C21.4346 0.0157643 21.4661 0 21.4818 0H24.4929C24.8239 0.0630583 25.1708 0.110352 25.5018 0.17341C26.227 0.283762 26.9679 0.409879 27.6931 0.583289C32.2175 1.65528 36.2533 4.3195 39.0436 8.08723C41.8339 11.8392 43.2054 16.474 42.9217 21.093C42.7167 24.2775 41.6605 27.3673 39.5954 30.8198C37.877 33.7047 35.7488 36.3689 33.7152 38.9543C33.4314 39.3011 33.1476 39.6637 32.8796 40.0263L31.114 42.2806L31.5397 42.3121C31.6342 42.3121 31.7131 42.3279 31.7919 42.3279C31.9338 42.3437 32.0441 42.3437 32.1702 42.3437H33.2265C33.7309 42.3437 34.2512 42.3437 34.7556 42.3437C35.4808 42.3437 36.0956 42.3437 36.6474 42.3279H36.6789C37.2149 42.3279 37.5302 42.5328 37.7667 43.0058C38.7914 45.1498 39.8161 47.278 40.8408 49.422C42.2911 52.433 43.7257 55.444 45.176 58.4708C45.3652 58.8807 45.381 59.2591 45.1918 59.5428C45.0184 59.8266 44.6715 59.9685 44.2459 59.9842C41.7236 60 39.2012 60 36.6789 60ZM22.6011 1.87599C18.0925 1.87599 13.9779 3.64162 10.3678 7.14136C5.9695 11.3978 4.2354 16.6474 5.2128 22.7483C5.66998 25.6332 6.88385 28.4078 8.90171 31.1981C11.0615 34.1934 13.3631 37.1729 15.5859 40.0578C15.9958 40.578 16.4057 41.114 16.7998 41.6343C18.1555 43.3841 19.4955 45.0709 20.9143 46.8681C21.5449 47.6563 22.1755 48.4446 22.8061 49.2486L22.9795 49.4535L23.1529 49.2486C23.216 49.1855 23.2632 49.1224 23.3105 49.0751C23.4051 48.9806 23.484 48.886 23.547 48.7914L25.2338 46.6474C27.8192 43.3841 30.3888 40.1209 32.9585 36.8418C35.1655 34.0357 37.1361 31.4661 38.6968 28.5339C40.9196 24.4351 41.5817 20.5255 40.7462 16.6159C39.2485 9.5691 35.1024 4.93431 28.434 2.82186C26.4635 2.19128 24.4929 1.87599 22.6011 1.87599Z" fill="url(#paint0_linear_101_3181)"/>
<path d="M23.0262 59.9838C22.5217 59.9838 22.0803 59.5424 22.0803 59.0379C22.0803 58.7857 22.1749 58.5492 22.3641 58.3758C22.5533 58.1866 22.7897 58.092 23.042 58.092H23.0735C23.5937 58.1078 24.0036 58.5335 23.9878 59.0537C23.9563 59.5739 23.5464 59.9838 23.0262 59.9838Z" fill="url(#paint1_linear_101_3181)"/>
<path d="M22.9949 31.8125C19.7947 31.8125 16.7994 30.5671 14.5451 28.297C12.3065 26.0427 11.0769 23.0632 11.0769 19.8788C11.0927 13.3522 16.4526 8.03955 23.0107 8.03955C26.2109 8.03955 29.2062 9.28495 31.4605 11.5551C33.6991 13.8094 34.9445 16.8047 34.9287 19.9733C34.913 26.4999 29.5688 31.8125 22.9949 31.8125ZM22.9949 9.94706C17.4773 9.94706 13.0002 14.4084 12.9844 19.8945C12.9844 22.5587 14.0091 25.0495 15.9009 26.9413C17.7926 28.833 20.3149 29.8893 23.0107 29.8893C28.5283 29.8893 33.0212 25.4121 33.0212 19.9418C33.0212 17.2776 31.9965 14.7868 30.1048 12.895C28.213 11.0033 25.6907 9.94706 22.9949 9.94706Z" fill="white"/>
<defs>
<linearGradient id="paint0_linear_101_3181" x1="0.674069" y1="30.1667" x2="45.3474" y2="30.1667" gradientUnits="userSpaceOnUse">
<stop stop-color="#95E0D9"/>
<stop offset="0.5865" stop-color="#26C7BC"/>
</linearGradient>
<linearGradient id="paint1_linear_101_3181" x1="22.0803" y1="59.0432" x2="23.9892" y2="59.0432" gradientUnits="userSpaceOnUse">
<stop stop-color="#95E0D9"/>
<stop offset="0.5865" stop-color="#26C7BC"/>
</linearGradient>
</defs>
</svg>
