<svg width="60" height="60" viewBox="0 0 60 60" fill="none" xmlns="http://www.w3.org/2000/svg">
<path d="M59.9744 31.7158C59.818 32.8574 59.7398 33.9991 59.5053 35.1095C56.9874 47.2453 49.8717 55.5026 37.9235 58.7712C25.7251 62.1023 15.1688 58.5992 6.91144 49.0125C1.70367 42.9758 -0.563977 35.735 0.155415 27.7904C1.28142 15.4044 7.8185 6.8655 19.2193 2.01742C21.8936 0.87578 24.7242 0.29714 27.6174 0.0938335C27.7894 0.0781945 27.9615 0.0312779 28.1335 0C29.3377 0 30.5575 0 31.7617 0C32.7314 0.125112 33.6853 0.234584 34.655 0.359695C35.1554 0.422251 35.5464 0.641197 35.6715 1.17292C35.8279 1.82976 35.3274 2.4084 34.608 2.34584C33.7323 2.28329 32.8721 2.14254 31.9963 2.07998C24.5053 1.57953 17.8431 3.73771 12.0879 8.52323C6.55175 13.1054 3.29884 19.0326 2.28231 26.1327C0.624583 37.7212 6.67686 49.4191 17.0768 54.752C28.4776 60.6009 41.9583 58.2395 50.638 48.7935C54.9856 44.0549 57.4409 38.4249 57.8788 31.9973C58.7077 19.9084 52.1237 9.10187 41.02 4.2538C40.1129 3.84718 39.8002 3.36238 40.0817 2.73682C40.3632 2.11126 40.9105 2.00179 41.8489 2.43968C51.4512 6.81858 57.3158 14.1845 59.474 24.5062C59.6929 25.5541 59.7555 26.6331 59.8806 27.6966C59.8962 27.8686 59.9431 28.0406 59.9744 28.2127C59.9744 29.37 59.9744 30.5429 59.9744 31.7158Z" fill="url(#paint0_linear_101_3189)"/>
<path d="M25.4749 27.1492C25.4749 26.2891 25.4749 25.4915 25.4749 24.6157C25.256 24.6001 25.0526 24.5844 24.8337 24.5844C22.5348 24.5844 20.2358 24.5844 17.9213 24.5844C16.9517 24.5844 16.6389 24.256 16.6389 23.2864C16.6389 21.1439 16.6389 19.0013 16.6389 16.8432C16.6389 15.9517 16.9829 15.592 17.8744 15.592C25.9597 15.592 34.0294 15.592 42.1147 15.592C43.0062 15.592 43.3502 15.9361 43.3502 16.8432C43.3502 19.0013 43.3502 21.1751 43.3502 23.3333C43.3502 24.2404 43.0218 24.5688 42.1147 24.5844C39.8158 24.5844 37.5169 24.5844 35.2023 24.5844C34.9834 24.5844 34.7801 24.5844 34.5142 24.5844C34.5142 28.3847 34.5142 32.1381 34.5142 35.9852C35.4838 35.8445 36.4222 35.735 37.3605 35.563C39.1277 35.2502 40.8636 34.8123 42.4588 33.9522C42.8498 33.7332 43.2095 33.4517 43.5379 33.1546C43.9445 32.7949 43.9445 32.3414 43.5223 31.9973C43.0687 31.622 42.5996 31.2466 42.0835 31.0277C41.1139 30.6211 40.113 30.3083 39.1121 29.9642C39.0026 29.933 38.8775 29.9017 38.768 29.8704C38.2206 29.6671 37.9391 29.2136 38.0643 28.6818C38.1737 28.1658 38.6429 27.8217 39.2215 27.9468C41.0982 28.3691 42.928 28.9164 44.4606 30.1206C46.306 31.5594 46.2903 33.5456 44.4449 34.9843C42.9592 36.1573 41.192 36.7359 39.3779 37.1425C37.9391 37.4709 36.4691 37.6742 34.999 37.8776C34.5924 37.9401 34.436 38.0496 34.436 38.4875C34.4517 41.4589 34.4517 44.4146 34.4517 47.386C34.4517 48.4964 34.1702 48.7779 33.0754 48.7779C30.9642 48.7779 28.8529 48.7779 26.7573 48.7779C25.819 48.7779 25.4905 48.4651 25.4749 47.5268C25.4749 45.5406 25.4593 43.5545 25.4749 41.5527C25.4749 40.7551 26.0066 40.3016 26.6947 40.458C27.1795 40.5675 27.461 40.9584 27.461 41.6153C27.4767 43.101 27.461 44.5867 27.461 46.0567C27.461 46.2757 27.461 46.479 27.461 46.7292C29.1188 46.7292 30.7452 46.7292 32.403 46.7292C32.403 43.8673 32.403 41.0366 32.403 38.1278C32.0745 38.1278 31.7618 38.1121 31.4333 38.1278C27.4454 38.2529 23.52 37.9401 19.6728 36.8297C18.5156 36.5013 17.3896 36.0322 16.3261 35.4848C15.7005 35.172 15.1375 34.6559 14.6684 34.1242C13.8864 33.2171 13.8239 31.966 14.5902 31.059C15.1688 30.3709 15.9039 29.7766 16.6858 29.3387C18.6094 28.2596 20.7676 27.8217 22.9257 27.462C23.8015 27.3682 24.6304 27.2743 25.4749 27.1492ZM18.6563 22.5983C21.1742 22.5983 23.6295 22.5983 26.0848 22.5983C27.2108 22.5983 27.508 22.8954 27.508 24.0214C27.508 27.8217 27.508 31.622 27.508 35.4222C27.508 35.6412 27.508 35.8758 27.508 36.1416C29.197 36.1416 30.8078 36.1416 32.4811 36.1416C32.4811 35.8601 32.4811 35.6255 32.4811 35.4066C32.4811 31.5907 32.4811 27.7591 32.4811 23.9432C32.4811 22.9424 32.8096 22.5983 33.8105 22.5983C36.1094 22.5983 38.4083 22.5983 40.7229 22.5983C40.9262 22.5983 41.1295 22.5983 41.3328 22.5983C41.3328 20.8936 41.3328 19.2828 41.3328 17.6407C33.7635 17.6407 26.2256 17.6407 18.6563 17.6407C18.6563 19.2828 18.6563 20.8936 18.6563 22.5983ZM25.4749 29.1667C24.4427 29.323 23.4887 29.4325 22.5348 29.6202C20.6737 29.9642 18.8283 30.4021 17.1862 31.403C15.81 32.2319 15.81 32.8887 17.155 33.7489C18.453 34.5777 19.9231 35 21.4088 35.3284C22.7381 35.6099 24.083 35.7976 25.4749 36.0322C25.4749 33.702 25.4749 31.4969 25.4749 29.1667Z" fill="white"/>
<path d="M5.30063 29.9174C5.26935 18.4853 13.2765 8.41381 24.3958 5.86466C38.1737 2.70559 51.7327 11.5416 54.3131 25.4916C56.9092 39.5353 47.2443 52.1716 34.1389 54.3298C24.083 55.9875 14.0272 51.4053 8.83503 42.757C8.7412 42.5849 8.63173 42.4285 8.55353 42.2409C8.35023 41.7561 8.50662 41.3494 8.91323 41.0679C9.31984 40.7708 9.83593 40.8334 10.18 41.2087C10.3207 41.3651 10.4302 41.5528 10.5397 41.7404C14.6058 48.1211 20.3766 51.8119 27.8989 52.5626C39.5343 53.7199 50.1532 45.6814 52.3113 34.2181C54.6259 21.879 46.6031 10.0715 34.2483 7.6475C21.9405 5.22347 9.77337 13.5903 7.6152 25.9451C7.08347 29.0103 7.14603 32.0443 7.84978 35.0626C7.88106 35.1721 7.8967 35.2972 7.91234 35.4066C8.02181 36.0009 7.70903 36.5014 7.19294 36.6265C6.64558 36.7516 6.09822 36.4701 6.00438 35.8758C5.73852 34.3432 5.51958 32.7949 5.30063 31.2623C5.23807 30.8244 5.30063 30.3709 5.30063 29.9174Z" fill="url(#paint1_linear_101_3189)"/>
<defs>
<linearGradient id="paint0_linear_101_3189" x1="0.0253862" y1="30.1667" x2="60.0031" y2="30.1667" gradientUnits="userSpaceOnUse">
<stop stop-color="#95E0D9"/>
<stop offset="0.5865" stop-color="#26C7BC"/>
</linearGradient>
<linearGradient id="paint1_linear_101_3189" x1="5.27282" y1="30.082" x2="54.7601" y2="30.082" gradientUnits="userSpaceOnUse">
<stop stop-color="#95E0D9"/>
<stop offset="0.5865" stop-color="#26C7BC"/>
</linearGradient>
</defs>
</svg>
