<svg width="62" height="60" viewBox="0 0 62 60" fill="none" xmlns="http://www.w3.org/2000/svg">
<path d="M61.0046 31.5269C60.8481 32.6853 60.7228 33.8436 60.5193 35.002C58.3591 47.1807 49.0138 57.481 36.1619 59.5473C27.6462 60.9248 19.8037 59.1872 12.8846 53.9432C6.96749 49.4505 3.21056 43.4551 1.70779 36.1917C-0.515053 25.3436 2.49049 16.0139 10.3487 8.23393C10.8966 7.68605 11.3662 7.63908 11.7732 8.03043C12.1802 8.40612 12.0863 8.93835 11.6167 9.45493C10.4426 10.7542 9.17468 12.0065 8.15718 13.4154C4.19676 18.8629 2.36526 24.9836 2.77226 31.7304C3.5393 44.363 13.0412 55.3677 25.533 57.7001C36.3185 59.7038 45.3821 56.3226 52.5828 48.0887C56.0423 44.1439 58.1556 39.5103 58.954 34.2976C59.1261 33.1862 59.1731 32.0591 59.2827 30.8851C57.4668 30.8851 55.7606 30.8851 54.0073 30.8851C53.8821 31.8869 53.7882 32.8888 53.616 33.8749C52.802 38.6963 50.5948 42.8133 47.1353 46.2728C46.6813 46.7268 46.1648 46.7424 45.7891 46.3667C45.3977 45.9754 45.4447 45.4745 45.9456 44.9892C48.685 42.2967 50.5635 39.119 51.534 35.409C54.4769 24.06 47.2918 11.9439 35.9271 9.3297C23.4197 6.44939 12.1176 14.8242 10.1139 26.2985C7.93803 38.7433 16.4068 48.4957 26.8166 50.7342C32.2485 51.9082 37.3673 51.0159 42.0947 48.0573C42.7679 47.6347 43.3314 47.7286 43.5819 48.2922C43.7854 48.7461 43.6288 49.1531 43.0809 49.5131C38.8857 52.1587 34.2991 53.3327 29.3525 52.8787C22.9501 52.2839 17.6121 49.5445 13.4169 44.6918C9.31557 39.9486 7.53103 34.3759 8.14153 28.1613C9.04945 18.9725 13.8865 12.5231 22.277 8.76616C24.5937 7.73301 27.067 7.24774 29.603 7.07554C29.7595 7.05989 29.9004 7.04424 30.0882 7.02858C30.0882 5.291 30.0882 3.56908 30.0882 1.73758C28.9925 1.84716 27.9124 1.92542 26.8479 2.08196C22.7309 2.66116 18.927 4.11696 15.4519 6.40243C14.904 6.76247 14.4657 6.73116 14.137 6.35547C13.7613 5.91716 13.8708 5.35362 14.4344 4.96227C17.0955 3.16208 19.9602 1.78454 23.0753 1.06446C24.9851 0.626155 26.9575 0.407001 28.8985 0.0939241C29.0551 0.0626164 29.196 0.0313077 29.3525 0C30.4013 0 31.4658 0 32.5146 0C33.1251 0.0782693 33.7512 0.156539 34.3617 0.219154C40.7485 0.954886 46.3996 3.36558 51.1427 7.74866C56.1206 12.3509 59.3766 17.9237 60.5506 24.6548C60.7385 25.7193 60.8481 26.8151 61.0046 27.8795C61.0046 29.1005 61.0046 30.3215 61.0046 31.5269ZM59.1888 29.0849C59.1731 14.4798 45.8673 1.70627 31.9041 1.81585C31.9041 3.53777 31.9041 5.27535 31.9041 7.02858C37.8682 7.35731 43.0027 9.54885 47.2136 13.7597C51.4401 17.9706 53.6316 23.1207 53.976 29.0849C55.7449 29.0849 57.4512 29.0849 59.1888 29.0849Z" fill="url(#paint0_linear_101_3198)"/>
<path d="M24.0109 24.3887C23.8074 25.6097 23.6195 26.7837 23.4317 27.8952C24.2927 27.9421 25.138 27.8795 25.9363 28.036C28.4879 28.5213 30.1472 30.8381 29.8341 33.3427C29.521 35.8786 27.2982 37.7414 24.7466 37.6319C22.3203 37.5223 20.2227 35.409 20.1444 32.9983C20.1287 32.3565 20.4262 31.9495 20.9427 31.9025C21.475 31.8556 21.835 32.2313 21.8976 32.9044C22.0542 34.6733 23.463 35.9569 25.1849 35.8786C26.8286 35.8004 28.1122 34.3915 28.0965 32.7322C28.0809 31.0416 26.7347 29.6797 24.9658 29.6954C24.324 29.6954 23.6665 29.9145 23.0247 30.0397C22.7586 30.0867 22.4925 30.2119 22.2264 30.2119C21.6785 30.1963 21.3341 29.8362 21.428 29.2884C21.7254 27.316 22.0542 25.3592 22.3985 23.4025C22.4768 22.9485 22.7899 22.6668 23.2595 22.6668C24.9032 22.6511 26.5468 22.6511 28.1748 22.6668C28.6914 22.6668 29.0201 23.0581 29.0201 23.5277C29.0201 24.0287 28.6601 24.3887 28.1122 24.4043C26.7816 24.3887 25.4354 24.3887 24.0109 24.3887Z" fill="white"/>
<path d="M40.025 23.4181C39.8997 23.7782 39.8528 23.9817 39.7589 24.1852C38.0369 28.2865 36.315 32.3878 34.6087 36.4735C34.5774 36.5674 34.5305 36.6613 34.4992 36.7396C34.233 37.2875 33.7947 37.491 33.3251 37.2875C32.8398 37.084 32.6677 36.63 32.8868 36.0665C33.1999 35.2838 33.5286 34.5167 33.8573 33.7497C35.2818 30.3528 36.7063 26.9559 38.1308 23.559C38.2091 23.3868 38.2561 23.1207 38.397 23.0424C38.6944 22.8859 39.0701 22.6824 39.3675 22.745C39.6336 22.8233 39.8215 23.2146 40.025 23.4181Z" fill="white"/>
<path d="M35.9392 25.4531C35.9549 27.3629 34.2799 28.7091 32.605 28.1299C31.29 27.676 30.5856 26.1262 31.0083 24.6078C31.384 23.2459 32.5893 22.4789 33.8886 22.745C35.0626 22.9642 35.9236 24.1226 35.9392 25.4531ZM34.1703 25.4531C34.1703 24.8896 33.826 24.4513 33.3876 24.4513C32.9337 24.4513 32.6206 24.9052 32.6363 25.5157C32.6519 26.0949 32.9806 26.5176 33.419 26.5019C33.8573 26.4706 34.186 26.001 34.1703 25.4531Z" fill="white"/>
<path d="M41.8564 34.7672C41.8094 35.7533 41.3398 36.6613 40.291 37.1622C39.3674 37.6005 38.4752 37.4127 37.7394 36.7395C36.8159 35.8942 36.5967 34.8298 36.9568 33.6401C37.3324 32.3878 38.4752 31.6207 39.6649 31.8086C40.9798 32.0277 41.8564 33.1392 41.8564 34.7672ZM40.0875 34.5637C40.0875 34.0001 39.7744 33.5462 39.3518 33.5305C38.9291 33.5148 38.5534 34.0001 38.5534 34.5793C38.5534 35.1272 38.8978 35.5968 39.3048 35.6125C39.7275 35.6281 40.0875 35.1585 40.0875 34.5637Z" fill="white"/>
<path d="M34.6278 3.60034C36.4593 4.11692 38.3534 4.4613 40.1223 5.16573C49.4363 8.82873 55.0717 15.6225 57.0911 25.4218C57.138 25.6723 57.1693 25.9227 57.2163 26.1732C57.3102 26.7837 57.0441 27.2533 56.5119 27.3316C55.964 27.4099 55.5726 27.1124 55.4787 26.4863C55.103 24.0443 54.4612 21.6805 53.3498 19.4577C49.452 11.6621 43.1904 6.99723 34.5808 5.52577C34.1738 5.46315 33.7512 5.33792 33.7198 4.88396C33.6885 4.57088 33.8451 4.2265 34.0016 3.94473C34.0799 3.80384 34.3773 3.78819 34.5652 3.70992C34.5808 3.66296 34.5965 3.63165 34.6278 3.60034Z" fill="url(#paint1_linear_101_3198)"/>
<defs>
<linearGradient id="paint0_linear_101_3198" x1="0.995357" y1="30.1667" x2="61.0333" y2="30.1667" gradientUnits="userSpaceOnUse">
<stop stop-color="#95E0D9"/>
<stop offset="0.5865" stop-color="#26C7BC"/>
</linearGradient>
<linearGradient id="paint1_linear_101_3198" x1="33.7158" y1="15.5381" x2="57.2461" y2="15.5381" gradientUnits="userSpaceOnUse">
<stop stop-color="#95E0D9"/>
<stop offset="0.5865" stop-color="#26C7BC"/>
</linearGradient>
</defs>
</svg>
