<svg width="62" height="60" viewBox="0 0 62 60" fill="none" xmlns="http://www.w3.org/2000/svg">
<path d="M30.9865 60C22.8555 60 14.9914 56.6505 9.40888 50.8252C4.6516 45.8738 1.86034 39.8786 1.10791 33.034C1.08364 32.767 1.03509 32.5243 1.01082 32.2573L0.96228 31.8689V28.1311V28.1068C0.986552 27.8883 1.01082 27.6699 1.03509 27.4272C1.08364 26.9417 1.15646 26.4563 1.205 25.9709C2.1516 19.3447 4.9914 13.6165 9.62732 8.90777C14.1176 4.36893 19.5788 1.50485 25.8409 0.436893C26.5691 0.315534 27.3215 0.218447 28.0497 0.121359C28.3895 0.0728155 28.7293 0.0242718 29.0691 0H29.0933H32.8555H32.8798C33.2196 0.0485437 33.5594 0.0970874 33.8992 0.121359C34.6516 0.218447 35.4526 0.315534 36.2293 0.461165C37.3215 0.65534 38.3895 0.946602 39.5788 1.23786C40.04 1.35922 40.3798 1.60194 40.5739 1.91748C40.7196 2.18447 40.7681 2.5 40.671 2.83981C40.5011 3.42233 40.0642 3.76214 39.4817 3.76214C39.2875 3.76214 39.0933 3.73786 38.8992 3.66505C36.3749 2.91262 33.7778 2.52427 31.1322 2.52427C30.7196 2.52427 30.2827 2.52427 29.87 2.54854C23.6565 2.81553 18.1225 4.97573 13.3895 8.95631C8.2681 13.2524 5.08849 18.7136 3.97199 25.1699C2.61276 33.034 4.33607 40.2427 9.11762 46.6019C13.438 52.3058 19.1419 55.8252 26.0836 57.0631C27.8798 57.3786 29.6516 57.5485 31.3506 57.5485C37.7098 57.5485 43.5351 55.3641 48.7293 51.0437C54.0691 46.5777 57.2487 40.8981 58.1953 34.1262C59.4817 24.8544 56.7147 16.7961 49.9914 10.1456C47.8312 8.00971 45.2584 6.28641 42.1516 4.87864L42.0788 4.8301C41.7875 4.70874 41.4477 4.53884 41.3264 4.2233C41.205 3.85922 41.1322 3.34951 41.3264 2.91262C41.4963 2.54854 41.8361 2.30583 42.273 2.30583C42.4429 2.30583 42.6128 2.3301 42.7827 2.40291C43.2924 2.62136 43.972 2.91262 44.6516 3.2767C53.5351 8.00971 58.8749 15.267 60.5739 24.9029C62.904 38.1553 56.3021 51.068 44.1662 56.9903C40.0157 58.9563 35.5011 60 30.9865 60Z" fill="url(#paint0_linear_101_3221)"/>
<path d="M30.8167 43.4223C30.1856 43.3981 29.7244 42.8884 29.6759 42.2087C29.6759 42.0874 29.6759 41.9418 29.6759 41.8204V41.4806C29.5303 41.4563 29.3846 41.4078 29.2633 41.3835C28.7778 41.2864 28.2681 41.1651 27.7827 40.9952C25.3312 40.1699 23.8021 38.7864 23.074 36.7961C22.9526 36.4563 22.8555 36.068 22.807 35.6553C22.7099 34.9757 23.1468 34.3932 23.7778 34.2961C23.8507 34.2719 23.9235 34.2719 23.9963 34.2719C24.5545 34.2719 24.9914 34.6117 25.1613 35.1942C25.7924 37.3301 27.54 38.8107 29.7244 39.0291C29.7244 39.0291 29.8215 38.9806 29.8701 38.9078C30.2341 38.4709 30.6225 38.3738 30.8652 38.3738C31.1079 38.3738 31.4963 38.4709 31.8604 38.9078C31.9089 38.9563 32.006 39.0291 32.0545 39.0291C33.4866 38.8107 34.6031 38.3252 35.4526 37.5243C36.5448 36.5291 36.9332 35.3155 36.6419 33.8592C36.4963 33.2039 36.1322 32.3301 35.0885 31.966C34.3604 31.699 33.5837 31.5049 32.7827 31.3107C32.5642 31.2621 32.3215 31.1893 32.0788 31.1408C32.0788 31.2864 32.0545 31.3835 32.0545 31.5049C32.0545 32.5728 32.0545 33.6408 32.0545 34.7087V36.432C32.0545 36.5777 32.0545 36.7233 32.0545 36.8689C31.9817 37.5728 31.5448 38.034 30.8652 38.034C30.1613 38.034 29.6759 37.5243 29.6759 36.7961V36.2379C29.6759 34.6845 29.6516 33.0583 29.7002 31.4563C29.7002 30.9952 29.6759 30.9223 29.2147 30.8738C27.6128 30.6796 26.3021 30.2185 25.1613 29.4418C24.0206 28.6651 23.2681 27.4272 23.0254 25.9709C22.7584 24.3689 23.1225 22.7185 24.0206 21.4563C24.2875 21.068 24.6516 20.8738 25.04 20.8738C25.2584 20.8738 25.5011 20.9466 25.6953 21.068C26.2778 21.4563 26.3749 22.1602 25.9623 22.8155C25.2827 23.9078 25.1128 25.0728 25.5011 26.0922C25.8895 27.0874 26.7633 27.8398 27.9769 28.2039C28.4138 28.3252 28.8507 28.4223 29.3361 28.4952C29.4332 28.5194 29.5303 28.5194 29.6031 28.5437V20.8252C29.5545 20.8495 29.506 20.8495 29.4332 20.8738C28.9963 20.9709 28.5837 21.068 28.1953 21.1893C28.0011 21.2379 27.807 21.2864 27.6371 21.2864C27.1031 21.2864 26.6905 21.0194 26.5206 20.534C26.4235 20.2185 26.4235 19.9029 26.5691 19.6359C26.7147 19.3204 27.0303 19.1019 27.4429 18.9563C28.171 18.7379 28.8264 18.568 29.4574 18.4709C29.5788 18.4466 29.6273 18.4223 29.6516 18.4223C29.6516 18.3981 29.6516 18.3738 29.6516 18.3252C29.6273 18.2282 29.6516 18.1553 29.6516 18.1068V18.0583C29.6759 17.0146 30.2827 16.6262 30.8409 16.6262C31.1808 16.6262 31.472 16.7476 31.6905 16.966C31.9332 17.233 32.0545 17.6214 32.0303 18.0825C32.006 18.3981 32.006 18.4223 32.4429 18.4952C34.9429 18.9078 36.6905 19.9757 37.7584 21.8204C38.0982 22.4029 38.2924 23.0583 38.438 23.568C38.5351 23.932 38.5108 24.2719 38.3409 24.5388C38.1953 24.8058 37.9283 24.9757 37.5885 25.0728C37.4672 25.0971 37.3701 25.1214 37.2487 25.1214C36.9332 25.1214 36.3749 25 36.1079 24.1262C35.5497 22.233 34.0691 21.068 32.0788 20.8738V28.8107C32.2002 28.835 32.3215 28.8592 32.4429 28.8592C32.9769 28.932 33.5108 29.0291 34.0448 29.1262C34.4574 29.199 34.8701 29.3204 35.2584 29.4418C37.0303 29.9757 38.2924 31.2136 38.8507 32.9369C39.4332 34.7816 39.0691 36.9175 37.9283 38.3495C36.6419 39.9515 34.8701 40.9466 32.4914 41.4078C32.3458 41.432 32.2002 41.4563 32.0303 41.4806C32.0303 41.5049 32.0303 41.5049 32.0303 41.5291C32.0303 41.7719 32.0303 42.0146 32.0303 42.2816C31.9817 42.9854 31.4963 43.4952 30.8409 43.4952C30.8652 43.4223 30.8409 43.4223 30.8167 43.4223Z" fill="white"/>
<path d="M12.103 44.466C11.7147 44.466 11.3506 44.2719 11.1079 43.9321C10.5982 43.1796 10.0642 42.3544 9.60301 41.5049C4.23894 31.5777 6.54476 19.0534 15.0884 11.699C19.5545 7.86409 25.1855 5.75244 30.9622 5.75244C36.7147 5.75244 42.3457 7.83982 46.7875 11.6505L46.836 11.699C46.8846 11.7476 46.9574 11.7961 47.0059 11.8447C47.5884 12.4029 47.6613 13.1068 47.2001 13.6408C46.9574 13.9321 46.6418 14.0777 46.302 14.0777C46.0108 14.0777 45.6952 13.9563 45.404 13.7379C45.137 13.5194 44.8457 13.301 44.5787 13.0825C43.9719 12.5971 43.3409 12.1117 42.7098 11.699C39.2147 9.44176 35.1855 8.22817 31.0593 8.22817C20.8894 8.22817 11.9331 15.3641 9.77291 25.1942C9.53019 26.2621 9.40884 27.3787 9.28748 28.4709C9.23893 28.9806 9.16612 29.4903 9.0933 30C9.26321 34.5388 10.5011 38.4709 12.8797 42.0388C12.904 42.0874 12.9283 42.1359 12.9768 42.1845C13.0496 42.3058 13.1467 42.4272 13.2195 42.5728C13.5593 43.1796 13.3894 43.8835 12.8554 44.2476C12.6127 44.3932 12.37 44.466 12.103 44.466Z" fill="url(#paint1_linear_101_3221)"/>
<path d="M30.7439 54.2719C25.9866 54.2719 21.3992 52.8156 17.1517 49.9515C16.8604 49.7573 16.2536 49.3447 16.375 48.5194C16.4721 47.9126 16.9332 47.5243 17.5643 47.5243C17.8555 47.5243 18.1468 47.6214 18.4381 47.767C18.7536 47.9612 19.0934 48.1554 19.4089 48.3495C20.3555 48.9078 21.3264 49.4903 22.3216 49.9515C25.0157 51.1408 27.9041 51.7476 30.8653 51.7476C39.4089 51.7476 47.1759 46.7961 50.6711 39.1262C52.006 36.2136 52.6614 33.1311 52.6857 29.7573C52.6614 26.2864 51.739 22.7913 50.0643 19.6602C49.7488 19.0534 49.6517 18.5923 49.7488 18.2282C49.8458 17.9369 50.04 17.7185 50.3556 17.5486C50.5497 17.4515 50.7439 17.3787 50.9381 17.3787C51.5934 17.3787 51.9818 17.9855 52.2488 18.4466C55.9138 25.1214 56.1808 32.9855 53.0497 39.9757C49.9187 46.966 43.8507 51.9418 36.4721 53.6408C34.5303 54.0534 32.6128 54.2719 30.7439 54.2719Z" fill="url(#paint2_linear_101_3221)"/>
<defs>
<linearGradient id="paint0_linear_101_3221" x1="0.962276" y1="30.1667" x2="61.0664" y2="30.1667" gradientUnits="userSpaceOnUse">
<stop stop-color="#95E0D9"/>
<stop offset="0.5865" stop-color="#26C7BC"/>
</linearGradient>
<linearGradient id="paint1_linear_101_3221" x1="6.72497" y1="25.2168" x2="47.5203" y2="25.2168" gradientUnits="userSpaceOnUse">
<stop stop-color="#95E0D9"/>
<stop offset="0.5865" stop-color="#26C7BC"/>
</linearGradient>
<linearGradient id="paint2_linear_101_3221" x1="16.3591" y1="35.9277" x2="55.2321" y2="35.9277" gradientUnits="userSpaceOnUse">
<stop stop-color="#95E0D9"/>
<stop offset="0.5865" stop-color="#26C7BC"/>
</linearGradient>
</defs>
</svg>
