<svg width="60" height="58" viewBox="0 0 60 58" fill="none" xmlns="http://www.w3.org/2000/svg">
<path d="M37.3721 57.99C36.3945 57.99 35.5292 57.5253 34.9202 56.6599C34.6478 56.2753 34.3593 55.8586 34.1029 55.474C33.7343 54.9292 33.3337 54.3522 32.933 53.7913C32.6606 53.4388 32.1638 53.1664 31.6991 53.1503C31.2344 53.1343 30.7696 53.1343 30.4171 53.1343H29.3914C28.9748 53.1343 28.6543 53.1343 28.3498 53.1183H28.2857C27.7088 53.1183 27.2921 53.3426 26.9716 53.8394C26.4267 54.6727 25.8498 55.5061 25.2889 56.3073L25.1607 56.4836C24.4716 57.4772 23.6383 57.958 22.6287 57.958C22.2761 57.958 21.8755 57.8939 21.4749 57.7657C20.93 57.6054 20.3531 57.4291 19.7922 57.2208C18.4621 56.74 17.7089 55.6503 17.7249 54.2401C17.7249 53.7433 17.7409 53.2465 17.773 52.7657C17.789 52.1087 17.8211 51.4356 17.8211 50.7625C17.8211 50.2497 17.4845 49.769 17.1801 49.5286C16.7313 49.176 16.2666 48.8395 15.8179 48.519C15.3692 48.1985 14.9205 47.8619 14.4878 47.5254C14.1833 47.285 13.8788 47.1728 13.5583 47.1728C13.366 47.1728 13.1737 47.2049 12.9654 47.285C12.0519 47.6216 11.0583 47.9901 9.82438 48.4068C9.42375 48.551 9.03913 48.6151 8.67055 48.6151C7.74107 48.6151 6.90775 48.1824 6.26673 47.3491C5.8661 46.8363 5.49751 46.3235 5.16098 45.8267C4.34368 44.6248 4.37574 43.3267 5.25713 42.1569C5.8661 41.3556 6.58725 40.4101 7.34044 39.4646C7.80518 38.8877 7.693 38.3589 7.5648 38.0063C7.38852 37.5095 7.22826 36.9807 7.06801 36.4839C6.89173 35.923 6.69942 35.3461 6.50712 34.7692C6.36289 34.3525 5.96225 33.9519 5.56162 33.8237C4.69624 33.5352 3.79882 33.2788 2.93345 33.0224L2.37256 32.8621C0.802066 32.3974 0.000791256 31.3557 0.000791256 29.7212V29.4167C0.000791256 28.6955 -0.0152332 28.0225 0.0969448 27.3814C0.273225 26.2757 0.930267 25.5385 2.02 25.1539C3.33408 24.7052 4.64817 24.3366 5.88213 24.0001C6.01033 23.968 6.13853 23.952 6.26673 23.952C6.77955 23.952 7.18018 24.2565 7.32441 24.7693C7.50069 25.3943 7.18018 25.9392 6.49109 26.1635C5.56161 26.468 4.51996 26.7725 3.23793 27.125C2.58089 27.3013 2.24436 27.75 2.22833 28.4391V28.4872C2.2123 30.282 2.40461 30.5545 4.13535 31.0513L4.51996 31.1634C5.19303 31.3557 5.89815 31.5641 6.58724 31.7884C7.61287 32.125 8.28594 32.8141 8.62247 33.9038C8.95901 34.9775 9.34362 36.2275 9.79233 37.5095C10.193 38.6633 10.0487 39.6409 9.31157 40.6024C8.62247 41.4998 7.96543 42.3812 7.27634 43.2466C6.85968 43.7755 6.82762 44.2883 7.21223 44.8492L7.22826 44.8812C7.8212 45.7145 8.17376 46.2273 8.92696 46.2273C9.31157 46.2273 9.69618 46.0831 10.3212 45.8588L10.7058 45.7306C11.3147 45.5062 11.9558 45.2818 12.5808 45.0735C12.9654 44.9453 13.35 44.8652 13.7025 44.8652C14.3756 44.8652 15.0166 45.1056 15.6576 45.5863C16.6833 46.3716 17.7089 47.1087 18.6864 47.7818C19.648 48.4549 20.0967 49.3042 20.0807 50.41C20.0646 51.4356 20.0326 52.5253 19.9845 53.9196C19.9525 54.5606 20.2409 54.9772 20.8499 55.1856L20.8819 55.2016C21.5229 55.4259 21.9076 55.5702 22.2922 55.5702C23.0614 55.5702 23.43 55.0413 24.0229 54.176L24.3915 53.6471C24.712 53.1824 25.0485 52.6856 25.3851 52.2209C26.0261 51.3074 26.8915 50.8587 27.9972 50.8587C28.0293 50.8587 28.0613 50.8587 28.0773 50.8587C28.7344 50.8747 29.3914 50.8747 30.0324 50.8747C30.6735 50.8747 31.3145 50.8747 31.9395 50.8587C31.9715 50.8587 32.0036 50.8587 32.0356 50.8587C33.1574 50.8587 34.0068 51.3074 34.6478 52.2209C35.3369 53.1984 35.9619 54.0958 36.5548 55.0253C36.8272 55.442 37.1798 55.6503 37.5965 55.6503C37.7567 55.6503 37.917 55.6182 38.1093 55.5541L38.1413 55.5381C39.8721 54.9933 40.0644 54.7208 39.9842 52.8779C39.9362 51.8683 39.9201 51.0991 39.9201 50.3779C39.9201 49.3203 40.3528 48.503 41.2182 47.8619C41.8432 47.4132 42.4682 46.9485 43.0932 46.4998C43.5579 46.1632 44.0387 45.8107 44.5034 45.4742C45.0643 45.0575 45.6572 44.8652 46.2822 44.8652C46.6188 44.8652 46.9873 44.9293 47.3559 45.0575C48.67 45.5062 49.6796 45.8588 50.6091 46.2113C50.8014 46.2914 50.9777 46.3235 51.1379 46.3235C51.7149 46.3235 52.0354 45.9068 52.1315 45.7626L52.1475 45.7306C53.2533 44.2883 53.2533 43.9517 52.1636 42.5255C51.9713 42.2851 51.795 42.0447 51.6027 41.7883C51.2982 41.4037 51.0097 41.0191 50.7053 40.6184C49.9521 39.6249 49.8078 38.6153 50.2565 37.4294C50.6572 36.3717 51.0097 35.2499 51.3623 34.016C51.6988 32.8141 52.4039 32.0769 53.5578 31.7404L53.6059 31.7243C54.6315 31.4198 55.7052 31.0993 56.7629 30.8109C57.4199 30.6346 57.7725 30.1859 57.7725 29.4968V29.4487C57.7885 27.6699 57.5962 27.3975 55.8654 26.8847C55.561 26.7885 55.2725 26.7084 54.968 26.6282C54.4712 26.484 53.9584 26.3398 53.4616 26.1795C52.3719 25.843 51.7148 25.1379 51.3623 24.0001C50.9456 22.6219 50.5931 21.5001 50.2245 20.4905C49.7918 19.3207 49.9521 18.3271 50.6892 17.3495C51.5225 16.2598 52.1636 15.4265 52.7725 14.6573C53.1571 14.1765 53.1732 13.6797 52.8366 13.1829L52.8206 13.1669C52.2277 12.2695 51.8751 11.7406 51.0899 11.7406C50.7052 11.7406 50.3206 11.8849 49.6636 12.1092L49.3751 12.2054C48.7181 12.4457 48.029 12.6861 47.3559 12.9105C46.9873 13.0387 46.6188 13.1028 46.2822 13.1028C45.6092 13.1028 44.9682 12.8624 44.3271 12.3816C43.2855 11.5804 42.3239 10.8752 41.3945 10.2503C40.3368 9.52911 39.8721 8.64772 39.9041 7.44581C39.9362 6.1798 39.9682 5.13815 40.0163 4.04842C40.0483 3.4074 39.7599 2.99074 39.1509 2.76638L39.1189 2.75036C38.4779 2.526 38.0932 2.38177 37.7086 2.38177C36.9394 2.38177 36.5708 2.91061 35.9779 3.77599C35.8337 3.98432 35.6894 4.19265 35.5452 4.40098C35.2407 4.86571 34.9042 5.33045 34.5837 5.79519C33.9426 6.69261 33.0933 7.1253 32.0036 7.1253C31.9715 7.1253 31.9555 7.1253 31.9234 7.1253C31.3305 7.10927 30.6895 7.10927 30.0324 7.10927C29.3914 7.10927 28.7184 7.10927 27.9972 7.1253H27.9331C26.8434 7.1253 26.0101 6.69261 25.3851 5.81121C24.6639 4.80161 23.9909 3.80804 23.43 2.95869C23.3178 2.78241 23.0133 2.3337 22.3883 2.3337C22.2441 2.3337 22.0999 2.34972 21.9396 2.3978L21.8915 2.41382C20.1127 2.94266 19.9044 3.2151 19.9845 5.09007C20.0166 5.90737 20.0486 6.77274 20.0486 7.63811C20.0326 8.66374 19.6159 9.48104 18.7505 10.106L18.7025 10.1541C17.6608 10.9073 16.5711 11.6925 15.5134 12.4778C14.9205 12.9105 14.3275 13.1188 13.6865 13.1188C13.35 13.1188 12.9814 13.0547 12.6128 12.9265C11.3949 12.5098 10.3212 12.1413 9.37567 11.7727C9.18336 11.6925 9.00708 11.6605 8.84683 11.6605C8.26991 11.6605 7.9494 12.0772 7.85325 12.2214L7.83723 12.2534C6.73147 13.6957 6.73147 14.0323 7.8212 15.4585C7.99748 15.6829 8.17376 15.9233 8.35004 16.1476C8.67055 16.5483 8.99106 16.9809 9.31157 17.3976C9.76028 18.0066 9.7122 18.6476 9.16734 19.0642C8.95901 19.2245 8.73465 19.3046 8.49427 19.3046C8.14171 19.3046 7.78915 19.1123 7.51672 18.7758C6.76353 17.8143 5.96225 16.7886 5.19303 15.747C4.35971 14.6252 4.32766 13.3271 5.11291 12.1733C5.48149 11.6284 5.88213 11.0836 6.28276 10.5547C6.90775 9.75347 7.72505 9.33681 8.65452 9.33681C9.00708 9.33681 9.3917 9.40091 9.76028 9.52911C10.209 9.67334 10.6577 9.84962 11.0904 9.99385C11.7314 10.2182 12.3884 10.4586 13.0615 10.6829C13.1897 10.731 13.3339 10.747 13.4782 10.747C13.7987 10.747 14.1352 10.6509 14.3916 10.4746C15.3692 9.80155 16.3147 9.11245 17.1801 8.43938C17.5486 8.15093 17.805 7.63811 17.8211 7.20543C17.8211 6.53236 17.805 5.85929 17.773 5.20225C17.757 4.73751 17.7409 4.25675 17.7409 3.77599C17.7249 2.28562 18.4621 1.22794 19.8723 0.731154C20.5774 0.474747 21.1383 0.298468 21.6511 0.154239C21.9717 0.0580863 22.3082 0.0100098 22.6127 0.0100098C23.6062 0.0100098 24.4556 0.474747 25.0646 1.35615C25.7376 2.30165 26.3786 3.24715 26.9716 4.1606C27.2921 4.64136 27.7088 4.86571 28.2857 4.86571H28.3498C28.8786 4.84969 29.4235 4.84969 29.9683 4.84969C30.5132 4.84969 31.0901 4.84969 31.667 4.86571H31.7151C32.276 4.86571 32.6766 4.64136 32.9811 4.17662C33.5741 3.2792 34.183 2.3978 34.8561 1.42025C35.4971 0.490772 36.3625 0.0100098 37.3561 0.0100098C37.6926 0.0100098 38.0452 0.0580861 38.3977 0.170264C39.1509 0.39462 39.7439 0.586925 40.2887 0.795256C41.5067 1.25999 42.2438 2.3337 42.2438 3.61573C42.2438 4.17662 42.2278 4.73751 42.1957 5.2984C42.1797 5.92339 42.1477 6.58044 42.1477 7.22145C42.1477 7.65414 42.4041 8.1349 42.7566 8.42336C43.638 9.09643 44.5996 9.80155 45.5931 10.4906C45.8335 10.6509 46.154 10.747 46.4745 10.747C46.6188 10.747 46.747 10.731 46.8752 10.6829C47.5803 10.4586 48.3014 10.2022 48.9905 9.94578C49.3591 9.81757 49.7437 9.67334 50.1123 9.54514C50.529 9.40091 50.9456 9.32078 51.3302 9.32078C52.2757 9.32078 53.093 9.76949 53.7661 10.6509C54.0866 11.0676 54.4872 11.6124 54.8558 12.1733C55.6251 13.3111 55.593 14.6092 54.7757 15.6989C54.1507 16.5483 53.4616 17.4457 52.6764 18.4393C52.3078 18.904 52.2277 19.3848 52.42 19.9456C52.7886 20.9552 53.093 21.9648 53.4456 23.1027C53.5578 23.4712 53.7821 23.9841 54.5033 24.1603C54.8558 24.2405 55.1924 24.3526 55.5449 24.4648C55.9936 24.609 56.4584 24.7533 56.9391 24.8494C58.6378 25.218 59.6154 26.0674 60 27.5096V30.4102C59.9679 30.4904 59.9359 30.5865 59.9038 30.6667C59.8077 30.9231 59.7115 31.1634 59.6154 31.3718C59.2468 32.1089 58.6218 32.5897 57.7564 32.8461L57.3718 32.9583C56.4424 33.2467 55.4648 33.5352 54.5033 33.7916C53.7982 33.9839 53.5738 34.4807 53.4616 34.8333C53.1091 36.0191 52.8046 36.9967 52.436 37.9903C52.2277 38.5512 52.3078 39.0319 52.6924 39.5127C53.3494 40.346 54.0065 41.1954 54.6475 42.0287L54.6956 42.1088C55.6411 43.3428 55.6571 44.6248 54.7757 45.9229C54.4231 46.4197 54.0866 46.9004 53.7341 47.3491C53.093 48.1824 52.2597 48.6312 51.3142 48.6312C50.9456 48.6312 50.561 48.5671 50.1764 48.4228C49.7437 48.2786 49.311 48.1183 48.8783 47.9581C48.2373 47.7177 47.5643 47.4934 46.8912 47.269C46.763 47.2369 46.6348 47.2049 46.4906 47.2049C46.1701 47.2049 45.8495 47.3011 45.6092 47.4613C44.5996 48.1504 43.6541 48.8555 42.7727 49.5286C42.4201 49.801 42.1637 50.2978 42.1637 50.7305C42.1637 51.3875 42.1797 52.0606 42.2118 52.7016C42.2278 53.1984 42.2438 53.7112 42.2598 54.208C42.2759 55.6503 41.5227 56.724 40.1445 57.2048C39.4554 57.4451 38.8625 57.6375 38.3016 57.7977C37.9811 57.958 37.6766 57.99 37.3721 57.99Z" fill="url(#paint0_linear_101_3173)"/>
<path d="M30.417 44.5127C29.0709 44.5127 27.6606 44.3364 26.2344 43.9678C20.0485 42.4133 16.1704 38.2788 14.7441 31.6923C14.68 31.4199 14.648 31.1314 14.6159 30.7629C14.5839 30.3302 14.5518 29.8815 14.5358 29.5609C14.5358 29.4488 14.5198 29.3686 14.5198 29.2885C14.5198 25.2822 15.9781 21.4681 18.6383 18.5515C21.2665 15.6509 24.8722 13.8881 28.7824 13.5836C29.1991 13.5515 29.6157 13.5355 30.0324 13.5355C32.5965 13.5355 35.0804 14.1765 37.4201 15.4265C37.9169 15.6829 38.1413 15.9554 38.2054 16.3239C38.2855 16.8207 38.1573 17.1733 37.7727 17.4457C37.5643 17.606 37.356 17.6701 37.1317 17.6701C36.9394 17.6701 36.731 17.606 36.5227 17.4938C35.1285 16.7246 33.6221 16.2118 32.0356 15.9393C31.3465 15.8272 30.6574 15.7631 29.9523 15.7631C23.6382 15.7631 17.9332 20.5867 16.9556 26.7405C16.3787 30.3943 17.2121 33.9679 19.2954 36.8205C21.3787 39.673 24.5357 41.564 28.1895 42.1249C28.7984 42.221 29.4395 42.2691 30.0644 42.2691C36.3624 42.2691 42.0515 37.4455 43.029 31.2917C43.1091 30.7949 43.1572 30.2981 43.1893 29.8174C43.2053 29.6571 43.2213 29.4968 43.2373 29.3526C43.3014 28.6635 43.7502 28.1988 44.3431 28.1988C44.3591 28.1988 44.3912 28.1988 44.4072 28.1988C45.0803 28.2308 45.513 28.7437 45.4809 29.4808C45.3367 33.1186 44.1668 36.2436 42.0194 38.7595C38.7182 42.5736 34.824 44.5127 30.417 44.5127Z" fill="white"/>
<path d="M27.0998 31.3718C26.7151 30.9871 26.3305 30.6025 25.9459 30.2179C25.1927 29.4647 24.4235 28.7115 23.6703 27.9423C23.1094 27.3814 23.0613 26.7084 23.5261 26.2276C23.7504 26.0032 24.0068 25.8911 24.2793 25.8911C24.5998 25.8911 24.9523 26.0673 25.2729 26.3718C26.3145 27.4135 27.3562 28.4551 28.4138 29.5128L30.2087 31.3237L30.6894 30.875C30.7535 30.8269 30.8016 30.7628 30.8657 30.7147C30.9779 30.6025 31.0901 30.5064 31.2023 30.3942C32.0676 29.5288 32.949 28.6474 33.8144 27.7821C36.5067 25.0738 39.2951 22.2853 42.0675 19.561C42.3399 19.3046 42.7406 19.0802 43.0931 19.0161C43.1572 19.0001 43.2213 19.0001 43.2854 19.0001C43.6861 19.0001 43.9425 19.3206 44.0867 19.577C44.3111 20.0097 44.263 20.4104 43.9585 20.827C43.9264 20.8751 43.8463 20.9392 43.7822 21.0193L43.7341 21.0674C39.247 25.5545 34.7599 30.0577 30.2568 34.5448C30.2568 34.5288 27.9331 32.2051 27.0998 31.3718Z" fill="white"/>
<defs>
<linearGradient id="paint0_linear_101_3173" x1="-4.40687e-06" y1="29.1611" x2="60.0287" y2="29.1611" gradientUnits="userSpaceOnUse">
<stop stop-color="#95E0D9"/>
<stop offset="0.5865" stop-color="#26C7BC"/>
</linearGradient>
</defs>
</svg>
