<svg width="66" height="60" viewBox="0 0 66 60" fill="none" xmlns="http://www.w3.org/2000/svg">
<path d="M50.6079 36.855C49.9598 36.855 49.3426 36.855 48.7409 36.855C47.0127 36.855 45.2691 36.8859 43.541 36.8242C41.4733 36.747 39.8532 35.1115 39.776 33.0284C39.7452 32.3032 39.7143 31.5471 39.8532 30.8374C40.2235 28.9858 41.8437 27.6897 43.7415 27.6897C45.8246 27.6742 47.8922 27.6897 49.9752 27.6897C50.1758 27.6897 50.3919 27.6897 50.6079 27.6897C50.6079 26.5015 50.7159 25.3597 50.577 24.2488C50.2993 22.0732 48.5094 20.561 46.3183 20.5456C44.2816 20.5302 42.2448 20.5456 40.1927 20.5456C34.1287 20.5456 28.0647 20.5456 22.0008 20.5302C21.4144 20.5302 21.2447 20.6845 21.2447 21.2708C21.2601 28.0137 21.2601 34.7411 21.2601 41.484C21.2601 42.2092 21.2755 42.2247 22.0008 42.2247C23.1117 42.2247 24.2381 42.2247 25.349 42.2247C25.9971 42.2247 26.3674 42.5333 26.3829 43.0579C26.3983 43.5979 26.0125 43.9528 25.3336 43.9528C24.0992 43.9682 22.8648 43.9682 21.6459 43.9528C20.3806 43.9374 19.532 43.1196 19.532 41.8543C19.5165 34.8646 19.5165 27.8748 19.532 20.9005C19.532 19.6352 20.3806 18.8329 21.6459 18.8174C22.5254 18.802 23.4203 18.802 24.2998 18.8174C24.6393 18.8329 24.809 18.7094 24.9633 18.4008C25.6114 17.0893 26.2903 15.7932 26.9538 14.497C27.8024 12.8306 28.9442 12.4449 30.5952 13.2935C34.0207 15.0371 37.4461 16.7961 40.8716 18.5243C41.1956 18.694 41.5968 18.7866 41.9671 18.7866C43.3712 18.8174 44.7754 18.7866 46.1795 18.802C49.7438 18.8329 52.3669 21.4405 52.3823 25.0203C52.3977 29.2481 52.3977 33.4913 52.3823 37.7191C52.3669 41.2834 49.7747 43.9374 46.1949 43.9528C40.671 43.9837 35.1471 43.9528 29.6231 43.9528C29.4688 43.9528 29.3145 43.9528 29.1602 43.9065C28.7128 43.7985 28.4505 43.4899 28.4813 43.027C28.5122 42.5487 28.8054 42.2401 29.2991 42.2247C30.0243 42.2092 30.765 42.2092 31.4902 42.2092C36.366 42.2092 41.2265 42.2092 46.1023 42.2092C48.4477 42.2092 50.2221 40.7588 50.577 38.5369C50.685 38.0123 50.6079 37.4722 50.6079 36.855ZM50.6387 29.4178C48.3551 29.4178 46.1332 29.4178 43.9113 29.4178C42.4609 29.4178 41.5351 30.3282 41.5042 31.7786C41.5042 32.0255 41.5042 32.2723 41.5042 32.5347C41.5042 34.2628 42.3683 35.1115 44.0964 35.1269C46.1023 35.1269 48.0928 35.1269 50.0987 35.1269C50.2838 35.1269 50.469 35.1115 50.6542 35.096C50.6387 33.1827 50.6387 31.3466 50.6387 29.4178ZM37.3381 18.7711C37.3535 18.7403 37.3535 18.7094 37.369 18.6786C36.7981 18.3854 36.2117 18.0768 35.6408 17.7836C33.6504 16.7652 31.6753 15.7623 29.6849 14.7439C29.33 14.5588 28.9597 14.4508 28.7282 14.8828C28.0647 16.1481 27.4167 17.4287 26.7377 18.7711C30.3175 18.7711 33.8355 18.7711 37.3381 18.7711Z" fill="white"/>
<path d="M44.3589 30.8065C45.1612 30.8065 45.8093 31.47 45.8093 32.2724C45.7938 33.0902 45.1458 33.7228 44.328 33.7073C43.5411 33.6919 42.9084 33.0593 42.9084 32.2724C42.9084 31.4546 43.5565 30.8065 44.3589 30.8065Z" fill="white"/>
<path d="M65.0371 31.9252C64.8866 33.0285 64.7696 34.1484 64.569 35.2517C63.3321 42.2723 59.9889 48.1228 54.5897 52.7531C48.2711 58.1857 40.8828 60.5092 32.6085 59.9074C27.0421 59.5062 21.9772 57.5839 17.4473 54.3076C16.4777 53.6056 16.3607 52.8534 17.0795 51.9173C17.5141 51.3322 17.9654 50.7639 18.4168 50.1788C19.1188 49.2762 19.8376 49.1592 20.7904 49.8445C23.6655 51.9006 26.8248 53.2713 30.285 53.99C43.1895 56.6478 56.1443 48.1897 58.9024 35.2851C61.7942 21.8122 53.1689 8.59 39.6124 6.11607C30.0175 4.36091 22.0608 7.57034 15.8258 15.059C15.1906 15.8112 14.6724 16.0118 14.171 15.6106C13.6862 15.2094 13.7196 14.6578 14.3381 13.9223C20.0549 6.90171 27.4433 3.3914 36.4865 3.84272C48.689 4.42778 58.8355 13.5379 60.925 25.4896C63.4156 39.7482 54.0381 53.3047 39.7795 55.9124C32.7923 57.1827 26.2732 55.7953 20.3391 51.8504C20.1719 51.7334 19.9881 51.6164 19.7875 51.4827C19.4197 51.9674 19.0687 52.4188 18.7009 52.9035C20.8907 54.4915 23.2309 55.7118 25.7383 56.581C40.398 61.6124 56.0941 54.2241 61.4432 39.6813C65.4048 28.9331 62.4795 16.6303 53.3694 8.75716C53.2692 8.67358 53.1689 8.59 53.0853 8.50642C52.5838 8.03838 52.5002 7.52019 52.868 7.08558C53.2357 6.65097 53.8041 6.63426 54.3055 7.08558C55.3419 8.0551 56.4117 8.99118 57.3478 10.0443C61.8276 15.0757 64.3684 20.9597 64.92 27.6961C64.9368 27.8633 64.9869 28.0137 65.0203 28.1809C65.0371 29.4179 65.0371 30.6715 65.0371 31.9252Z" fill="url(#paint0_linear_101_3210)"/>
<path d="M7.50137 31.6911C9.30667 30.6213 11.0618 29.5682 12.8504 28.5151C12.5328 27.9802 12.2486 27.4954 11.931 26.9605C11.4129 27.2614 10.9782 27.5957 10.4768 27.7796C10.1425 27.9133 9.6577 27.9635 9.39025 27.7963C9.15623 27.6626 8.95564 27.1611 8.98907 26.8602C9.32339 23.8347 10.2093 20.9596 11.5967 18.2349C11.8642 17.7 12.3657 17.5496 12.8504 17.7836C13.3519 18.0343 13.4689 18.5191 13.2516 19.1208C12.583 20.8927 11.9478 22.6646 11.3126 24.4532C11.2457 24.6538 11.229 24.8878 11.1788 25.1385C12.466 24.6872 12.8504 24.8209 13.519 25.9743C13.9035 26.6262 14.288 27.2614 14.6724 27.9133C15.1572 28.7658 15.0068 29.4345 14.171 29.9359C12.2152 31.1228 10.2428 32.2761 8.25358 33.4463C7.56823 33.8474 7.01661 33.7973 6.41484 33.2791C4.75998 31.7914 3.10512 30.287 1.46698 28.7825C0.815061 28.1808 0.798345 27.4954 1.40011 26.7934C1.88487 26.2418 2.36963 25.7068 2.8711 25.1719C3.87405 24.0687 4.20836 24.0186 5.51219 24.8376C5.69607 24.0353 5.82979 23.2496 6.06381 22.4807C9.4404 10.9301 16.9458 3.62531 28.58 0.817063C36.1689 -1.00496 43.4403 0.265443 50.2102 4.17693C50.5278 4.36081 50.8286 4.74527 50.9289 5.0963C50.9958 5.31361 50.7284 5.78165 50.511 5.89866C50.2269 6.03238 49.7756 6.01567 49.4747 5.86523C48.2711 5.31361 47.1177 4.61154 45.8975 4.11007C29.7501 -2.69325 11.2457 6.98518 7.58495 24.1356C7.40107 25.0048 7.28406 25.9074 7.13362 26.7767C6.96646 27.7295 6.19754 28.0136 5.44533 27.3784C5.06087 27.0608 4.70984 26.7098 4.29194 26.3588C3.87405 26.8101 3.48958 27.2447 3.07169 27.696C4.57611 29.05 6.03038 30.3538 7.50137 31.6911Z" fill="url(#paint1_linear_101_3210)"/>
<defs>
<linearGradient id="paint0_linear_101_3210" x1="13.8374" y1="32.0582" x2="65.0615" y2="32.0582" gradientUnits="userSpaceOnUse">
<stop stop-color="#95E0D9"/>
<stop offset="0.5865" stop-color="#26C7BC"/>
</linearGradient>
<linearGradient id="paint1_linear_101_3210" x1="0.962887" y1="16.9498" x2="50.9633" y2="16.9498" gradientUnits="userSpaceOnUse">
<stop stop-color="#95E0D9"/>
<stop offset="0.5865" stop-color="#26C7BC"/>
</linearGradient>
</defs>
</svg>
