<svg width="60" height="60" viewBox="0 0 60 60" fill="none" xmlns="http://www.w3.org/2000/svg">
<path fill-rule="evenodd" clip-rule="evenodd" d="M0.000734023 58.4812C-0.0140223 59.2332 0.19257 59.6903 0.723798 60V59.9705H25.662V57.9209V54.3819H27.0786H27.8312C28.7903 54.3819 29.1593 54.028 29.1593 53.0695V48.0118C29.1593 47.0533 28.8051 46.6994 27.8459 46.6847H27.0639H25.6325V42.5707C25.6325 41.332 25.3374 41.0224 24.1126 41.0224H21.8844H17.7526C17.6548 41.0224 17.5671 41.0123 17.4644 41.0004C17.4432 40.9979 17.4212 40.9954 17.3985 40.9929C17.3616 40.9929 17.3284 40.9892 17.2952 40.9855C17.262 40.9818 17.2288 40.9781 17.1919 40.9781L16.8377 40.9486L17.1033 40.7127C19.3463 38.7663 20.6891 36.1268 20.8662 33.2957C21.0433 30.5235 20.1136 27.7808 18.3133 25.7606C16.2475 23.4456 13.4733 22.1774 10.4777 22.1774C8.20526 22.1774 6.00657 22.9295 4.11775 24.345C2.0076 25.9228 0.709038 28.0315 0.222079 30.5972C-0.515738 34.5195 0.664769 37.8373 3.83738 40.7569L4.11775 41.0076H2.19943H1.3288C0.369642 41.0076 0.000734023 41.3615 0.000734023 42.32V47.3188C0.0154904 48.3657 0.340133 48.7048 1.38783 48.7048H2.12565H3.51274V52.3028H2.11089H1.35832C0.369644 52.3028 0.0154913 52.6567 0.0154913 53.6594V55.2519C0.0154913 55.5162 0.0164055 55.7823 0.0173237 56.0495C0.0200942 56.8559 0.0229005 57.6727 0.000734023 58.4812ZM15.4949 6.35537H10.6843H9.76943H8.85454C8.29379 6.35537 7.83635 6.35537 7.42317 6.37011C6.80341 6.38486 6.34596 6.81248 6.36072 7.40231C6.36072 7.96264 6.78865 8.36077 7.40842 8.41976H7.60025H7.80684H15.0965H30.0151C30.1922 8.41976 30.4283 8.41976 30.6201 8.37552C31.1071 8.25756 31.417 7.87417 31.417 7.37282C31.417 6.88621 31.1218 6.53232 30.6496 6.41435C30.4431 6.35537 30.2365 6.35537 29.9856 6.35537H22.5337H17.6493H15.4949ZM19.789 57.7734C19.6414 56.4463 19.2725 56.1809 18.7118 56.1809C18.2248 56.1809 17.7526 56.3726 17.6641 57.7587L17.6493 57.8914H13.9455L13.9307 57.7734C13.7241 56.4463 13.37 56.1809 12.8535 56.1809H12.8092C12.337 56.1956 11.8501 56.4021 11.7763 57.7587L11.7615 57.8914H8.20526L8.16099 57.8029C8.13148 57.7292 8.09828 57.6555 8.06507 57.5817C8.03187 57.508 7.99867 57.4343 7.96915 57.3605C7.82159 57.0066 7.67403 56.6822 7.4822 56.3873C7.42317 56.2841 7.1428 56.1956 6.86243 56.1956C6.3312 56.1956 5.97705 56.4611 5.84424 57.7734L5.82949 57.9061H2.11089V54.3819H23.5518V57.9061H19.8037L19.789 57.7734ZM11.5107 52.1258C11.4812 51.1084 11.3926 50.4596 10.3892 50.4301L10.3597 50.4448C9.85797 50.4448 9.53333 50.725 9.38576 52.1406L9.37101 52.2733H5.6229V48.7638H27.0491V52.2733H23.3305L23.3157 52.1406C23.1387 50.7103 22.814 50.4301 22.268 50.4301H22.1943C21.6335 50.4596 21.2794 50.7397 21.1761 52.1258L21.1613 52.2585H17.605L17.5608 52.1701L17.3837 51.6835C17.2509 51.3001 17.1181 50.9462 16.9263 50.6365C16.8672 50.5333 16.5721 50.4448 16.3065 50.4301H16.2622C15.7457 50.4301 15.4506 50.6955 15.244 52.1406L15.2293 52.2733H11.5107V52.1258ZM13.8274 45.564C13.7979 44.9152 13.3847 44.5023 12.8092 44.5023V44.5466C12.2485 44.5466 11.8501 44.9594 11.8058 45.5788V46.1686V46.4783V46.6257H8.01343L7.99867 46.493C7.86586 44.8415 7.615 44.5466 6.95097 44.5318H6.92146C6.28694 44.5318 6.03608 44.8267 5.859 46.493L5.84424 46.6257H2.09614V43.1162H23.5223V46.6257H19.8037L19.789 46.493C19.5529 44.8267 19.3315 44.5318 18.8151 44.5318H18.7118C17.7379 44.6056 17.6788 45.1659 17.6641 46.0654C17.6641 46.1981 17.6641 46.3455 17.6493 46.493L17.6346 46.6257H13.8274V46.4783V46.1833C13.8422 45.9769 13.8422 45.7705 13.8274 45.564ZM4.51617 26.6896C6.0951 25.0971 8.20526 24.2123 10.4335 24.2123H10.463C15.0817 24.2123 18.8446 27.9577 18.8593 32.5731C18.8593 34.7997 17.9887 36.9083 16.4098 38.5009C14.8309 40.0934 12.7207 40.9781 10.4925 40.9781H10.463C5.84425 40.9781 2.08138 37.2327 2.06662 32.6174C2.06662 30.3908 2.93725 28.2821 4.51617 26.6896Z" fill="white"/>
<path fill-rule="evenodd" clip-rule="evenodd" d="M57.9341 57.9209H25.662V59.9705H60V11.4279L59.8672 11.2509C59.7491 11.1035 59.6458 10.956 59.5278 10.838L58.5539 9.86483C55.4698 6.78299 52.2824 3.58319 49.1098 0.457111C48.859 0.206435 48.3868 0.014742 48.0179 0.014742C42.2053 0 36.024 0 27.9699 0L27.964 0H17.4427H16.7934C15.9081 0 15.5244 0.368641 15.5244 1.25338V4.01081V5.60334C15.5244 5.73605 15.5244 5.86876 15.5096 6.00147C15.4949 6.0752 15.4949 6.13418 15.4949 6.20791V6.35537H17.6493V2.10862H47.2505V4.92504V11.3689C47.2505 12.4453 47.6047 12.7845 48.6671 12.7845H52.2677H57.9341V57.9209ZM56.2666 10.6906H49.3312V3.76014L56.2666 10.6906Z" fill="#26C7BC"/>
<path d="M30.6644 34.5638C30.3988 34.5638 30.1627 34.4606 29.9709 34.2541C29.602 33.8707 29.602 33.3104 29.9709 32.8386C30.0594 32.7353 30.148 32.6321 30.266 32.5289L30.325 32.4699C32.4942 30.3023 34.6487 28.1494 36.8178 25.9818C37.29 25.51 37.6147 25.3183 37.9098 25.3183C38.2197 25.3183 38.5443 25.5247 39.0313 25.9966L42.1596 29.1227L50.4084 20.8798L50.0838 20.8503C50.0395 20.8503 49.9805 20.8356 49.9215 20.8356C49.7887 20.8209 49.6263 20.8209 49.4788 20.7914C48.9771 20.7176 48.6081 20.3048 48.5934 19.8182C48.5786 19.361 48.8885 18.8597 49.3607 18.8449C50.0543 18.8154 50.7478 18.8007 51.3971 18.8007C52.0759 18.8007 52.7547 18.8154 53.3892 18.8449C54.0827 18.8744 54.1418 19.6117 54.1418 19.8329C54.1565 20.7766 54.1713 22.03 54.1418 23.2981C54.127 23.9027 53.7729 24.3008 53.2121 24.3303C53.1826 24.3303 53.1531 24.3303 53.1236 24.3303C52.5924 24.3303 52.2234 23.9912 52.1202 23.3866C52.1054 23.2686 52.0906 23.1507 52.0759 22.9885C52.0759 22.9 52.0611 22.8115 52.0464 22.6936L52.0169 22.3986L51.7955 22.6051C51.7217 22.6641 51.6627 22.723 51.6037 22.782C51.4856 22.8852 51.3971 22.9737 51.3086 23.0622C49.7591 24.6105 43.3106 31.0543 43.3106 31.0543C42.8532 31.5114 42.5285 31.7031 42.2334 31.7031C41.9235 31.7031 41.5989 31.5114 41.1562 31.0543C40.4331 30.3318 39.7101 29.6093 38.9723 28.872L37.9098 27.8103L37.8065 27.9135C37.7475 27.9725 37.6885 28.0315 37.6294 28.0757C37.5114 28.1789 37.4081 28.2822 37.3048 28.3854C36.2276 29.4618 35.1651 30.5235 34.0879 31.5999L31.7269 33.9592C31.6088 34.0772 31.5056 34.1804 31.3875 34.2836C31.1809 34.4606 30.9153 34.5638 30.6644 34.5638Z" fill="#26C7BC"/>
<path d="M32.5089 53.6447C32.3908 53.6447 32.2728 53.6447 32.1547 53.6299C31.6235 53.5562 31.2251 53.1286 31.2251 52.6272C31.2251 52.1259 31.6088 51.6982 32.1547 51.6098C32.2728 51.595 32.3908 51.595 32.5089 51.595H32.7155H41.8201C45.7158 51.595 49.6115 51.595 53.5072 51.595H53.5809C53.8023 51.595 53.9941 51.595 54.186 51.6393C54.6729 51.7425 54.9976 52.1259 54.9976 52.6272C54.9976 53.1286 54.6877 53.5119 54.186 53.6152C53.9794 53.6594 53.7728 53.6594 53.5662 53.6594H53.5219C51.2937 53.6594 49.0803 53.6594 46.8521 53.6594H32.6122L32.5089 53.6447Z" fill="#26C7BC"/>
<path d="M7.6888 13.6102C6.86245 13.5955 6.37549 13.2121 6.37549 12.578C6.37549 11.9292 6.8772 11.5458 7.6888 11.5458C9.01687 11.5458 10.3597 11.5458 11.6878 11.5458H20.5121C22.2238 11.5458 23.9208 11.5458 25.6325 11.5458C25.8834 11.5458 26.1637 11.5606 26.3998 11.6343C26.8278 11.7818 27.0491 12.0914 27.0491 12.5633C27.0491 13.0352 26.8278 13.3596 26.3998 13.4923C26.1342 13.5807 25.8391 13.5807 25.5735 13.5807C21.6926 13.5807 17.7969 13.5807 13.916 13.5807H7.74783L7.6888 13.6102Z" fill="white"/>
<path d="M19.184 18.8007C18.8446 18.8007 18.5052 18.8007 18.151 18.8007C17.8116 18.8007 17.4722 18.8007 17.1181 18.8007H14.0192C13.3995 18.8007 12.7797 18.8007 12.1599 18.8007C11.5402 18.8007 10.9204 18.8007 10.3006 18.8007C9.38576 18.8007 8.45611 18.8007 7.54121 18.786C7.08377 18.786 6.7001 18.5943 6.49351 18.2699C6.31644 18.0045 6.30168 17.6801 6.44924 17.3556C6.64108 16.9133 7.00999 16.7216 7.65927 16.7216C8.92831 16.7216 10.1974 16.7216 11.4516 16.7216H18.5494C19.1987 16.7216 19.848 16.7216 20.512 16.7216C21.0728 16.7216 21.4417 16.9133 21.6335 17.3409C21.7811 17.6506 21.7663 17.975 21.5892 18.2551C21.3974 18.5648 21.0285 18.7712 20.6153 18.7712C20.2169 18.8007 19.7447 18.8007 19.184 18.8007Z" fill="white"/>
<path d="M47.9146 48.6901C47.3981 48.6901 46.9849 48.3067 46.9111 47.7611C46.8964 47.6284 46.8964 47.4957 46.8964 47.3483V47.245C46.8964 45.5935 46.8964 43.942 46.8964 42.2905V41.3025C46.8964 40.6832 46.8964 40.0787 46.8964 39.4593C46.8964 38.0438 46.8964 36.5692 46.8964 35.1241C46.8964 34.4311 47.3243 33.9297 47.885 33.9297C48.0326 33.9297 48.1802 33.9592 48.3277 34.0329C48.7557 34.2246 48.9475 34.5785 48.9475 35.1389C48.9475 35.8467 48.9475 36.5692 48.9475 37.277V39.7543C48.9475 42.2315 48.9475 44.7235 48.9475 47.2008V47.304C48.9475 47.4662 48.9475 47.6137 48.9327 47.7759C48.8442 48.3067 48.431 48.6901 47.9146 48.6901Z" fill="#26C7BC"/>
<path d="M52.6219 48.6901C52.0759 48.6901 51.6628 48.2477 51.6037 47.6432C51.589 47.5547 51.6037 47.4515 51.6037 47.3483V47.245V35.3453C51.6037 35.2863 51.6037 35.2421 51.6037 35.1831C51.6185 34.4311 52.0169 33.9297 52.6219 33.9297H52.6367C53.2564 33.9445 53.6549 34.4311 53.6549 35.1979C53.6549 36.6577 53.6549 38.1027 53.6549 39.5626V41.3173C53.6549 43.2785 53.6549 45.2396 53.6549 47.2008V47.3188C53.6549 47.4367 53.6549 47.5547 53.6401 47.6579C53.5958 48.2772 53.1827 48.6901 52.6219 48.6901Z" fill="#26C7BC"/>
<path d="M38.4854 48.6901C37.8804 48.6754 37.4819 48.2035 37.4819 47.481C37.4819 46.0949 37.4819 44.6793 37.4819 43.3227C37.4819 42.7476 37.4819 42.1725 37.4819 41.5975C37.4819 41.1109 37.4819 40.6242 37.4819 40.1524C37.4819 38.7368 37.4819 37.277 37.4967 35.8467C37.4967 35.3306 37.6147 35.1094 37.7033 35.0209C37.9099 34.7997 38.2788 34.5785 38.5591 34.5785C38.5739 34.5785 38.5887 34.5785 38.6182 34.5785C38.8543 34.608 39.1494 34.844 39.4888 35.2421C39.5773 35.3453 39.5773 35.6107 39.5773 35.8172C39.5773 35.8614 39.5773 35.9056 39.5773 35.9499C39.5773 38.9727 39.5773 41.9956 39.5773 45.0184V47.3483C39.5773 47.3925 39.5773 47.422 39.5773 47.4662C39.5626 48.2182 39.1642 48.7049 38.5591 48.7049L38.4854 48.6901Z" fill="#26C7BC"/>
<path d="M33.7632 48.6901C33.1877 48.6901 32.7745 48.1887 32.7597 47.4957C32.745 46.1833 32.7597 44.8562 32.7597 43.5734C32.7597 43.0425 32.7597 42.4969 32.7597 41.9513C32.7597 41.6417 32.7597 41.3468 32.7597 41.0371C32.7597 40.3293 32.7597 39.6068 32.7597 38.8843C32.7745 38.1617 33.1729 37.6751 33.7779 37.6751C34.3829 37.6751 34.8109 38.1617 34.8109 38.8695C34.8256 39.8722 34.8109 40.9044 34.8109 41.8924C34.8109 42.32 34.8109 42.7329 34.8109 43.1605C34.8109 43.5734 34.8109 44.001 34.8109 44.4139C34.8109 45.4018 34.8109 46.434 34.8109 47.4515C34.8109 48.115 34.501 48.5426 33.9402 48.6459C33.8812 48.6901 33.8222 48.6901 33.7632 48.6901Z" fill="#26C7BC"/>
<path d="M43.222 48.6901C43.0597 48.6901 42.8973 48.6458 42.7498 48.5721C42.3661 48.3804 42.1743 48.0413 42.1743 47.5989V47.3187C42.1743 44.8415 42.1595 42.2905 42.1743 39.769C42.1743 39.1349 42.5875 38.6925 43.1925 38.6778H43.2072C43.7975 38.6778 44.2107 39.1349 44.2254 39.7985C44.2402 40.7127 44.2402 41.6269 44.2402 42.5264C44.2402 42.9098 44.2402 43.2932 44.2402 43.6766C44.2402 44.0747 44.2402 44.4581 44.2402 44.8562C44.2402 45.741 44.2549 46.6552 44.2254 47.5547C44.2254 48.2035 43.7827 48.6901 43.222 48.6901Z" fill="#26C7BC"/>
<path d="M32.5237 13.6102C32.3024 13.6102 32.081 13.6102 31.8449 13.6102C31.1514 13.5955 30.694 13.1974 30.6792 12.6075C30.6792 12.3274 30.7677 12.0914 30.9448 11.8997C31.1514 11.6786 31.476 11.5606 31.8597 11.5606C32.45 11.5606 33.0402 11.5458 33.6157 11.5458C34.206 11.5458 34.7962 11.5458 35.3717 11.5606C36.0505 11.5753 36.5227 11.9735 36.5375 12.5633C36.5375 12.8287 36.4489 13.0646 36.2866 13.2416C36.0653 13.4628 35.7406 13.5955 35.3717 13.6102C35.1504 13.6102 34.929 13.6102 34.6929 13.6102C34.5158 13.6102 34.324 13.6102 34.1469 13.6102C33.9699 13.6102 33.7928 13.6102 33.601 13.6102C33.4239 13.6102 33.232 13.6102 33.055 13.6102C32.8926 13.6102 32.7008 13.6102 32.5237 13.6102Z" fill="white"/>
<path d="M52.6366 31.0396C52.1054 31.0396 51.6184 30.5677 51.6184 30.0369C51.6184 29.506 52.0906 29.0047 52.6366 29.0047C53.1678 29.0047 53.6548 29.4913 53.6695 30.0221C53.6695 30.2728 53.5662 30.5382 53.3744 30.7299C53.1678 30.9216 52.9022 31.0396 52.6366 31.0396Z" fill="#26C7BC"/>
<path d="M35.2683 8.41974C34.7223 8.41974 34.2649 7.94788 34.2649 7.38755C34.2649 6.84196 34.7223 6.3701 35.2683 6.3701C35.8143 6.3701 36.2865 6.85671 36.2865 7.4023C36.2865 7.94789 35.8143 8.41974 35.2683 8.41974Z" fill="white"/>
<path d="M26.0455 18.786C25.4996 18.7712 25.0421 18.2994 25.0421 17.7538C25.0421 17.2082 25.5143 16.7363 26.0603 16.7363C26.621 16.7511 27.0785 17.223 27.0637 17.7685C27.049 18.3289 26.5915 18.786 26.0455 18.786Z" fill="white"/>
<path d="M31.6973 18.786C31.1513 18.7712 30.6938 18.2993 30.6938 17.7538C30.7086 17.2229 31.1808 16.7511 31.6973 16.7511H31.712C32.258 16.7658 32.7155 17.2377 32.7007 17.7832C32.7007 18.3288 32.2285 18.786 31.6973 18.786Z" fill="white"/>
<path d="M37.3639 18.786C36.8327 18.786 36.3605 18.3141 36.3605 17.7833C36.3457 17.2377 36.8031 16.7511 37.3491 16.7363H37.3786C37.9099 16.7363 38.3673 17.1935 38.3821 17.739C38.3968 18.2846 37.9394 18.7712 37.3934 18.786H37.3639Z" fill="white"/>
<path d="M10.4483 39.2676C10.0204 39.2676 9.71053 39.0465 9.48919 38.5893C9.37114 38.3534 9.14979 38.1175 8.92844 38.0143C7.76269 37.4687 7.09866 36.6134 6.86256 35.419C6.71499 34.6375 7.01012 34.0919 7.67416 33.9445C7.74794 33.9297 7.82172 33.915 7.8955 33.915C8.38246 33.915 8.75137 34.2984 8.88418 34.9767C9.00223 35.596 9.35638 35.9794 9.94664 36.1563C10.1237 36.2153 10.3008 36.23 10.4779 36.23C10.8763 36.23 11.2452 36.0826 11.5698 35.8024C11.8945 35.5075 12.042 35.1094 11.9535 34.6965C11.865 34.2541 11.5256 33.8855 11.0681 33.738C10.7877 33.6496 10.4926 33.6201 10.1975 33.5906L10.109 33.5758C8.45624 33.4284 7.15768 32.2782 6.87731 30.7299C6.6117 29.2406 7.4233 27.8545 8.98747 27.132C9.19406 27.0435 9.38589 26.8223 9.45967 26.6159C9.65151 26.1293 9.96139 25.8934 10.4188 25.8786H10.4336C10.891 25.8786 11.2157 26.1293 11.4223 26.6306C11.5108 26.8666 11.7617 27.0583 11.9535 27.1467C13.2078 27.7366 14.0489 28.931 14.0489 30.1253C14.0489 30.7152 13.68 31.1575 13.1488 31.2165C13.1045 31.2165 13.0455 31.2313 13.0012 31.2313C12.47 31.2313 12.0715 30.8479 12.0125 30.2875C11.924 29.4913 11.2599 28.9162 10.4188 28.9162C10.227 28.9162 10.0204 28.9457 9.82858 29.0194C9.23833 29.2111 8.89893 29.624 8.86942 30.1696C8.83991 30.7299 9.16455 31.187 9.74004 31.3935C10.0352 31.4967 10.3451 31.5262 10.6402 31.5704C10.7287 31.5852 10.832 31.5999 10.9205 31.5999C12.5733 31.8358 13.7833 32.986 14.0046 34.5343C14.2112 35.9646 13.3996 37.3065 11.8797 38.029C11.5993 38.1617 11.4223 38.4861 11.378 38.5893C11.2009 39.0612 10.891 39.2676 10.4483 39.2676Z" fill="white"/>
</svg>
