<svg width="56" height="60" viewBox="0 0 56 60" fill="none" xmlns="http://www.w3.org/2000/svg">
<path fill-rule="evenodd" clip-rule="evenodd" d="M11.6947 2.29877V4.15563C9.92709 4.15563 8.28449 4.15563 6.58831 4.13778C2.76745 4.15563 0 6.90522 0 10.7261V53.3805C0 57.2192 2.7853 59.9866 6.64187 59.9866C20.7112 60.0045 34.7627 60.0045 48.832 59.9866C49.4569 59.9866 50.0997 59.9152 50.6889 59.7545C53.5992 59.0046 55.4739 56.5228 55.4739 53.434V31.9372C55.4739 29.5751 55.4759 27.2111 55.4778 24.8463C55.4818 20.1149 55.4858 15.3808 55.4739 10.6547C55.4739 7.31588 53.2242 4.67341 49.939 4.22705C49.0743 4.11744 48.1846 4.13244 47.2984 4.14739C46.8854 4.15436 46.4732 4.16131 46.0646 4.15563H43.8863C43.8863 3.91798 43.8884 3.68864 43.8904 3.46479C43.8944 3.03275 43.8981 2.62112 43.8863 2.2095C43.8506 0.852555 42.9936 0.0312454 41.6367 0.0133909H37.9586C36.4053 0.0133909 35.5661 0.852551 35.5661 2.40589V4.10207H20.0327C20.0327 3.87915 20.0348 3.6603 20.0368 3.44415C20.0407 3.01972 20.0446 2.60568 20.0327 2.19164C20.0149 0.870408 19.1579 0.0312454 17.8366 0.0133909C16.5333 -0.00446362 15.2477 -0.00446362 13.9443 0.0133909C12.5696 0.0312454 11.7125 0.906118 11.6947 2.29877ZM2.21396 52.8805C2.21396 40.6324 2.21395 28.4377 2.1961 16.2253H53.3135V40.7573L53.3492 44.4175C53.3492 47.7384 53.3492 50.8987 53.3313 54.0589C53.3313 54.1303 53.3155 54.2018 53.2996 54.2732C53.2917 54.3089 53.2837 54.3446 53.2778 54.3803C52.8493 56.4336 51.1709 57.8441 49.0463 57.8619C47.4989 57.8738 45.9515 57.8699 44.4041 57.8659C43.6304 57.8639 42.8567 57.8619 42.083 57.8619H6.67758C5.03497 57.8619 3.74945 57.237 2.83887 55.8444C2.74701 55.7066 2.67731 55.554 2.59651 55.3772C2.55167 55.2791 2.50342 55.1735 2.44607 55.0588C2.07321 54.3429 2.13597 53.3083 2.21396 52.8805ZM37.7265 2.19164H41.7259C41.7259 2.8344 41.7259 3.44145 41.7438 4.13778H41.0296C40.1012 4.15563 39.6191 4.51272 39.6013 5.19119C39.6013 5.86966 40.119 6.28032 41.0653 6.28032C41.8145 6.28032 42.5658 6.27834 43.3176 6.27635C44.8234 6.27239 46.3317 6.26841 47.8322 6.28032C47.9017 6.28032 47.9716 6.28017 48.0417 6.28002C48.7451 6.27855 49.4713 6.27702 50.1533 6.42315C52.0458 6.8338 53.3492 8.51213 53.3849 10.4404C53.3968 11.2115 53.3929 11.9826 53.3889 12.7642C53.3869 13.1589 53.3849 13.5563 53.3849 13.9577H2.32108C2.32108 13.4918 2.30343 13.0276 2.28589 12.5662C2.24764 11.5604 2.20991 10.5682 2.35679 9.60125C2.66032 7.63726 4.41006 6.29817 6.40976 6.28032C7.51609 6.26842 8.63033 6.27238 9.74722 6.27634C10.3067 6.27833 10.8668 6.28032 11.4269 6.28032C11.4553 6.28032 11.4887 6.28534 11.5379 6.29273C11.5814 6.29927 11.6371 6.30765 11.7125 6.31603V8.15504C11.7304 9.47627 12.5517 10.3511 13.8551 10.4047C14.4978 10.4404 15.1585 10.4404 15.8012 10.4047C16.5333 10.3868 16.9796 9.92263 16.9439 9.27987C16.9261 8.67282 16.4797 8.29788 15.7655 8.28002H13.9086V2.17378H17.8723V4.15563C17.7474 4.15563 17.6224 4.15365 17.4974 4.15167C17.2474 4.1477 16.9975 4.14373 16.7475 4.15563C16.1405 4.19134 15.7298 4.60199 15.7119 5.17334C15.6941 5.74468 16.069 6.19104 16.6582 6.28032C16.8195 6.30719 16.9908 6.30373 17.1571 6.30037C17.2117 6.29927 17.2658 6.29817 17.3189 6.29817H34.6556H35.5661V8.03005C35.584 9.58339 36.4232 10.4226 37.9765 10.4404C38.155 10.4404 38.3336 10.4424 38.5121 10.4444C38.8692 10.4483 39.2263 10.4523 39.5834 10.4404C40.369 10.4047 40.8154 9.9762 40.7975 9.31558C40.7796 8.67282 40.3333 8.29787 39.5655 8.29787H37.8872C37.8676 8.29787 37.848 8.28712 37.8196 8.27153C37.7962 8.25869 37.7668 8.24257 37.7265 8.22645V2.19164Z" fill="white"/>
<path fill-rule="evenodd" clip-rule="evenodd" d="M40.8868 52.8805H2.21396C2.13597 53.3083 2.07321 54.3429 2.44607 55.0588H3.33879C15.7834 55.0588 28.2458 55.0588 40.6904 55.0766C41.8688 55.0945 42.7794 54.7195 43.6185 53.8982C46.6538 50.8987 49.7069 47.9348 52.76 44.9531C52.9207 44.8103 53.0814 44.6675 53.3492 44.4175L53.3135 40.7573H52.5993H44.297C42.1187 40.7573 40.8868 41.9714 40.8868 44.1318V52.8805ZM44.047 42.882H51.7066C51.5995 43.0427 51.5816 43.0963 51.5638 43.132L51.3678 43.323C48.6307 45.9903 45.9087 48.6429 43.1186 51.3807C43.0829 51.1665 43.0472 51.0415 43.0472 50.8987V44.0068C43.0472 43.2391 43.3507 42.882 44.047 42.882Z" fill="#26C7BC"/>
<path d="M27.7101 50.1309C25.1212 50.1309 22.5323 50.1309 19.9434 50.1309C19.0864 50.1309 18.6222 49.756 18.6222 49.0775C18.6222 48.3991 19.1043 48.0063 19.9613 47.9884C25.1926 47.9884 30.4062 47.9884 35.6375 47.9884C36.1553 47.9884 36.6731 48.0955 36.8516 48.6312C36.9588 48.9525 36.9409 49.4525 36.7445 49.6846C36.5124 49.9524 36.0303 50.1131 35.6375 50.1309C32.9772 50.1488 30.3347 50.1309 27.7101 50.1309Z" fill="#26C7BC"/>
<path fill-rule="evenodd" clip-rule="evenodd" d="M19.1161 30.4298C19.6043 29.9417 20.3957 29.9417 20.8839 30.4298L25.6569 35.2028L36.0867 24.773C36.5748 24.2848 37.3663 24.2848 37.8545 24.773C38.3426 25.2611 38.3426 26.0526 37.8545 26.5408L25.6569 38.7383L19.1161 32.1976C18.628 31.7094 18.628 30.918 19.1161 30.4298Z" fill="#26C7BC"/>
</svg>
