<svg width="62" height="61" viewBox="0 0 62 61" fill="none" xmlns="http://www.w3.org/2000/svg">
<path d="M0.770752 56.3639C0.798987 55.9687 0.855455 55.5875 0.869573 55.1922C1.01075 50.1382 1.1378 45.0842 1.26486 40.0302C1.26486 39.7902 1.27898 39.5643 1.29309 39.3243C1.34956 38.1102 1.67426 37.7997 2.88835 37.8279C5.65535 37.8985 8.43646 37.9832 11.2035 38.0538C12.0646 38.082 12.4599 38.4914 12.4599 39.3385C12.4599 39.8749 12.4599 40.4255 12.4599 40.9902C13.3211 40.6655 14.1257 40.2984 14.9728 40.0584C18.855 38.9149 22.5961 39.2961 26.1678 41.1878C27.6925 41.9925 29.2736 42.4584 31.0101 42.4725C33.1982 42.5007 35.3723 42.656 37.5605 42.6278C40.6663 42.5854 43.1227 43.6725 44.7603 46.4253C44.9862 46.3265 45.198 46.2277 45.4097 46.143C48.1767 44.8301 50.9437 43.5031 53.7248 42.2184C56.3365 41.0043 59.3718 41.8937 60.8964 44.2654C61.4329 45.1124 61.3341 45.663 60.5012 46.1995C53.9507 50.4347 47.4144 54.7122 40.8357 58.9051C39.0993 60.0062 37.0664 60.3309 35.0335 60.4721C32.69 60.6415 30.4877 60.0062 28.2713 59.3709C24.742 58.3686 21.1985 57.3945 17.6692 56.3781C16.3422 55.9969 15.114 56.0957 13.9281 56.8157C13.434 57.1122 12.9399 57.3804 12.4175 57.6204C12.0787 57.7757 11.9799 58.0016 11.9799 58.3545C11.9517 59.5827 11.5987 59.9215 10.3564 59.8792C7.60354 59.8086 4.85066 59.7239 2.09778 59.6533C1.4625 59.6392 1.06722 59.3568 0.784869 58.8204C0.770752 58.0157 0.770752 57.1969 0.770752 56.3639ZM58.4118 44.8866C57.3812 43.8983 55.9554 43.6725 54.6001 44.3077C52.3696 45.3524 50.1532 46.3971 47.9367 47.4559C47.1321 47.8371 46.3132 48.2182 45.5086 48.6135C45.5368 48.8959 45.5791 49.1359 45.5933 49.3618C45.7203 50.717 45.2968 51.1829 43.9557 51.1547C40.7651 51.0699 37.5887 50.9852 34.3982 50.9005C33.3112 50.8723 32.2383 50.8582 31.1512 50.8017C30.276 50.7594 29.7395 50.0111 30.0501 49.2629C30.2901 48.6841 30.7701 48.5429 31.3489 48.5571C35.1041 48.67 38.8593 48.7547 42.6145 48.8535C42.798 48.8535 42.9816 48.8535 43.2216 48.8535C43.151 48.5853 43.0945 48.3877 43.038 48.2182C42.3463 46.2559 40.5816 44.9995 38.3793 44.943C36.2194 44.8724 34.0594 44.8442 31.8853 44.7736C30.9818 44.7454 30.0783 44.703 29.1748 44.6183C27.4384 44.4348 25.9419 43.5736 24.389 42.8678C20.4221 41.089 16.5257 41.329 12.7564 43.5031C12.4599 43.6725 12.3187 43.8701 12.3046 44.2372C12.234 47.6959 12.1352 51.1547 12.0364 54.6134C12.0364 54.7969 12.0364 54.9804 12.0364 55.2487C12.347 55.0934 12.5587 55.0087 12.7564 54.8816C14.521 53.8369 16.3563 53.6817 18.3186 54.2605C21.1421 55.0934 23.9796 55.884 26.8172 56.6604C28.8078 57.1969 30.7842 57.8604 32.803 58.1568C35.4429 58.5521 38.0123 58.0863 40.3134 56.5898C45.3674 53.3146 50.4073 50.0535 55.4613 46.7924C56.4636 46.1571 57.4377 45.5218 58.4118 44.8866ZM3.52363 40.1008C3.36834 45.9171 3.21305 51.6488 3.04364 57.4227C5.30241 57.4792 7.4906 57.5498 9.70702 57.6063C9.86231 51.804 10.0317 46.0724 10.187 40.2843C7.95647 40.2278 5.7824 40.1714 3.52363 40.1008Z" fill="url(#paint0_linear_101_3115)"/>
<path d="M44.0121 38.308C42.8122 38.1951 41.8381 38.548 40.8781 39.0845C38.5346 40.4115 36.1488 40.4256 33.8053 39.0986C32.8171 38.5339 31.8007 38.2798 30.6572 38.2798C27.9184 38.308 25.8008 37.1504 24.4314 34.7505C23.9232 33.8752 23.2314 33.2258 22.342 32.7458C19.8574 31.4188 18.601 29.3576 18.6715 26.5201C18.6998 25.6166 18.4739 24.7695 17.9798 24.0072C16.4269 21.5508 16.4128 19.0943 17.9798 16.6379C18.488 15.8332 18.7139 14.958 18.6857 14.0121C18.6292 11.2451 19.8574 9.21222 22.2715 7.91343C23.2456 7.39109 23.9655 6.68522 24.5161 5.73936C25.8573 3.46647 27.8902 2.32297 30.516 2.32297C31.7583 2.32297 32.8595 2.04062 33.9324 1.43357C36.2053 0.177133 38.5346 0.19125 40.7934 1.46181C41.8381 2.05474 42.911 2.30885 44.111 2.30885C46.7791 2.30885 48.8403 3.45235 50.1955 5.78171C50.732 6.69934 51.4379 7.36285 52.3696 7.87108C54.7978 9.18399 56.0401 11.231 55.9977 14.0121C55.9836 15.0144 56.2377 15.9038 56.7601 16.7509C58.2283 19.1085 58.2283 21.4943 56.746 23.866C56.2236 24.713 55.9836 25.6024 55.9977 26.6048C56.0401 29.3576 54.8119 31.4047 52.3978 32.7034C51.5084 33.1834 50.7602 33.7905 50.2661 34.6799C48.8826 37.1504 46.7085 38.2798 44.0121 38.308ZM31.2218 36.0351C32.3512 35.9928 33.6218 36.3881 34.8218 37.0939C36.4735 38.068 38.1535 38.0963 39.8052 37.1222C41.0899 36.3598 42.4592 36.0069 43.9698 36.0493C45.9039 36.1057 47.3862 35.2869 48.332 33.5646C49.0097 32.3364 49.9838 31.4329 51.2261 30.7976C52.9766 29.9082 53.8378 28.4824 53.7672 26.5059C53.7249 25.1648 54.0637 23.9366 54.7837 22.8213C55.8848 21.1414 55.8707 19.4755 54.7837 17.8097C54.0637 16.7085 53.7249 15.4944 53.7672 14.1815C53.8519 12.1627 52.9625 10.7087 51.1696 9.80515C49.9414 9.18399 48.9956 8.26636 48.332 7.05227C47.3862 5.32996 45.9039 4.52527 43.9698 4.58174C42.4734 4.62409 41.104 4.25704 39.8052 3.4947C38.1676 2.53473 36.5017 2.53473 34.8782 3.4947C33.5936 4.25704 32.2242 4.60997 30.7136 4.56762C28.7795 4.51115 27.3113 5.32996 26.3514 7.05227C25.6879 8.25224 24.742 9.16987 23.5138 9.79103C21.7209 10.6804 20.8738 12.1063 20.9444 14.1109C20.9868 15.4238 20.6621 16.6521 19.9421 17.7532C18.7986 19.4755 18.8127 21.1555 19.9421 22.8778C20.648 23.9366 20.9868 25.1366 20.9303 26.393C20.8315 28.5106 21.7632 29.9647 23.6267 30.8823C24.7702 31.447 25.6596 32.3082 26.2667 33.4234C27.2831 35.2869 28.836 36.1481 31.2218 36.0351Z" fill="white"/>
<path d="M45.1275 9.73463C45.071 9.87581 44.9863 10.144 44.8451 10.3699C40.4688 17.3862 36.0924 24.4025 31.7019 31.4188C31.2784 32.0965 30.629 32.2941 30.0643 31.9271C29.4855 31.5741 29.3725 30.9106 29.8102 30.2189C34.1865 23.2026 38.5629 16.1863 42.9393 9.16994C43.3063 8.57701 43.7722 8.37937 44.3228 8.54878C44.7887 8.67583 45.1275 9.11347 45.1275 9.73463Z" fill="white"/>
<path d="M48.3604 26.3646C48.318 27.6634 47.7675 29.1598 46.4969 30.3316C44.704 31.9974 42.0923 31.9833 40.2994 30.3175C37.9983 28.1857 37.8006 24.2752 39.8759 21.9176C41.9935 19.5177 45.424 19.7153 47.2733 22.3412C47.9933 23.3858 48.3604 24.6282 48.3604 26.3646ZM46.1157 25.9552C46.1016 24.9105 45.8193 23.9647 45.0569 23.2306C44.0687 22.2565 42.7276 22.2565 41.7394 23.2164C40.3276 24.5858 40.3135 27.2399 41.7252 28.6093C42.7417 29.5975 44.1534 29.5834 45.1275 28.5387C45.8051 27.8046 46.0875 26.9152 46.1157 25.9552Z" fill="white"/>
<path d="M36.2194 14.365C36.2194 16.172 35.7676 17.4991 34.7935 18.6426C32.8877 20.8731 29.7819 20.9155 27.8054 18.7555C25.8149 16.5532 25.7867 12.8827 27.7772 10.6522C29.8807 8.29458 33.2971 8.52045 35.1323 11.1322C35.8664 12.191 36.2335 13.3909 36.2194 14.365ZM33.9747 14.6756C33.9888 13.7156 33.7065 12.8545 33.0712 12.1204C32.083 10.991 30.5866 10.9628 29.5419 12.0357C28.2148 13.3909 28.2148 15.9462 29.5419 17.3014C30.5724 18.3602 32.0265 18.3461 33.0288 17.2591C33.6924 16.5391 33.9747 15.6638 33.9747 14.6756Z" fill="white"/>
<defs>
<linearGradient id="paint0_linear_101_3115" x1="0.770748" y1="49.226" x2="61.258" y2="49.226" gradientUnits="userSpaceOnUse">
<stop stop-color="#95E0D9"/>
<stop offset="0.5865" stop-color="#26C7BC"/>
</linearGradient>
</defs>
</svg>
